<ttFont>
          <CharString index="0">
            hlineto
            -10 -5 -4 -11 hvcurveto
            -51 vlineto
            -103 callsubr
            53 return
          </CharString>
          <CharString index="1">
            10 -93 callsubr
            vhcurveto
            return
          </CharString>
          <CharString index="2">
            10 5 -81 callgsubr
            49 vlineto
            -106 callsubr
            return
          </CharString>
          <CharString index="3">
            rmoveto
            -38 callgsubr
            57 71 58 -71 rlineto
            -9 7 8 -3 -25 callsubr
            2 4 8 -6 hvcurveto
            -82 107 rlineto
            8 -6 -8 -53 callsubr
            -76 hlineto
            -10 -8 -4 -8 -6 hvcurveto
            -82 -107 rlineto
            return
          </CharString>
          <CharString index="4">
            -10 -91 callgsubr
            vhcurveto
            return
          </CharString>
          <CharString index="5">
            43 333 rmoveto
            -229 108 -116 182 177 139 124 249 298 -191 37 -104 -128 -183 -81 -282 vhcurveto
            302 -251 rmoveto
            -161 -21 165 121 127 45 113 134 136 46 -116 -150 -151 -48 -109 -131 hvcurveto
            return
          </CharString>
          <CharString index="6">
            rmoveto
            34 28 22 40 39 -23 21 -39 -36 -26 -22 -38 -39 25 -23 37 hvcurveto
            -203 hmoveto
            34 28 22 40 39 -23 21 -39 -36 -26 -22 -38 -39 25 -23 37 hvcurveto
            endchar
          </CharString>
          <CharString index="7">
            10 5 0 4 10 vvcurveto
            127 -48 callsubr
            -57 -27 callsubr
            -21 -26 -45 -11 -54 hhcurveto
            -156 -53 127 150 141 46 115 146 52 52 -17 -25 37 hvcurveto
            -3 -70 rlineto
            -11 -1 -67 callgsubr
            56 hlineto
            -85 callgsubr
            129 vlineto
            -8 callgsubr
            -9 5 vhcurveto
            33 -60 -74 18 -75 hhcurveto
            -142 -171 -91 -269 hvcurveto
            return
          </CharString>
          <CharString index="8">
            rmoveto
            -10 -4 3 -73 callgsubr
            48 hlineto
            10 8 4 8 5 hvcurveto
            70 102 -9 callsubr
            -1 4 -11 hhcurveto
            -78 hlineto
            return
          </CharString>
          <CharString index="9">
            rmoveto
            15 4 4 -62 callgsubr
            -260 hlineto
            -20 callsubr
            -43 vlineto
            -15 4 -4 15 vhcurveto
            endchar
          </CharString>
          <CharString index="10">
            7 -46 rlineto
            -10 1 4 14 callgsubr
            118 -105 callgsubr
            -43 263 hlineto
            88 -36 76 -143 -103 -90 -37 -104 -6 vhcurveto
            -10 -1 5 14 callgsubr
            64 hlineto
            9 4 6 9 2 hvcurveto
            36 8 19 28 63 hhcurveto
            79 8 -49 -48 hvcurveto
            return
          </CharString>
          <CharString index="11">
            148 -65 callgsubr
            5 10 hvcurveto
            177 vlineto
            -106 callsubr
            -72 callsubr
            1 hvcurveto
            4 -51 rlineto
            -149 hlineto
            return
          </CharString>
          <CharString index="12">
            -147 rmoveto
            -49 29 -37 55 35 32 15 15 22 vhcurveto
            13 8 0 5 -6 11 -10 20 rcurveline
            -4 8 -6 2 -9 -4 rrcurveto
            -8 -15 -12 -3 -12 hhcurveto
            -30 -3 18 18 return
          </CharString>
          <CharString index="13">
            -5 -8 1 -7 7 -6 rlinecurve
            9 -7 rlineto
            17 -13 5 -8 -16 vvcurveto
            -17 -11 -13 -30 -26 vhcurveto
            -7 -6 -1 -5 7 -9 8 -10 rcurveline
            6 -8 6 -1 9 6 rrcurveto
            45 30 51 43 32 vvcurveto
            25 -14 16 -24 21 vhcurveto
            return
          </CharString>
          <CharString index="14">
            -5 5 -10 return
          </CharString>
          <CharString index="15">
            598 rmoveto
            53 hlineto
            -80 callsubr
            return
          </CharString>
          <CharString index="16">
            hlineto
            10 5 -83 callgsubr
            return
          </CharString>
          <CharString index="17">
            84 -73 103 hintmask 00000000
            hintmask 11101001
            607 234 -84 callgsubr
            50 vlineto
            -106 callsubr
            -220 hlineto
            -11 -4 -4 -11 hvcurveto
            -50 vlineto
            -103 callsubr
            64 -122 hlineto
            -25 -37 -38 -10 -57 hhcurveto
            -157 -52 131 149 132 46 119 146 hvcurveto
            hintmask 11101010
            66 49 -27 -18 25 hvcurveto
            -3 -67 rlineto
            -11 -1 5 -4 10 hhcurveto
            57 hlineto
            -85 callgsubr
            125 vlineto
            10 -5 7 -9 5 vhcurveto
            34 -55 -76 19 -77 hhcurveto
            -142 -171 -92 -263 -197 88 -156 237 hvcurveto
            hintmask 11101001
            75 94 25 30 56 hvcurveto
            10 5 4 6 10 vvcurveto
            return
          </CharString>
          <CharString index="18">
            83 -79 106 hintmask 00000000
            hintmask 11010001
            232 506 rmoveto
            hintmask 11001001
            -56 callgsubr
            hintmask 11010001
            -32 -29 8 12 -16 hvcurveto
            3 52 rlineto
            11 1 -5 -53 callsubr
            -58 -82 callgsubr
            -106 vlineto
            -11 2 -5 11 -3 vhcurveto
            -7 26 57 -13 58 hhcurveto
            129 73 61 100 hvcurveto
            hintmask 11001001
            -36 callgsubr
            hintmask 11010010
            -74 callgsubr
            hintmask 11010001
            7 -22 -47 11 -55 hhcurveto
            return
          </CharString>
          <CharString index="19">
            436 hmoveto
            -21 callgsubr
            520 135 hlineto
            -5 -78 rlineto
            -11 -1 -67 callgsubr
            1 callgsubr
            143 vlineto
            -106 callsubr
            -523 hlineto
            -45 callgsubr
            78 rlineto
            135 -520 -82 hlineto
            -11 -4 -68 callsubr
            return
          </CharString>
          <CharString index="20">
            206 79 rmoveto
            63 hlineto
            10 5 -68 callsubr
            -10 -5 -5 -10 vhcurveto
            -238 hlineto
            -10 -5 -81 callgsubr
            49 1 callsubr
            63 334 -54 hlineto
            -10 -5 -81 callgsubr
            52 1 callsubr
            151 5 callsubr
            -52 callgsubr
            return
          </CharString>
          <CharString index="21">
            rmoveto
            14 -7 -4 3 -16 hhcurveto
            -70 hlineto
            -14 -2 -4 -11 8 hvcurveto
            65 -96 rlineto
            -12 9 6 -3 15 hhcurveto
            40 hlineto
            14 3 4 13 -6 hvcurveto
            endchar
          </CharString>
          <CharString index="22">
            -51 callgsubr
            -57 vlineto
            -10 -5 -97 callgsubr
            57 -241 hlineto
            -87 0 -97 144 38 48 10 14 28 vhcurveto
            9 5 4 19 callgsubr
            -18 46 rcurveline
            -4 10 -4 1 -8 -3 rrcurveto
            -8 -18 -17 -6 -26 hhcurveto
            -52 -8 33 56 hvcurveto
            return
          </CharString>
          <CharString index="23">
            -73 callsubr
            hvcurveto
            return
          </CharString>
          <CharString index="24">
            -238 vlineto
            -49 -49 -49 -63 -79 -7 40 71 vhcurveto
            292 vlineto
            -106 callsubr
            -150 hlineto
            -11 -4 -97 callgsubr
            53 -255 hlineto
            -113 54 -57 108 66 57 25 58 45 vhcurveto
            return
          </CharString>
          <CharString index="25">
            10 5 5 10 return
          </CharString>
          <CharString index="26">
            231 hlineto
            47 -135 rlineto
            -62 hlineto
            -100 callgsubr
            -91 callgsubr
            vhcurveto
            return
          </CharString>
          <CharString index="27">
            -92 callgsubr
            -218 -107 callsubr
            return
          </CharString>
          <CharString index="28">
            -91 callsubr
            -68 hlineto
            -202 586 rlineto
            return
          </CharString>
          <CharString index="29">
            35 240 rmoveto
            -170 85 -82 136 133 108 86 187 221 -147 24 -78 -96 -141 -55 -211 vhcurveto
            230 -170 rmoveto
            -100 -17 103 89 97 32 65 83 86 31 -65 -112 -115 -33 -62 -82 hvcurveto
            return
          </CharString>
          <CharString index="30">
            279 257 rmoveto
            -179 -53 vlineto
            -10 -5 -4 -11 -48 callgsubr
            -93 callsubr
            vhcurveto
            -53 192 hlineto
            return
          </CharString>
          <CharString index="31">
            102 0 78 236 53 235 83 -6 -20 hstemhm
            120 112 297 120 hintmask 00000000
            hintmask 11101100
            284 -4 callgsubr
            hintmask 11011100
            -11 -4 -4 -11 hvcurveto
            -51 vlineto
            -103 callsubr
            52 -231 -48 hlineto
            -20 callsubr
            -15 vlineto
            -15 4 -4 15 vhcurveto
            48 -235 -52 hlineto
            -100 callgsubr
            -91 callgsubr
            vhcurveto
            208 hlineto
            220 153 107 251 hvcurveto
            hintmask 11101100
            -46 callsubr
            236 150 hlineto
            -84 callsubr
            15 -94 callgsubr
            -150 235 31 callsubr
          </CharString>
          <CharString index="32">
            rmoveto
            -84 -28 -29 -55 -35 -22 8 5 -13 vhcurveto
            5 callgsubr
            -4 -3 -10 -18 -52 rcurveline
            -3 -8 -2 -6 10 -5 rrcurveto
            -11 23 42 -10 48 hhcurveto
            143 40 89 109 hvcurveto
            640 -54 callgsubr
            hlineto
            return
          </CharString>
          <CharString index="33">
            -53 hlineto
            -100 callgsubr
            -91 callgsubr
            vhcurveto
            218 -105 callgsubr
            -53 return
          </CharString>
          <CharString index="34">
            15 -54 callsubr
            return
          </CharString>
          <CharString index="35">
            -56 hlineto
            -10 -5 -4 -11 return
          </CharString>
          <CharString index="36">
            hlineto
            -100 callgsubr
            4 -5 11 vhcurveto
            return
          </CharString>
          <CharString index="37">
            49 26 32 38 40 -30 28 -46 -44 -30 -31 -38 -39 27 -30 48 hvcurveto
            return
          </CharString>
          <CharString index="38">
            53 vlineto
            -92 callgsubr
            return
          </CharString>
          <CharString index="39">
            -4 -11 -24 callgsubr
            return
          </CharString>
          <CharString index="40">
            230 vlineto
            -8 callsubr
            218 -105 callgsubr
            -58 257 hlineto
            113 -54 57 -101 -59 -60 -22 -62 -41 vhcurveto
            return
          </CharString>
          <CharString index="41">
            -82 callgsubr
            -51 vlineto
            -103 callsubr
            return
          </CharString>
          <CharString index="42">
            165 481 rmoveto
            10 callsubr
            -131 hlineto
            -10 -5 -97 callgsubr
            50 hlineto
            152 -424 -25 -66 rlineto
            -67 -25 -17 -13 -39 hhcurveto
            -30 -22 7 9 -27 hvcurveto
            -10 3 -6 -2 -3 -10 -17 -49 rcurveline
            -3 -10 0 -4 10 -5 rrcurveto
            -9 19 46 -13 46 hhcurveto
            110 29 64 82 32 hvcurveto
            214 559 rlineto
            15 6 -8 15 -16 hhcurveto
            -146 hlineto
            -10 -5 -97 callgsubr
            51 hlineto
            -104 -296 rlineto
            return
          </CharString>
          <CharString index="43">
            -10 -7 -4 -10 -4 hvcurveto
            return
          </CharString>
          <CharString index="44">
            -107 callsubr
            -519 return
          </CharString>
          <CharString index="45">
            209 hlineto
            -4 -65 16 callsubr
            48 hlineto
            -84 callsubr
            126 -94 callgsubr
            -524 hlineto
            -20 callsubr
            -43 0 callgsubr
            48 hlineto
            -277 -520 rlineto
            -48 hlineto
            -57 callgsubr
            201 -44 callgsubr
            -52 hlineto
            71 135 rlineto
            198 75 rmoveto
            -164 hlineto
            164 310 rlineto
            return
          </CharString>
          <CharString index="46">
            rmoveto
            13 6 -3 4 -14 hhcurveto
            -40 hlineto
            -16 -4 -3 -14 -7 hvcurveto
            -319 -662 rlineto
            -13 -6 19 callsubr
            hhcurveto
            39 8 callsubr
            14 7 hvcurveto
            return
          </CharString>
          <CharString index="47">
            rmoveto
            10 7 4 9 6 hvcurveto
            54 84 58 -85 rlineto
            -8 5 9 callgsubr
            59 hlineto
            10 3 4 9 -6 hvcurveto
            -84 135 -12 callgsubr
            -76 hlineto
            -10 -7 -4 -9 -6 hvcurveto
            -84 -135 rlineto
            return
          </CharString>
          <CharString index="48">
            16 5 3 14 7 hvcurveto
            88 171 7 14 0 6 -6 14 rlinecurve
            -85 169 rlineto
            14 -6 -5 3 -16 hhcurveto
            -60 hlineto
            -14 -3 -4 -13 6 hvcurveto
            93 -186 -95 -188 rlineto
            -13 -7 19 callsubr
            hhcurveto
            return
          </CharString>
          <CharString index="49">
            15 5 3 16 2 hvcurveto
            12 81 rlineto
            2 12 1 15 11 vvcurveto
            65 -94 callgsubr
            -64 hlineto
            -20 callsubr
            -63 vlineto
            -11 1 -16 2 -11 vhcurveto
            12 -83 rlineto
            -16 2 5 -3 15 hhcurveto
            return
          </CharString>
          <CharString index="50">
            -62 vlineto
            -10 -5 -4 -11 hvcurveto
            -51 vlineto
            -103 callsubr
            62 -335 -62 hlineto
            -100 callgsubr
            -91 callgsubr
            vhcurveto
            return
          </CharString>
          <CharString index="51">
            2 -181 rmoveto
            -38 -36 -43 -74 -53 -26 22 47 88 108 0 81 1 vhcurveto
            return
          </CharString>
          <CharString index="52">
            -64 callsubr
            endchar
          </CharString>
          <CharString index="53">
            4 4 15 return
          </CharString>
          <CharString index="54">
            4 -10 hhcurveto
            return
          </CharString>
          <CharString index="55">
            rmoveto
            -22 -36 -17 -27 -37 vvcurveto
            -35 27 -23 36 37 23 25 31 30 -19 24 -12 16 vhcurveto
            29 90 5 14 -2 4 -14 6 rlinecurve
            -1 hlineto
            -14 6 -5 -2 -7 -12 rrcurveto
            return
          </CharString>
          <CharString index="56">
            106 0 79 135 75 294 96 0 -20 return
          </CharString>
          <CharString index="57">
            6 -29 -28 2 -23 hhcurveto
            -128 -183 -81 -282 hvcurveto
            302 -251 rmoveto
            -23 -21 4 6 -17 hvcurveto
            174 472 rlineto
            47 -47 19 -81 -94 vvcurveto
            -151 -48 -109 -131 vhcurveto
            -182 286 rmoveto
            127 45 113 134 22 20 -3 -6 18 vhcurveto
            -174 -472 rlineto
            -55 57 -10 102 82 vvcurveto
            return
          </CharString>
          <CharString index="58">
            11 -7 callgsubr
            vhcurveto
            return
          </CharString>
          <CharString index="59">
            vlineto
            -49 callsubr
            return
          </CharString>
          <CharString index="60">
            -8 -6 2 -73 callgsubr
            endchar
          </CharString>
          <CharString index="61">
            298 -219 29 -146 vhcurveto
            245 -345 rmoveto
            -153 -80 -109 -151 vhcurveto
            -66 return
          </CharString>
          <CharString index="62">
            -11 -4 -4 -11 hvcurveto
            -50 vlineto
            -103 callsubr
            52 -520 -52 -82 callgsubr
            return
          </CharString>
          <CharString index="63">
            328 297 rmoveto
            -112 -2 -181 -4 -162 vvcurveto
            return
          </CharString>
          <CharString index="64">
            rmoveto
            14 -4 3 -13 -5 vhcurveto
            -390 -170 rlineto
            -14 -6 -3 -4 -16 vvcurveto
            -30 vlineto
            -16 19 callsubr
            -7 vhcurveto
            390 -175 rlineto
            13 -6 4 3 14 vvcurveto
            42 vlineto
            16 -3 4 -14 7 vhcurveto
            -321 139 321 131 rlineto
            14 6 3 4 16 vvcurveto
            return
          </CharString>
          <CharString index="65">
            179 538 rmoveto
            36 hlineto
            81 77 -19 -95 -87 -65 -41 -106 -8 -7 0 1 -8 hvcurveto
            return
          </CharString>
          <CharString index="66">
            -40 callsubr
            -422 hlineto
            -20 callsubr
            endchar
          </CharString>
          <CharString index="67">
            -15 4 -4 15 vhcurveto
            422 hlineto
            -84 callsubr
            27 -94 callgsubr
            return
          </CharString>
          <CharString index="68">
            rlineto
            71 hlineto
            -85 callgsubr
            51 vlineto
            -106 callsubr
            return
          </CharString>
          <CharString index="69">
            437 214 rmoveto
            -135 -49 vlineto
            -57 callgsubr
            452 hlineto
            -84 callsubr
            126 -94 callgsubr
            -48 hlineto
            -15 -4 -4 -15 1 hvcurveto
            4 -66 rlineto
            -229 hlineto
            return
          </CharString>
          <CharString index="70">
            199 -47 callgsubr
            -57 vlineto
            -10 -5 -97 callgsubr
            57 return
          </CharString>
          <CharString index="71">
            vlineto
            15 -4 4 -15 -1 vhcurveto
            return
          </CharString>
          <CharString index="72">
            vhcurveto
            54 -334 -53 hlineto
            -100 callgsubr
            -91 callgsubr
            vhcurveto
            return
          </CharString>
          <CharString index="73">
            hstemhm
            0 243 -243 696 return
          </CharString>
          <CharString index="74">
            89 -151 rmoveto
            -53 hlineto
            -100 callgsubr
            -91 callgsubr
            vhcurveto
            271 hlineto
            10 5 -81 callgsubr
            50 -68 callgsubr
            -106 180 hlineto
            -24 29 43 -18 58 hhcurveto
            117 101 76 203 return
          </CharString>
          <CharString index="75">
            -9 58 rlineto
            10 -2 -4 5 -10 hhcurveto
            -136 hlineto
            -11 -4 -52 callgsubr
            return
          </CharString>
          <CharString index="76">
            -16 -4 -3 -15 -5 hvcurveto
            return
          </CharString>
          <CharString index="77">
            49 49 49 63 79 7 -50 -71 vhcurveto
            return
          </CharString>
          <CharString index="78">
            hstemhm
            -23 callsubr
            return
          </CharString>
          <CharString index="79">
            8 6 -2 -53 callsubr
            endchar
          </CharString>
          <CharString index="80">
            hlineto
            -10 -5 -4 -11 1 hvcurveto
            4 -70 rlineto
            return
          </CharString>
          <CharString index="81">
            -7 26 28 -3 30 hhcurveto
            177 139 124 249 184 -73 84 -80 38 hvcurveto
            28 76 rlineto
            14 5 3 callgsubr
            -31 -1 callsubr
            -21 -55 rlineto
            return
          </CharString>
          <CharString index="82">
            10 hhcurveto
            57 hlineto
            10 return
          </CharString>
          <CharString index="83">
            -81 callgsubr
            49 vlineto
            -106 callsubr
            -63 return
          </CharString>
          <CharString index="84">
            108 112 return
          </CharString>
          <CharString index="85">
            hstemhm
            43 120 return
          </CharString>
          <CharString index="86">
            -47 -83 41 -52 hhcurveto
            endchar
          </CharString>
          <CharString index="87">
            -15 -4 -4 -15 hvcurveto
            return
          </CharString>
          <CharString index="88">
            rmoveto
            -10 -3 2 -4 11 hhcurveto
            40 hlineto
            10 7 4 9 5 hvcurveto
            69 126 rlineto
            9 5 -2 4 -11 hhcurveto
            -68 hlineto
            -10 -7 -4 -10 -3 hvcurveto
            return
          </CharString>
          <CharString index="89">
            81 3 callsubr
            return
          </CharString>
          <CharString index="90">
            -15 -1 -33 callgsubr
            return
          </CharString>
          <CharString index="91">
            0 13 callsubr
            return
          </CharString>
          <CharString index="92">
            490 413 rmoveto
            55 hlineto
            -64 callgsubr
            -122 hlineto
            -10 -5 -5 -10 -3 hvcurveto
            return
          </CharString>
          <CharString index="93">
            -16 -4 -3 -14 -7 hvcurveto
            -307 -638 15 callsubr
          </CharString>
          <CharString index="94">
            -262 -16 callsubr
            return
          </CharString>
          <CharString index="95">
            48 vlineto
            -106 callsubr
            return
          </CharString>
          <CharString index="96">
            0 79 335 81 171 83 -73 83 hstemhm
            97 112 return
          </CharString>
          <CharString index="97">
            15 -1 -54 callsubr
            vvcurveto
            return
          </CharString>
          <CharString index="98">
            rlineto
            8 6 return
          </CharString>
          <CharString index="99">
            -30 callsubr
            -207 -11 callgsubr
            return
          </CharString>
          <CharString index="100">
            hstemhm
            88 112 198 -29 callgsubr
            hintmask 01111000
            25 callgsubr
            return
          </CharString>
          <CharString index="101">
            2 callgsubr
            36 126 -22 callsubr
            return
          </CharString>
          <CharString index="102">
            -101 -12 84 151 74 125 84 return
          </CharString>
          <CharString index="103">
            105 -12 89 157 80 294 88 return
          </CharString>
          <CharString index="104">
            hintmask 0000000000000000
            return
          </CharString>
          <CharString index="105">
            0 79 335 81 181 83 hstem
            97 112 return
          </CharString>
          <CharString index="106">
            hlineto
            -31 callsubr
            return
          </CharString>
          <CharString index="107">
            8 callsubr
            15 5 hvcurveto
            return
          </CharString>
          <CharString index="108">
            vlineto
            -82 callsubr
            vhcurveto
            return
          </CharString>
          <CharString index="109">
            241 hintmask 00000000
            return
          </CharString>
          <CharString index="110">
            53 4 callgsubr
            return
          </CharString>
          <CharString index="111">
            hlineto
            -100 callgsubr
            -91 callgsubr
            vhcurveto
            257 hlineto
            10 5 -81 callgsubr
            return
          </CharString>
          <CharString index="112">
            hlineto
            11 4 return
          </CharString>
          <CharString index="113">
            72 60 38 58 104 13 -81 -89 -133 -50 -40 -71 -71 -43 42 0 vhcurveto
            endchar
          </CharString>
          <CharString index="114">
            9 -12 89 -77 79 334 82 return
          </CharString>
          <CharString index="115">
            hlineto
            16 4 3 return
          </CharString>
          <CharString index="116">
            30 callsubr
            53 126 hstemhm
            5 987 return
          </CharString>
          <CharString index="117">
            10 -3 -6 -53 callsubr
            return
          </CharString>
          <CharString index="118">
            81 -29 callsubr
            return
          </CharString>
          <CharString index="119">
            -15 -5 -3 -16 -2 hvcurveto
            return
          </CharString>
          <CharString index="120">
            79 519 81 return
          </CharString>
          <CharString index="121">
            -171 rlineto
            -13 -2 19 callsubr
            hhcurveto
            2 hlineto
            14 4 3 14 2 hvcurveto
            return
          </CharString>
          <CharString index="122">
            rlineto
            -13 -6 19 callsubr
            hhcurveto
            39 8 callsubr
            14 7 hvcurveto
            endchar
          </CharString>
          <CharString index="123">
            rlineto
            -17 callsubr
            return
          </CharString>
          <CharString index="124">
            220 598 rmoveto
            return
          </CharString>
          <CharString index="125">
            131 hstemhm
            return
          </CharString>
          <CharString index="126">
            3 -4 14 return
          </CharString>
          <CharString index="127">
            79 203 78 242 83 -6 -20 return
          </CharString>
          <CharString index="128">
            hlineto
            14 3 3 14 hvcurveto
            2 vlineto
            14 -3 3 -14 vhcurveto
            return
          </CharString>
          <CharString index="129">
            hlineto
            -14 -3 -3 -14 hvcurveto
            -2 vlineto
            -14 3 -3 14 vhcurveto
            return
          </CharString>
          <CharString index="130">
            -16 callsubr
            hstem
            108 return
          </CharString>
          <CharString index="131">
            88 36 131 -22 callsubr
            return
          </CharString>
          <CharString index="132">
            52 97 52 hstem
            150 58 85 56 vstem
            248 return
          </CharString>
          <CharString index="133">
            -20 callsubr
            -20 vlineto
            -15 4 -4 15 vhcurveto
            return
          </CharString>
          <CharString index="134">
            hstemhm
            55 83 -81 109 return
          </CharString>
          <CharString index="135">
            -58 -12 82 354 82 return
          </CharString>
          <CharString index="136">
            -2 0 78 523 78 return
          </CharString>
          <CharString index="137">
            407 0 133 -112 -21 598 81 return
          </CharString>
          <CharString index="138">
            -3 callgsubr
            endchar
          </CharString>
          <CharString index="139">
            43 120 361 125 return
          </CharString>
          <CharString index="140">
            89 112 235 113 return
          </CharString>
          <CharString index="141">
            vlineto
            -15 1 -4 -4 -15 vvcurveto
            return
          </CharString>
          <CharString index="142">
            hstemhm
            58 135 -121 108 hintmask 00000000
            return
          </CharString>
          <CharString index="143">
            149 254 rmoveto
            112 35 56 81 return
          </CharString>
          <CharString index="144">
            vlineto
            -106 callsubr
            -82 hlineto
            -11 -4 return
          </CharString>
        <CharString name=".notdef">
          endchar
        </CharString>
        <CharString name=".null">
          -590 endchar
        </CharString>
        <CharString name="A">
          -51 callsubr
          -34 callsubr
          hintmask 00000000
          hintmask 11010100
          214 214 rmoveto
          -81 callsubr
          251 -79 callsubr
          10 -4 -6 -53 callsubr
          -97 -43 callgsubr
          hintmask 11101000
          -200 -586 rlineto
          -59 -71 callsubr
          213 -105 callgsubr
          -60 hlineto
          161 504 rmoveto
          94 -294 rlineto
          -189 hlineto
          endchar
        </CharString>
        <CharString name="AE">
          27 callgsubr
          hstemhm
          0 239 198 112 146 83 -22 83 -63 83 -3 callsubr
          hintmask 1101010010000000
          -38 callsubr
          hintmask 1111011000000000
          229 148 vlineto
          -53 callgsubr
          hintmask 1101110100000000
          -62 callsubr
          endchar
        </CharString>
        <CharString name="AEacute">
          27 callgsubr
          3 callsubr
          0 239 198 112 -39 155 30 83 -22 83 -63 83 -3 callsubr
          hintmask 1101001000100000
          -38 callsubr
          hintmask 1111001010000000
          229 148 vlineto
          -53 callgsubr
          hintmask 1101011001000000
          -62 callsubr
          75 147 -99 callsubr
          hintmask 0000100100000000
          -55 callsubr
        </CharString>
        <CharString name="Aacute">
          -51 callsubr
          73 126 -34 callsubr
          -386 155 -103 callgsubr
          78 457 -99 callsubr
          hintmask 00001001
          -55 callsubr
        </CharString>
        <CharString name="Abreve">
          -51 callsubr
          76 76 -34 callsubr
          -508 329 -103 callgsubr
          hintmask 00001001
          120 522 rmoveto
          -59 -25 14 28 -7 hvcurveto
          16 -4 -4 3 -16 hhcurveto
          -32 hlineto
          -20 callsubr
          -74 2 56 -44 105 hhcurveto
          99 61 43 75 6 hvcurveto
          15 1 -4 4 -15 hhcurveto
          -31 hlineto
          -16 -5 -3 -16 -5 hvcurveto
          -32 -10 -28 -10 -50 hhcurveto
          endchar
        </CharString>
        <CharString name="Acircumflex">
          -51 callsubr
          73 131 -34 callsubr
          -502 294 -103 callgsubr
          24 443 -104 callsubr
          hintmask 00001001
          -47 callsubr
        </CharString>
        <CharString name="Adieresis">
          -51 callsubr
          79 122 -34 callsubr
          -512 -15 callgsubr
          -3 callsubr
          hintmask 1101001000000000
          214 214 rmoveto
          -81 callsubr
          251 -79 callsubr
          10 -4 -6 -53 callsubr
          -97 -43 callgsubr
          hintmask 1110010000000000
          -200 -586 rlineto
          -59 -71 callsubr
          213 -105 callgsubr
          -60 hlineto
          161 504 rmoveto
          94 -294 rlineto
          -189 hlineto
          hintmask 0000100110000000
          215 449 -101 callsubr
        </CharString>
        <CharString name="Agrave">
          -51 callsubr
          73 126 -34 callsubr
          -463 153 -103 callgsubr
          hintmask 00001001
          108 552 -86 callsubr
        </CharString>
        <CharString name="Amacron">
          -51 callsubr
          101 81 -34 callsubr
          -497 298 -103 callgsubr
          hintmask 00001001
          244 471 -98 callsubr
        </CharString>
        <CharString name="Aogonek">
          106 -233 69 164 79 135 75 294 96 0 -20 hstemhm
          0 243 207 79 hintmask 00000000
          hintmask 11101110
          450 -95 callsubr
          32 21 41 51 55 hvcurveto
          80 -79 callsubr
          10 -4 -6 -53 callsubr
          -97 -43 callgsubr
          -200 -586 rlineto
          -59 -71 callsubr
          213 -105 callgsubr
          -60 hlineto
          46 135 rlineto
          -81 callsubr
          107 hlineto
          11 callgsubr
          hintmask 11110110
          -121 730 rmoveto
          94 -294 rlineto
          -189 hlineto
          endchar
        </CharString>
        <CharString name="Aring">
          -51 callsubr
          46 52 97 52 -34 callsubr
          -452 58 85 56 -3 callsubr
          hintmask 1101000100000000
          214 214 rmoveto
          -81 callsubr
          251 -79 callsubr
          10 -4 -6 -53 callsubr
          -97 -43 callgsubr
          hintmask 1110001000000000
          -200 -586 rlineto
          -59 -71 callsubr
          213 -105 callgsubr
          -60 hlineto
          161 504 rmoveto
          94 -294 rlineto
          -189 hlineto
          hintmask 0000110011000000
          108 416 -80 callgsubr
          endchar
        </CharString>
        <CharString name="Aringacute">
          106 0 79 135 75 409 -20 117 52 hstemhm
          0 243 -1 58 85 56 hintmask 00000000
          hintmask 11110110
          214 214 rmoveto
          -81 callsubr
          251 -79 callsubr
          18 25 12 29 33 vvcurveto
          50 -36 45 -63 -57 -43 -44 -56 -40 15 -24 17 -18 vhcurveto
          hintmask 11111010
          -200 -586 rlineto
          -59 -71 callsubr
          213 -105 callgsubr
          -60 hlineto
          hintmask 11110110
          161 504 rmoveto
          94 -294 rlineto
          -189 hlineto
          58 589 -99 callsubr
          -64 callsubr
          5 -181 rmoveto
          28 15 -20 -28 -27 -16 -22 -27 -27 -15 22 27 28 13 20 29 hvcurveto
          endchar
        </CharString>
        <CharString name="Atilde">
          -51 callsubr
          91 -20 -34 callsubr
          -518 340 -103 callgsubr
          17 569 rmoveto
          -29 -44 -15 -79 -9 2 -5 10 hvcurveto
          31 hlineto
          10 2 1 9 15 11 7 19 hvcurveto
          35 85 -38 59 hhcurveto
          40 36 28 71 9 -2 5 -10 hvcurveto
          -24 hlineto
          -10 -5 -2 -11 -24 -15 -3 -19 hvcurveto
          hintmask 00001001
          -21 callsubr
        </CharString>
        <CharString name="B">
          -3 0 77 238 83 206 81 -5 -20 hstemhm
          107 112 186 115 -71 113 hintmask 00000000
          hintmask 11101010
          39 15 rmoveto
          -11 19 callgsubr
          vhcurveto
          140 hlineto
          54 41 0 3 43 hvcurveto
          137 9 93 73 115 vvcurveto
          84 -53 66 -105 17 vhcurveto
          hintmask 11101100
          55 22 61 55 81 vvcurveto
          102 -87 58 -165 -58 -107 -3 -2 -48 vhcurveto
          hintmask 11011010
          -11 -4 -5 -11 hvcurveto
          -51 vlineto
          -103 callsubr
          52 -519 -53 hlineto
          -10 -5 -4 -11 hvcurveto
          180 251 rmoveto
          72 hlineto
          99 59 -35 -78 -99 -79 -26 -106 hvcurveto
          -45 hlineto
          hintmask 11101100
          527 vmoveto
          47 hlineto
          81 58 -21 -82 -74 -55 -29 -93 hvcurveto
          -38 hlineto
          endchar
        </CharString>
        <CharString name="C">
          39 -12 87 533 88 hstem
          43 120 331 83 vstem
          43 336 rmoveto
          -207 98 -141 227 84 72 21 22 45 vhcurveto
          -100 callsubr
          endchar
        </CharString>
        <CharString name="CR">
          -390 endchar
        </CharString>
        <CharString name="Cacute">
          39 -12 87 533 88 36 126 -22 callsubr
          156 155 20 83 hintmask 11010100
          43 336 rmoveto
          -207 98 -141 227 84 72 21 22 45 vhcurveto
          -100 callsubr
          278 410 -99 callsubr
          hintmask 00101000
          -55 callsubr
        </CharString>
        <CharString name="Ccaron">
          39 -12 87 533 24 callsubr
          51 294 -14 83 hintmask 11010100
          43 336 rmoveto
          -207 98 -141 227 84 72 21 22 45 vhcurveto
          -100 callsubr
          401 527 -96 callgsubr
          hintmask 00101000
          -28 callsubr
        </CharString>
        <CharString name="Ccedilla">
          39 -11 86 533 88 hstem
          43 120 150 120 61 83 vstem
          43 336 rmoveto
          -201 92 -139 214 -7 vhcurveto
          -33 -48 -94 callsubr
          -16 14 13 21 73 3 63 19 41 20 rlinecurve
          -100 callsubr
          endchar
        </CharString>
        <CharString name="Ccircumflex">
          39 -12 87 533 24 callsubr
          50 294 -13 83 hintmask 11010100
          43 336 rmoveto
          -207 98 -141 227 84 72 21 22 45 vhcurveto
          -100 callsubr
          234 396 -104 callsubr
          hintmask 00101000
          -47 callsubr
        </CharString>
        <CharString name="Cdotaccent">
          39 -12 87 533 88 34 143 -22 callsubr
          119 143 69 83 hintmask 11010100
          43 336 rmoveto
          -207 98 -141 227 84 72 21 22 45 vhcurveto
          -100 callsubr
          hintmask 00101000
          239 465 -86 callgsubr
          endchar
        </CharString>
        <CharString name="D">
          89 0 78 524 83 -6 -20 hstemhm
          107 112 297 120 hintmask 00000000
          hintmask 11011000
          271 -4 callgsubr
          hintmask 10111000
          -11 -4 -4 -11 hvcurveto
          -51 vlineto
          -103 callsubr
          52 -519 -52 hlineto
          -100 callgsubr
          -91 callgsubr
          vhcurveto
          208 hlineto
          220 153 107 251 hvcurveto
          hintmask 11011000
          -46 callsubr
          524 31 callsubr
        </CharString>
        <CharString name="Dcaron">
          89 0 78 524 83 -6 -20 73 18 callsubr
          107 112 -80 294 83 120 hintmask 00000000
          hintmask 11001010
          271 -4 callgsubr
          hintmask 10101010
          -11 -4 -4 -11 hvcurveto
          -51 vlineto
          -103 callsubr
          52 -519 -52 hlineto
          -100 callgsubr
          -91 callgsubr
          vhcurveto
          208 hlineto
          220 153 107 251 hvcurveto
          hintmask 11001010
          -46 callsubr
          524 -3 callgsubr
          -147 523 -96 callgsubr
          hintmask 00010100
          -28 callsubr
        </CharString>
        <CharString name="Dcroat">
          -76 callsubr
        </CharString>
        <CharString name="Delta">
          -50 callgsubr
        </CharString>
        <CharString name="E">
          -41 callgsubr
          -29 callsubr
          146 83 -22 83 -63 83 hintmask 00000000
          hintmask 11110010
          220 599 rmoveto
          hintmask 11110100
          209 hlineto
          -4 -69 -69 callgsubr
          134 -68 callgsubr
          -440 -106 callgsubr
          4 -5 11 vhcurveto
          hintmask 11110010
          460 5 callsubr
          -81 callgsubr
          134 vlineto
          -106 callsubr
          -72 callsubr
          1 hvcurveto
          4 -71 rlineto
          -229 230 hlineto
          hintmask 11111000
          -96 callsubr
          endchar
        </CharString>
        <CharString name="Eacute">
          -41 callgsubr
          53 126 -29 callsubr
          49 155 -58 -107 callgsubr
          51 360 -99 callsubr
          hintmask 0001010000000000
          -55 callsubr
        </CharString>
        <CharString name="Ebreve">
          -41 callgsubr
          56 76 -29 callsubr
          -95 329 -88 -107 callgsubr
          hintmask 0001010000000000
          71 425 rmoveto
          -59 -25 14 28 -7 hvcurveto
          16 -4 -4 3 -16 hhcurveto
          -32 hlineto
          -20 callsubr
          -74 2 56 -44 105 hhcurveto
          99 61 43 75 6 hvcurveto
          15 1 -4 4 -15 hhcurveto
          -31 hlineto
          -16 -5 -3 -16 -5 hvcurveto
          -32 -10 -28 -10 -50 hhcurveto
          endchar
        </CharString>
        <CharString name="Ecaron">
          -41 callgsubr
          53 131 -29 callsubr
          -74 294 -74 -107 callgsubr
          156 477 -96 callgsubr
          hintmask 0001010000000000
          -28 callsubr
        </CharString>
        <CharString name="Ecircumflex">
          -41 callgsubr
          53 131 -29 callsubr
          -79 294 -69 -107 callgsubr
          -15 346 -104 callsubr
          hintmask 0001010000000000
          -47 callsubr
        </CharString>
        <CharString name="Edieresis">
          -41 callgsubr
          59 122 -29 callsubr
          -93 -15 callgsubr
          -88 83 -22 83 -63 83 -3 callsubr
          hintmask 1110100001000000
          220 599 rmoveto
          hintmask 1110100010000000
          209 hlineto
          -4 -69 -69 callgsubr
          134 -68 callgsubr
          -440 -106 callgsubr
          4 -5 11 vhcurveto
          hintmask 1110100001000000
          460 5 callsubr
          -81 callgsubr
          134 vlineto
          -106 callsubr
          -72 callsubr
          1 hvcurveto
          4 -71 rlineto
          -229 230 hlineto
          hintmask 1110100100000000
          -96 callsubr
          hintmask 0001011000000000
          172 352 -101 callsubr
        </CharString>
        <CharString name="Edotaccent">
          -41 callgsubr
          51 143 -29 callsubr
          1 143 2 -107 callgsubr
          hintmask 0001010000000000
          1 415 -86 callgsubr
          endchar
        </CharString>
        <CharString name="Egrave">
          -41 callgsubr
          53 126 -29 callsubr
          -36 153 29 -107 callgsubr
          hintmask 0001010000000000
          73 455 -86 callsubr
        </CharString>
        <CharString name="Emacron">
          -41 callgsubr
          81 11 callsubr
          -75 298 -77 -107 callgsubr
          hintmask 0001010000000000
          204 374 -98 callsubr
        </CharString>
        <CharString name="Eng">
          153 -240 91 149 13 callsubr
          hstem
          108 87 363 87 vstem
          -101 callgsubr
          338 -500 rlineto
          -47 vlineto
          -86 -25 -29 -62 -22 -20 3 7 -20 vhcurveto
          -15 4 -5 -2 -5 -14 -15 -45 rcurveline
          -5 -14 2 -5 14 -6 rrcurveto
          -12 34 43 -7 36 hhcurveto
          138 39 89 110 hvcurveto
          endchar
        </CharString>
        <CharString name="Eogonek">
          -35 -233 69 164 78 230 78 213 80 -29 callsubr
          96 79 -29 83 -22 83 -63 83 -3 callsubr
          hintmask 1111110010000000
          316 -95 callsubr
          32 21 41 51 55 hvcurveto
          48 5 callsubr
          -81 callgsubr
          134 vlineto
          -106 callsubr
          -72 callsubr
          1 hvcurveto
          4 -71 rlineto
          -229 230 hlineto
          hintmask 1111101000000000
          148 -65 callgsubr
          5 10 hvcurveto
          177 vlineto
          -106 callsubr
          -72 callsubr
          1 hvcurveto
          4 -51 rlineto
          -149 213 hlineto
          hintmask 1111110100000000
          209 hlineto
          -4 -69 -69 callgsubr
          134 -68 callgsubr
          -440 -106 callgsubr
          4 -5 11 vhcurveto
          348 hlineto
          hintmask 1111110010000000
          11 callgsubr
          endchar
        </CharString>
        <CharString name="Eth">
          -76 callsubr
        </CharString>
        <CharString name="Euro">
          -63 -12 73 121 53 39 53 134 70 hstem
          87 102 232 79 vstem
          31 293 rmoveto
          -15 -2 3 18 callgsubr
          40 hlineto
          -1 -15 0 -10 1 -14 rrcurveto
          -42 hlineto
          -15 -4 -4 -15 -2 hvcurveto
          -2 -15 rlineto
          12 callgsubr
          53 hlineto
          -121 20 76 -73 149 hhcurveto
          46 53 10 22 47 hvcurveto
          14 7 3 5 15 vvcurveto
          86 -94 callgsubr
          -45 hlineto
          -15 -4 -4 -15 2 hvcurveto
          4 -53 rlineto
          -14 -23 -24 -5 -35 hhcurveto
          -88 -42 45 76 -16 hvcurveto
          165 hlineto
          15 5 3 16 2 hvcurveto
          2 15 rlineto
          15 2 3 callgsubr
          -179 hlineto
          -2 15 0 10 1 14 rrcurveto
          185 8 callsubr
          15 2 hvcurveto
          3 17 rlineto
          14 2 3 callgsubr
          -192 hlineto
          75 7 41 59 89 hhcurveto
          41 37 -16 -16 18 hvcurveto
          -4 -50 16 callsubr
          43 hlineto
          -84 callsubr
          88 vlineto
          15 -3 5 -13 7 vhcurveto
          29 -49 -57 8 -49 hhcurveto
          -97 -113 -51 -153 -26 hvcurveto
          -37 hlineto
          12 callsubr
          endchar
        </CharString>
        <CharString name="F">
          -50 0 79 234 78 208 80 -29 callsubr
          156 83 -22 83 hintmask 00000000
          hintmask 11110100
          220 599 rmoveto
          219 hlineto
          -4 -69 -69 callgsubr
          134 vlineto
          -106 callsubr
          -450 -104 callgsubr
          268 -105 callgsubr
          -103 234 hlineto
          hintmask 11111000
          158 -65 callgsubr
          5 10 hvcurveto
          177 vlineto
          -106 callsubr
          -72 callsubr
          1 hvcurveto
          4 -51 rlineto
          -159 hlineto
          endchar
        </CharString>
        <CharString name="G">
          -4 callsubr
          -22 callsubr
          330 84 -73 103 hintmask 00000000
          hintmask 11110100
          607 234 -84 callgsubr
          50 vlineto
          -106 callsubr
          -220 hlineto
          -11 -4 -4 -11 hvcurveto
          -50 vlineto
          -103 callsubr
          64 -122 hlineto
          -25 -37 -38 -10 -57 hhcurveto
          -157 -52 131 149 132 46 119 146 hvcurveto
          hintmask 11111000
          66 49 -27 -18 25 hvcurveto
          -3 -67 rlineto
          -11 -1 5 -4 10 hhcurveto
          57 hlineto
          -85 callgsubr
          125 vlineto
          10 -5 7 -9 5 vhcurveto
          34 -55 -76 19 -77 hhcurveto
          -142 -171 -92 -263 -197 88 -156 237 hvcurveto
          hintmask 11110100
          75 94 25 30 56 hvcurveto
          10 5 4 6 10 vvcurveto
          endchar
        </CharString>
        <CharString name="Gbreve">
          -4 callsubr
          39 76 -22 callsubr
          41 329 -40 -90 callsubr
          hintmask 00010100
          -237 747 rmoveto
          -59 -25 14 28 -7 hvcurveto
          16 -4 -4 3 -16 hhcurveto
          -32 hlineto
          -20 callsubr
          -74 2 56 -44 105 hhcurveto
          99 61 43 75 6 hvcurveto
          15 1 -4 4 -15 hhcurveto
          -31 hlineto
          -16 -5 -3 -16 -5 hvcurveto
          -32 -10 -28 -10 -50 hhcurveto
          endchar
        </CharString>
        <CharString name="Gcircumflex">
          -4 callsubr
          36 18 callsubr
          43 120 46 294 -10 -90 callsubr
          -334 668 -104 callsubr
          hintmask 00010100
          -47 callsubr
        </CharString>
        <CharString name="Gcommaaccent">
          105 -277 207 58 89 157 80 294 88 -22 callsubr
          125 117 88 84 -73 103 hintmask 00000000
          hintmask 01111001
          607 234 -84 callgsubr
          50 vlineto
          -106 callsubr
          -220 hlineto
          -11 -4 -4 -11 hvcurveto
          -50 vlineto
          -103 callsubr
          64 -122 hlineto
          -25 -37 -38 -10 -57 hhcurveto
          -157 -52 131 149 132 46 119 146 hvcurveto
          hintmask 01111010
          66 49 -27 -18 25 hvcurveto
          -3 -67 rlineto
          -11 -1 5 -4 10 hhcurveto
          57 hlineto
          -85 callgsubr
          125 vlineto
          10 -5 7 -9 5 vhcurveto
          34 -55 -76 19 -77 hhcurveto
          -142 -171 -92 -263 -197 88 -156 237 hvcurveto
          hintmask 01111001
          75 94 25 30 56 hvcurveto
          10 5 4 6 10 vvcurveto
          hintmask 10000100
          -238 -276 -102 callgsubr
        </CharString>
        <CharString name="Gdotaccent">
          -4 callsubr
          34 143 -22 callsubr
          129 143 58 -90 callsubr
          hintmask 00010100
          -315 737 -86 callgsubr
          endchar
        </CharString>
        <CharString name="H">
          33 callgsubr
          206 81 hstem
          -23 callsubr
          303 112 vstem
          220 -92 callsubr
          -519 -74 callsubr
          227 303 -227 -74 callsubr
          519 53 hlineto
          -80 callsubr
          -206 -303 hlineto
          endchar
        </CharString>
        <CharString name="Hbar">
          33 callgsubr
          94 53 59 81 hstem
          -23 callsubr
          303 112 vstem
          220 -92 callsubr
          -59 -50 hlineto
          -20 callsubr
          -15 vlineto
          -15 4 -4 15 vhcurveto
          50 -407 -74 callsubr
          227 303 -227 -74 callsubr
          407 49 hlineto
          -84 callsubr
          15 -94 callgsubr
          -49 59 53 hlineto
          -80 callsubr
          -59 -303 hlineto
          -147 vmoveto
          94 303 -94 vlineto
          endchar
        </CharString>
        <CharString name="Hcircumflex">
          33 callgsubr
          206 81 53 131 -29 callsubr
          4 294 5 112 hintmask 11101010
          220 -92 callsubr
          -519 -74 callsubr
          227 303 -227 -74 callsubr
          519 53 hlineto
          -80 callsubr
          -206 -303 hlineto
          68 340 -104 callsubr
          hintmask 00010100
          -47 callsubr
        </CharString>
        <CharString name="I">
          -262 23 callsubr
          112 vstem
          220 -92 callsubr
          -519 -74 callsubr
          hlineto
          endchar
        </CharString>
        <CharString name="IJ">
          67 -240 89 151 79 519 11 callsubr
          217 112 hintmask 01110000
          220 -92 callsubr
          -519 -74 callsubr
          hlineto
          hintmask 10101000
          217 -117 -75 callsubr
          endchar
        </CharString>
        <CharString name="Iacute">
          -13 callsubr
          53 126 -29 callsubr
          -106 155 hintmask 11010000
          220 -92 callsubr
          -519 -74 callsubr
          hlineto
          -104 667 -99 callsubr
          hintmask 00101000
          -55 callsubr
        </CharString>
        <CharString name="Ibreve">
          -13 callsubr
          56 76 hstemhm
          4 329 -225 112 hintmask 11001000
          220 -92 callsubr
          -519 -74 callsubr
          hlineto
          hintmask 00110000
          -50 732 rmoveto
          -59 -25 14 28 -7 hvcurveto
          16 -4 -4 3 -16 hhcurveto
          -32 hlineto
          -20 callsubr
          -74 2 56 -44 105 hhcurveto
          99 61 43 75 6 hvcurveto
          15 1 -4 4 -15 hhcurveto
          -31 hlineto
          -16 -5 -3 -16 -5 hvcurveto
          -32 -10 -28 -10 -50 hhcurveto
          endchar
        </CharString>
        <CharString name="Icircumflex">
          -13 callsubr
          53 131 hstemhm
          17 294 -203 112 hintmask 11001000
          220 -92 callsubr
          -519 -74 callsubr
          hlineto
          -139 653 -104 callsubr
          hintmask 00110000
          -47 callsubr
        </CharString>
        <CharString name="Idieresis">
          -13 callsubr
          59 122 hstemhm
          0 124 -16 112 -17 124 hintmask 11001000
          220 -92 callsubr
          -519 -74 callsubr
          hlineto
          hintmask 00110100
          45 659 -101 callsubr
        </CharString>
        <CharString name="Idotaccent">
          -13 callsubr
          51 143 hstemhm
          89 143 -124 112 hintmask 11001000
          220 -92 callsubr
          -519 -74 callsubr
          hlineto
          hintmask 00110000
          -131 722 -86 callgsubr
          endchar
        </CharString>
        <CharString name="Igrave">
          -13 callsubr
          53 126 hstemhm
          52 153 -97 112 hintmask 11001000
          220 -92 callsubr
          -519 -74 callsubr
          hlineto
          hintmask 00110000
          -59 762 -86 callsubr
        </CharString>
        <CharString name="Imacron">
          -13 callsubr
          81 81 hstemhm
          15 298 -205 112 hintmask 11001000
          220 -92 callsubr
          -519 -74 callsubr
          hlineto
          hintmask 00110000
          74 681 -98 callsubr
        </CharString>
        <CharString name="Iogonek">
          -262 -233 69 164 13 callsubr
          hstemhm
          62 79 -33 -29 callgsubr
          hintmask 11110000
          62 -95 callsubr
          32 21 41 51 55 hvcurveto
          hintmask 11101000
          60 -105 callgsubr
          -53 519 53 hlineto
          -80 callsubr
          -519 hlineto
          hintmask 11110000
          -53 hlineto
          -100 callgsubr
          -91 callgsubr
          vhcurveto
          94 hlineto
          11 callgsubr
          endchar
        </CharString>
        <CharString name="Itilde">
          -13 callsubr
          71 -20 hstemhm
          -6 340 -226 112 hintmask 11001000
          220 -92 callsubr
          -519 -74 callsubr
          hlineto
          -153 779 rmoveto
          -29 -44 -15 -79 -9 2 -5 10 hvcurveto
          31 hlineto
          10 2 1 9 15 11 7 19 hvcurveto
          35 85 -38 59 hhcurveto
          40 36 28 71 9 -2 5 -10 hvcurveto
          -24 hlineto
          -10 -5 -2 -11 -24 -15 -3 -19 hvcurveto
          hintmask 00110000
          -21 callsubr
        </CharString>
        <CharString name="J">
          -261 -240 89 749 81 hstem
          109 112 vstem
          109 -38 -75 callsubr
          endchar
        </CharString>
        <CharString name="Jcircumflex">
          -261 -240 89 749 17 callgsubr
          17 294 -202 112 hintmask 11001000
          109 -38 -75 callsubr
          -28 134 -104 callsubr
          hintmask 00110000
          -47 callsubr
        </CharString>
        <CharString name="K">
          74 0 79 223 82 214 81 hstem
          -23 callsubr
          170 234 vstem
          220 -92 callsubr
          -519 -74 callsubr
          223 51 hlineto
          201 -290 rlineto
          -8 6 9 callgsubr
          128 -105 callgsubr
          -65 hlineto
          -199 286 198 231 rlineto
          51 hlineto
          -85 callgsubr
          53 vlineto
          -106 callsubr
          -204 hlineto
          -11 -4 -4 -11 hvcurveto
          -51 vlineto
          -103 callsubr
          53 hlineto
          -186 -214 rlineto
          -52 hlineto
          endchar
        </CharString>
        <CharString name="Kcommaaccent">
          74 -19 callgsubr
          223 82 214 11 callsubr
          56 117 -3 234 hintmask 01111010
          220 -92 callsubr
          -519 -74 callsubr
          223 51 hlineto
          201 -290 rlineto
          -8 6 9 callgsubr
          128 -105 callgsubr
          -65 hlineto
          -199 286 198 231 rlineto
          51 hlineto
          -85 callgsubr
          53 vlineto
          -106 callsubr
          -204 hlineto
          -11 -4 -4 -11 hvcurveto
          -51 vlineto
          -103 callsubr
          53 hlineto
          -186 -214 rlineto
          -52 hlineto
          hintmask 10000100
          137 -596 -102 callgsubr
        </CharString>
        <CharString name="L">
          -65 23 callsubr
          112 207 83 vstem
          -98 callgsubr
          endchar
        </CharString>
        <CharString name="Lacute">
          -65 0 79 519 81 53 126 -29 callsubr
          -102 155 154 83 hintmask 11010100
          -98 callgsubr
          -100 667 -99 callsubr
          hintmask 00101000
          -55 callsubr
        </CharString>
        <CharString name="Lcaron">
          -65 0 79 380 220 -81 11 callsubr
          151 100 -44 83 hintmask 10110100
          -98 callgsubr
          hintmask 01001000
          151 585 rmoveto
          11 5 4 10 vhcurveto
          72 hlineto
          10 4 -4 -11 -1 hvcurveto
          -32 -190 rlineto
          -11 -2 -6 -4 -10 hhcurveto
          -35 hlineto
          -10 -5 5 10 hvcurveto
          endchar
        </CharString>
        <CharString name="Lcommaaccent">
          -65 -19 callgsubr
          519 11 callsubr
          -14 117 104 83 hintmask 01110100
          -98 callgsubr
          hintmask 10001000
          67 -291 -102 callgsubr
        </CharString>
        <CharString name="Ldot">
          -65 0 79 177 143 199 11 callsubr
          124 143 -60 83 hintmask 10110100
          -98 callgsubr
          hintmask 01001000
          124 248 -86 callgsubr
          endchar
        </CharString>
        <CharString name="Lslash">
          -65 23 callsubr
          112 207 83 vstem
          17 callsubr
          73 hlineto
          -92 callgsubr
          -238 -107 callsubr
          -238 hlineto
          -51 -15 rlineto
          -15 -4 -3 -4 -16 vvcurveto
          -26 vlineto
          -15 4 -3 14 4 vhcurveto
          51 15 rlineto
          -217 -53 vlineto
          -100 callgsubr
          4 -5 11 vhcurveto
          373 hlineto
          -3 -48 -69 callgsubr
          197 vlineto
          -106 callsubr
          -56 -27 callsubr
          -209 243 hlineto
          182 54 rlineto
          15 4 3 4 16 vvcurveto
          26 vlineto
          15 -4 3 -14 -4 vhcurveto
          -182 -54 rlineto
          endchar
        </CharString>
        <CharString name="M">
          319 23 callsubr
          87 499 107 vstem
          476 hmoveto
          10 7 4 10 4 hvcurveto
          197 492 rlineto
          -427 -60 vlineto
          -100 callgsubr
          -91 callgsubr
          vhcurveto
          220 5 callsubr
          -81 callgsubr
          49 vlineto
          -106 callsubr
          -53 519 53 hlineto
          -92 callgsubr
          -167 hlineto
          -10 -7 -4 -10 -3 hvcurveto
          -211 -537 -206 537 rlineto
          10 -3 -7 -53 callsubr
          -175 -104 callgsubr
          203 5 callsubr
          -24 callsubr
          428 hlineto
          194 -493 rlineto
          -10 4 7 -73 callgsubr
          endchar
        </CharString>
        <CharString name="N">
          153 23 callsubr
          87 363 87 vstem
          -101 callgsubr
          339 -501 rlineto
          -8 5 9 callgsubr
          73 hlineto
          -85 callgsubr
          endchar
        </CharString>
        <CharString name="Nacute">
          153 0 79 519 -18 callsubr
          108 87 143 155 65 87 hintmask 11010100
          -101 callgsubr
          339 -501 rlineto
          -8 5 9 callgsubr
          73 hlineto
          -85 callgsubr
          -305 731 -99 callsubr
          hintmask 00101000
          -55 callsubr
        </CharString>
        <CharString name="Ncaron">
          153 0 79 519 17 callgsubr
          108 87 39 294 30 87 hintmask 11010100
          -101 callgsubr
          339 -501 rlineto
          -8 5 9 callgsubr
          73 hlineto
          -85 callgsubr
          -181 848 -96 callgsubr
          hintmask 00101000
          -28 callsubr
        </CharString>
        <CharString name="Ncommaaccent">
          153 -19 callgsubr
          519 81 hstemhm
          108 87 131 117 115 87 hintmask 01110100
          -101 callgsubr
          339 -501 rlineto
          -8 5 9 callgsubr
          73 hlineto
          -85 callgsubr
          hintmask 10001000
          -238 -227 -102 callgsubr
        </CharString>
        <CharString name="Ntilde">
          153 -16 callsubr
          71 -20 hstemhm
          108 87 6 340 17 87 hintmask 11010100
          -101 callgsubr
          339 -501 rlineto
          -8 5 9 callgsubr
          73 hlineto
          -85 callgsubr
          -371 843 rmoveto
          -29 -44 -15 -79 -9 2 -5 10 hvcurveto
          31 hlineto
          10 2 1 9 15 11 7 19 hvcurveto
          35 85 -38 59 hhcurveto
          40 36 28 71 9 -2 5 -10 hvcurveto
          -24 hlineto
          -10 -5 -2 -11 -24 -15 -3 -19 hvcurveto
          hintmask 00101000
          -21 callsubr
        </CharString>
        <CharString name="O">
          2 callgsubr
          hstem
          32 callsubr
          vstem
          -102 callsubr
          endchar
        </CharString>
        <CharString name="OE">
          386 -12 94 -82 82 226 78 213 80 -71 88 hstemhm
          50 120 361 115 146 83 -22 83 -63 83 -3 callsubr
          hintmask 0111011010000000
          855 599 rmoveto
          -4 -65 16 callsubr
          48 hlineto
          -84 callsubr
          126 -94 callgsubr
          -364 hlineto
          -20 callsubr
          hintmask 1010111010000000
          -19 vlineto
          45 -55 -67 10 -51 hhcurveto
          -128 -183 -84 -282 -229 108 -113 182 77 67 19 48 50 hvcurveto
          hintmask 0111011001000000
          -36 vlineto
          -15 4 -4 15 vhcurveto
          384 hlineto
          -84 callsubr
          126 -94 callgsubr
          -48 hlineto
          -15 -4 -4 -15 1 hvcurveto
          4 -63 rlineto
          -229 226 hlineto
          hintmask 0111011100000000
          148 hlineto
          -53 callgsubr
          -476 -231 rmoveto
          hintmask 0110111010000000
          123 45 117 134 136 46 -120 -149 -147 -48 -110 -131 vhcurveto
          hintmask 0111011100000000
          -161 -21 162 124 hvcurveto
          endchar
        </CharString>
        <CharString name="Oacute">
          -6 callsubr
          150 155 56 125 hintmask 11010100
          -102 callsubr
          -30 664 -99 callsubr
          hintmask 00101000
          -55 callsubr
        </CharString>
        <CharString name="Obreve">
          2 callgsubr
          39 76 -22 callsubr
          32 329 0 125 hintmask 11010100
          -102 callsubr
          hintmask 00101000
          16 729 rmoveto
          -59 -25 14 28 -7 hvcurveto
          16 -4 -4 3 -16 hhcurveto
          -32 hlineto
          -20 callsubr
          -74 2 56 -44 105 hhcurveto
          99 61 43 75 6 hvcurveto
          15 1 -4 4 -15 hhcurveto
          -31 hlineto
          -16 -5 -3 -16 -5 hvcurveto
          -32 -10 -28 -10 -50 hhcurveto
          endchar
        </CharString>
        <CharString name="Ocircumflex">
          102 -12 94 526 24 callsubr
          46 294 21 125 hintmask 11010100
          -102 callsubr
          -72 650 -104 callsubr
          hintmask 00101000
          -47 callsubr
        </CharString>
        <CharString name="Odieresis">
          2 callgsubr
          42 122 -22 callsubr
          19 -15 callgsubr
          15 125 hintmask 11010010
          -102 callsubr
          hintmask 00101100
          102 656 -101 callsubr
        </CharString>
        <CharString name="Ograve">
          -6 callsubr
          92 153 116 125 hintmask 11010100
          -102 callsubr
          hintmask 00101000
          19 759 -86 callsubr
        </CharString>
        <CharString name="Ohungarumlaut">
          -6 callsubr
          96 279 -14 125 hintmask 11010100
          -102 callsubr
          50 664 -49 callgsubr
        </CharString>
        <CharString name="Omacron">
          2 callgsubr
          64 81 -22 callsubr
          34 298 29 125 hintmask 11010100
          -102 callsubr
          hintmask 00101000
          131 678 -98 callsubr
        </CharString>
        <CharString name="Omega">
          192 0 79 529 89 hstem
          86 116 375 116 vstem
          344 79 rmoveto
          -77 31 -65 100 137 vvcurveto
          185 75 76 113 109 78 -64 -192 -156 -56 -72 -74 -46 vhcurveto
          -8 -5 -5 -5 -9 vvcurveto
          -44 vlineto
          -11 19 callgsubr
          vhcurveto
          257 hlineto
          -85 callgsubr
          49 -48 callsubr
          -146 hlineto
          81 60 52 106 118 vvcurveto
          209 -117 125 -184 -171 -135 -124 -223 -115 54 -103 78 -53 vhcurveto
          -131 4 callsubr
          44 vlineto
          10 -5 6 -10 4 vhcurveto
          endchar
        </CharString>
        <CharString name="Oslash">
          102 -12 94 -63 -21 610 88 -8 -20 93 -20 hstemhm
          32 callsubr
          hintmask 00000000
          hintmask 10101110
          43 333 rmoveto
          hintmask 01101110
          -14 callgsubr
          hintmask 10011110
          -26 callsubr
          hintmask 10101110
          -50 callsubr
          endchar
        </CharString>
        <CharString name="Oslashacute">
          102 -12 94 -63 -21 610 88 -8 -20 64 126 -97 -20 -22 callsubr
          136 155 70 125 -3 callsubr
          hintmask 1010011010000000
          43 333 rmoveto
          hintmask 0110011010000000
          -14 callgsubr
          hintmask 1001011010000000
          -26 callsubr
          hintmask 1010011010000000
          -50 callsubr
          138 378 -99 callsubr
          hintmask 0000100100000000
          -55 callsubr
        </CharString>
        <CharString name="Otilde">
          2 callgsubr
          54 -20 -22 callsubr
          13 340 8 125 hintmask 11010100
          -102 callsubr
          -96 776 rmoveto
          -29 -44 -15 -79 -9 2 -5 10 hvcurveto
          31 hlineto
          10 2 1 9 15 11 7 19 hvcurveto
          35 85 -38 59 hhcurveto
          40 36 28 71 9 -2 5 -10 hvcurveto
          -24 hlineto
          -10 -5 -2 -11 -24 -15 -3 -19 hvcurveto
          hintmask 00101000
          -21 callsubr
        </CharString>
        <CharString name="P">
          -25 0 79 192 79 252 83 -6 -20 hstemhm
          107 112 196 115 hintmask 00000000
          hintmask 11101100
          40 15 rmoveto
          -11 19 callgsubr
          vhcurveto
          247 hlineto
          -21 callgsubr
          195 hlineto
          -2 17 28 -1 24 hhcurveto
          150 92 85 134 132 -94 63 -172 -58 -87 -3 -3 -64 hvcurveto
          hintmask 11011100
          -11 -4 -52 callgsubr
          -50 vlineto
          -103 callsubr
          52 -520 -52 -82 callgsubr
          hintmask 11101100
          179 538 rmoveto
          36 hlineto
          81 79 -18 -101 -101 -63 -32 -87 -25 -12 0 1 -9 hvcurveto
          endchar
        </CharString>
        <CharString name="Q">
          2 callgsubr
          hstem
          32 callsubr
          vstem
          43 332 rmoveto
          -229 108 -115 182 vhcurveto
          8 8 1 8 hhcurveto
          35 -71 77 -47 60 -31 10 -5 6 0 6 8 23 28 rcurveline
          6 8 0 6 -8 7 -37 32 -40 48 -14 51 rrcurveto
          100 53 68 110 174 vvcurveto
          298 -191 38 -104 -128 -183 -82 -282 vhcurveto
          302 -250 rmoveto
          -161 -21 164 121 127 45 114 134 136 46 -117 -150 -151 -48 -108 -131 hvcurveto
          endchar
        </CharString>
        <CharString name="R">
          7 callgsubr
          hstemhm
          107 112 194 115 hintmask 00000000
          hintmask 11101100
          -88 callgsubr
          hintmask 11011100
          -45 callsubr
          hintmask 11101100
          -42 callsubr
          endchar
        </CharString>
        <CharString name="Racute">
          7 callgsubr
          73 4 callgsubr
          107 112 -9 155 48 115 hintmask 00000000
          hintmask 11100101
          -88 callgsubr
          hintmask 11010101
          -45 callsubr
          hintmask 11100101
          -42 callsubr
          -7 385 -99 callsubr
          hintmask 00001010
          -55 callsubr
        </CharString>
        <CharString name="Rcaron">
          7 callgsubr
          73 18 callsubr
          107 112 -101 294 1 115 hintmask 00000000
          hintmask 11100101
          -88 callgsubr
          hintmask 11010101
          -45 callsubr
          hintmask 11100101
          -42 callsubr
          129 502 -96 callgsubr
          hintmask 00001010
          -28 callsubr
        </CharString>
        <CharString name="Rcommaaccent">
          26 -277 207 70 20 callsubr
          hstemhm
          107 112 33 117 44 115 hintmask 00000000
          hintmask 01110101
          -88 callgsubr
          hintmask 01101101
          -45 callsubr
          hintmask 01110101
          -42 callsubr
          hintmask 10000010
          114 -573 -102 callgsubr
        </CharString>
        <CharString name="S">
          13 callgsubr
          27 callsubr
          195 83 -78 111 hintmask 00000000
          hintmask 11101000
          283 696 rmoveto
          hintmask 11010100
          -146 -80 -89 -113 -118 88 -42 89 -30 hvcurveto
          78 -26 54 -31 -71 vvcurveto
          -79 -60 -22 -64 vhcurveto
          hintmask 11100100
          -46 -44 18 15 -16 hvcurveto
          4 83 rlineto
          11 1 -5 -53 callsubr
          -72 callsubr
          hvcurveto
          -159 vlineto
          -10 3 -5 11 -3 vhcurveto
          -10 32 66 -16 70 hhcurveto
          154 86 79 131 132 -110 39 -84 32 hvcurveto
          hintmask 11011000
          -82 31 -35 31 58 vvcurveto
          56 45 32 62 36 34 -12 -12 20 vhcurveto
          -3 -67 rlineto
          -11 -1 -67 callgsubr
          56 hlineto
          -85 callgsubr
          138 vlineto
          10 -3 5 -11 3 vhcurveto
          hintmask 11101000
          8 -27 -58 14 -63 hhcurveto
          endchar
        </CharString>
        <CharString name="Sacute">
          13 callgsubr
          36 126 27 callsubr
          69 155 -29 -93 callgsubr
          -46 50 -99 callsubr
          hintmask 00100100
          -55 callsubr
        </CharString>
        <CharString name="Scaron">
          13 callgsubr
          36 131 27 callsubr
          -41 294 -58 -93 callgsubr
          72 167 -96 callgsubr
          hintmask 00100100
          -28 callsubr
        </CharString>
        <CharString name="Scedilla">
          13 callgsubr
          hstemhm
          55 83 -81 111 31 120 42 83 -80 113 hintmask 00000000
          hintmask 11101100
          283 696 rmoveto
          hintmask 11011010
          -146 -80 -93 -113 -118 88 -40 89 -30 hvcurveto
          78 -26 52 -29 -77 vvcurveto
          -73 -58 -22 -64 vhcurveto
          hintmask 11101010
          -46 -44 18 15 -16 hvcurveto
          4 83 rlineto
          11 1 -5 -53 callsubr
          -72 callsubr
          hvcurveto
          -159 vlineto
          -10 3 -5 11 -3 vhcurveto
          31 -10 65 -15 69 -1 -32 -47 rcurveline
          -5 -8 1 -7 7 -6 9 -7 rcurveline
          17 -13 5 -8 -16 vvcurveto
          -17 -11 -13 -30 -26 vhcurveto
          -7 -6 -1 -5 7 -9 8 -10 rcurveline
          6 -8 6 -1 9 6 rrcurveto
          45 30 51 43 32 vvcurveto
          25 -14 16 -24 21 vhcurveto
          -16 14 14 23 rlineto
          127 13 71 75 119 vvcurveto
          134 -109 40 -84 32 vhcurveto
          hintmask 11011100
          -82 31 -34 28 58 vvcurveto
          56 43 32 62 36 34 -12 -12 20 vhcurveto
          -3 -67 rlineto
          -11 -1 -67 callgsubr
          56 hlineto
          -85 callgsubr
          138 vlineto
          10 -3 5 -11 3 vhcurveto
          hintmask 11101100
          8 -27 -58 14 -63 hhcurveto
          endchar
        </CharString>
        <CharString name="Scircumflex">
          13 callgsubr
          36 131 27 callsubr
          -38 294 -61 -93 callgsubr
          -91 36 -104 callsubr
          hintmask 00100100
          -47 callsubr
        </CharString>
        <CharString name="Scommaaccent">
          -73 -277 207 58 87 534 87 27 callsubr
          30 117 48 83 -78 111 hintmask 00000000
          hintmask 01110010
          283 696 rmoveto
          hintmask 01101001
          -146 -80 -89 -113 -118 88 -42 89 -30 hvcurveto
          78 -26 54 -31 -71 vvcurveto
          -79 -60 -22 -64 vhcurveto
          hintmask 01110001
          -46 -44 18 15 -16 hvcurveto
          4 83 rlineto
          11 1 -5 -53 callsubr
          -72 callsubr
          hvcurveto
          -159 vlineto
          -10 3 -5 11 -3 vhcurveto
          -10 32 66 -16 70 hhcurveto
          154 86 79 131 132 -110 39 -84 32 hvcurveto
          hintmask 01101010
          -82 31 -35 31 58 vvcurveto
          56 45 32 62 36 34 -12 -12 20 vhcurveto
          -3 -67 rlineto
          -11 -1 -67 callgsubr
          56 hlineto
          -85 callgsubr
          138 vlineto
          10 -3 5 -11 3 vhcurveto
          hintmask 01110010
          8 -27 -58 14 -63 hhcurveto
          hintmask 10000100
          -6 -908 -102 callgsubr
        </CharString>
        <CharString name="T">
          3 0 79 520 80 hstem
          28 callgsubr
          132 87 vstem
          -88 callsubr
          5 callgsubr
          11 vhcurveto
          endchar
        </CharString>
        <CharString name="Tbar">
          3 0 79 208 58 254 80 hstem
          28 callgsubr
          132 87 vstem
          240 345 rmoveto
          -91 hlineto
          26 callsubr
          91 -208 -82 hlineto
          -11 -4 -4 -11 hvcurveto
          -49 -9 callgsubr
          278 hlineto
          -21 callgsubr
          208 94 hlineto
          -84 callsubr
          20 -94 callgsubr
          -94 254 135 hlineto
          -5 -78 rlineto
          -11 -1 -67 callgsubr
          1 callgsubr
          143 vlineto
          -106 callsubr
          -523 hlineto
          -45 callgsubr
          78 rlineto
          135 hlineto
          endchar
        </CharString>
        <CharString name="Tcaron">
          3 0 79 520 80 53 18 callsubr
          20 87 42 294 -203 113 132 87 hintmask 11010110
          -88 callsubr
          5 callgsubr
          11 vhcurveto
          221 863 -96 callgsubr
          hintmask 00101000
          -28 callsubr
        </CharString>
        <CharString name="Thorn">
          -25 0 79 78 79 247 85 31 80 hstem
          107 112 196 115 vstem
          298 hmoveto
          -84 callsubr
          42 -36 callsubr
          -79 81 hlineto
          -2 17 16 -1 31 hhcurveto
          143 104 75 142 133 -91 61 -172 hvcurveto
          -48 31 47 hlineto
          -10 callsubr
          43 -94 callgsubr
          -207 hlineto
          -20 callsubr
          -43 0 callgsubr
          48 -520 -48 hlineto
          -57 callgsubr
          210 483 rmoveto
          81 65 -21 -96 -98 -59 -32 -106 -8 -15 0 1 -8 hvcurveto
          246 vlineto
          endchar
        </CharString>
        <CharString name="U">
          -13 callgsubr
          hstem
          93 112 319 96 vstem
          205 -92 callsubr
          -349 hlineto
          -166 57 -95 207 211 52 137 135 vhcurveto
          338 -69 callsubr
          -202 -107 callsubr
          -317 hlineto
          -123 -37 -80 -127 -140 -15 89 117 vhcurveto
          endchar
        </CharString>
        <CharString name="Uacute">
          -10 callgsubr
          130 155 34 96 hintmask 11010100
          205 -92 callsubr
          -349 hlineto
          -166 57 -95 207 211 52 137 135 vhcurveto
          338 -69 callsubr
          -202 -107 callsubr
          -317 hlineto
          -123 -37 -80 -127 -140 -15 89 117 vhcurveto
          132 462 -99 callsubr
          hintmask 00101000
          -55 callsubr
        </CharString>
        <CharString name="Ubreve">
          -13 callgsubr
          56 76 hstemhm
          93 112 11 329 -21 96 hintmask 11010100
          205 -92 callsubr
          -349 hlineto
          -166 57 -95 207 211 52 137 135 vhcurveto
          338 -69 callsubr
          -202 -107 callsubr
          -317 hlineto
          -123 -37 -80 -127 -140 -15 89 117 vhcurveto
          hintmask 00101000
          177 527 rmoveto
          -59 -25 14 28 -7 hvcurveto
          16 -4 -4 3 -16 hhcurveto
          -32 hlineto
          -20 callsubr
          -74 2 56 -44 105 hhcurveto
          99 61 43 75 6 hvcurveto
          15 1 -4 4 -15 hhcurveto
          -31 hlineto
          -16 -5 -3 -16 -5 hvcurveto
          -32 -10 -28 -10 -50 hhcurveto
          endchar
        </CharString>
        <CharString name="Ucircumflex">
          -13 callgsubr
          53 131 hstemhm
          93 112 14 294 11 96 hintmask 11010100
          205 -92 callsubr
          -349 hlineto
          -166 57 -95 207 211 52 137 135 vhcurveto
          338 -69 callsubr
          -202 -107 callsubr
          -317 hlineto
          -123 -37 -80 -127 -140 -15 89 117 vhcurveto
          78 448 -104 callsubr
          hintmask 00101000
          -47 callsubr
        </CharString>
        <CharString name="Udieresis">
          -13 callgsubr
          59 122 hstemhm
          93 112 -3 -15 callgsubr
          -5 96 hintmask 11010010
          205 -92 callsubr
          -349 hlineto
          -166 57 -95 207 211 52 137 135 vhcurveto
          338 -69 callsubr
          -202 -107 callsubr
          -317 hlineto
          -123 -37 -80 -127 -140 -15 89 117 vhcurveto
          hintmask 00101100
          262 454 -101 callsubr
        </CharString>
        <CharString name="Ugrave">
          -10 callgsubr
          56 153 110 96 hintmask 11010100
          205 -92 callsubr
          -349 hlineto
          -166 57 -95 207 211 52 137 135 vhcurveto
          338 -69 callsubr
          -202 -107 callsubr
          -317 hlineto
          -123 -37 -80 -127 -140 -15 89 117 vhcurveto
          hintmask 00101000
          165 557 -86 callsubr
        </CharString>
        <CharString name="Uhungarumlaut">
          -10 callgsubr
          61 279 -21 96 hintmask 11010100
          205 -92 callsubr
          -349 hlineto
          -166 57 -95 207 211 52 137 135 vhcurveto
          338 -69 callsubr
          -202 -107 callsubr
          -317 hlineto
          -123 -37 -80 -127 -140 -15 89 117 vhcurveto
          197 462 -49 callgsubr
        </CharString>
        <CharString name="Umacron">
          -13 callgsubr
          81 81 hstemhm
          93 112 2 298 19 96 hintmask 11010100
          205 -92 callsubr
          -349 hlineto
          -166 57 -95 207 211 52 137 135 vhcurveto
          338 -69 callsubr
          -202 -107 callsubr
          -317 hlineto
          -123 -37 -80 -127 -140 -15 89 117 vhcurveto
          hintmask 00101000
          281 476 -98 callsubr
        </CharString>
        <CharString name="Uogonek">
          123 -233 69 152 90 -66 -21 607 81 hstemhm
          93 112 124 79 116 96 hintmask 00000000
          hintmask 11011110
          329 -95 callsubr
          33 18 51 76 55 hvcurveto
          87 63 31 87 99 vvcurveto
          338 -69 callsubr
          -202 -107 callsubr
          -317 hlineto
          -123 -37 -80 -127 -140 -15 89 117 vhcurveto
          314 -54 callgsubr
          -349 hlineto
          -166 57 -95 207 18 16 1 2 16 vhcurveto
          hintmask 10111110
          -40 -37 -38 -47 -54 vvcurveto
          endchar
        </CharString>
        <CharString name="Uring">
          -13 callgsubr
          39 52 97 52 hstemhm
          93 112 69 58 85 56 51 96 hintmask 11001001
          205 -92 callsubr
          -349 hlineto
          -166 57 -95 207 211 52 137 135 vhcurveto
          338 -69 callsubr
          -202 -107 callsubr
          -317 hlineto
          -123 -37 -80 -127 -140 -15 89 117 vhcurveto
          hintmask 00110110
          167 434 -80 callgsubr
          endchar
        </CharString>
        <CharString name="Utilde">
          -13 callgsubr
          71 -20 hstemhm
          93 112 -19 340 -2 96 hintmask 11010100
          205 -92 callsubr
          -349 hlineto
          -166 57 -95 207 211 52 137 135 vhcurveto
          338 -69 callsubr
          -202 -107 callsubr
          -317 hlineto
          -123 -37 -80 -127 -140 -15 89 117 vhcurveto
          54 574 rmoveto
          -29 -44 -15 -79 -9 2 -5 10 hvcurveto
          31 hlineto
          10 2 1 9 15 11 7 19 hvcurveto
          35 85 -38 59 hhcurveto
          40 36 28 71 9 -2 5 -10 hvcurveto
          -24 hlineto
          -10 -5 -2 -11 -24 -15 -3 -19 hvcurveto
          hintmask 00101000
          -21 callsubr
        </CharString>
        <CharString name="V">
          94 0 119 -98 -21 598 81 hstemhm
          5 674 -241 2 callsubr
          hintmask 01110000
          269 14 rmoveto
          -10 4 6 -73 callgsubr
          97 hlineto
          10 6 4 10 4 hvcurveto
          hintmask 10101000
          205 584 rlineto
          53 hlineto
          -85 callgsubr
          51 vlineto
          -106 callsubr
          -211 -66 callsubr
          64 hlineto
          -162 -479 -142 479 rlineto
          1 callgsubr
          51 vlineto
          -106 callsubr
          -254 -66 callsubr
          62 hlineto
          endchar
        </CharString>
        <CharString name="W">
          30 callsubr
          hstemhm
          5 987 -241 2 callsubr
          hintmask 01110000
          -78 callgsubr
          hintmask 10101000
          154 583 rlineto
          53 hlineto
          -85 callgsubr
          51 vlineto
          -106 callsubr
          -211 -66 callsubr
          66 hlineto
          -115 -468 -145 535 rlineto
          10 callsubr
          -82 hlineto
          -11 -5 -4 -10 -3 hvcurveto
          -146 -532 -107 465 -39 callsubr
          -250 -39 callgsubr
          endchar
        </CharString>
        <CharString name="Wacute">
          9 callsubr
          -517 155 121 2 callsubr
          hintmask 01101000
          -78 callgsubr
          hintmask 10100010
          154 583 rlineto
          53 hlineto
          -85 callgsubr
          51 vlineto
          -106 callsubr
          -211 -66 callsubr
          66 hlineto
          -115 -468 -145 535 rlineto
          10 callsubr
          -82 hlineto
          -11 -5 -4 -10 -3 hvcurveto
          -146 -532 -107 465 -39 callsubr
          -250 -39 callgsubr
          405 148 -99 callsubr
          hintmask 00010100
          -55 callsubr
        </CharString>
        <CharString name="Wcircumflex">
          30 callsubr
          53 131 hstemhm
          5 987 -631 294 96 2 callsubr
          hintmask 01101000
          -78 callgsubr
          hintmask 10100010
          154 583 rlineto
          53 hlineto
          -85 callgsubr
          51 vlineto
          -106 callsubr
          -211 -66 callsubr
          66 hlineto
          -115 -468 -145 535 rlineto
          10 callsubr
          -82 hlineto
          -11 -5 -4 -10 -3 hvcurveto
          -146 -532 -107 465 -39 callsubr
          -250 -39 callgsubr
          353 134 -104 callsubr
          hintmask 00010100
          -47 callsubr
        </CharString>
        <CharString name="Wdieresis">
          30 callsubr
          59 122 hstemhm
          5 987 -648 -15 callgsubr
          80 2 callsubr
          hintmask 01101000
          -78 callgsubr
          hintmask 10100001
          154 583 rlineto
          53 hlineto
          -85 callgsubr
          51 vlineto
          -106 callsubr
          -211 -66 callsubr
          66 hlineto
          -115 -468 -145 535 rlineto
          10 callsubr
          -82 hlineto
          -11 -5 -4 -10 -3 hvcurveto
          -146 -532 -107 465 -39 callsubr
          -250 -39 callgsubr
          hintmask 00010110
          537 140 -101 callsubr
        </CharString>
        <CharString name="Wgrave">
          9 callsubr
          -588 153 194 2 callsubr
          hintmask 01101000
          -78 callgsubr
          hintmask 10100010
          154 583 rlineto
          53 hlineto
          -85 callgsubr
          51 vlineto
          -106 callsubr
          -211 -66 callsubr
          66 hlineto
          -115 -468 -145 535 rlineto
          10 callsubr
          -82 hlineto
          -11 -5 -4 -10 -3 hvcurveto
          -146 -532 -107 465 -39 callsubr
          -250 -39 callgsubr
          hintmask 00010100
          441 243 -86 callsubr
        </CharString>
        <CharString name="X">
          87 0 78 520 81 hstemhm
          6 248 -248 661 -264 2 callsubr
          hintmask 11010000
          176 78 rmoveto
          142 191 136 -191 rlineto
          -64 -82 callgsubr
          -48 vlineto
          -103 callsubr
          262 hlineto
          -85 callgsubr
          -12 callsubr
          -61 hlineto
          -199 278 rlineto
          hintmask 11101000
          185 242 rlineto
          52 hlineto
          -92 callgsubr
          -211 hlineto
          -10 -5 -4 -11 hvcurveto
          -51 vlineto
          -103 callsubr
          56 hlineto
          -131 -180 -129 180 rlineto
          61 hlineto
          -92 callgsubr
          -250 hlineto
          -10 -5 -4 -11 hvcurveto
          -51 vlineto
          -103 callsubr
          54 hlineto
          190 -260 -195 -260 rlineto
          -53 hlineto
          -10 -5 -5 -10 -48 callgsubr
          -4 5 -11 vhcurveto
          endchar
        </CharString>
        <CharString name="Y">
          74 0 78 520 81 hstemhm
          279 112 22 2 callsubr
          hintmask 11100000
          -77 callsubr
          hintmask 11110000
          -95 callgsubr
          endchar
        </CharString>
        <CharString name="Yacute">
          74 0 78 520 -18 callsubr
          279 112 -79 155 -54 2 callsubr
          hintmask 11010000
          -77 callsubr
          hintmask 11010100
          -95 callgsubr
          237 148 -99 callsubr
          hintmask 00101000
          -55 callsubr
        </CharString>
        <CharString name="Ycircumflex">
          74 0 78 520 17 callgsubr
          205 294 -220 112 22 2 callsubr
          hintmask 11001000
          -77 callsubr
          hintmask 11001100
          -95 callgsubr
          192 134 -104 callsubr
          hintmask 00110000
          -47 callsubr
        </CharString>
        <CharString name="Ydieresis">
          74 0 78 520 81 59 122 hstemhm
          182 124 -27 112 -6 124 -96 2 callsubr
          hintmask 11001000
          -77 callsubr
          hintmask 11001010
          -95 callgsubr
          hintmask 00110100
          370 140 -101 callsubr
        </CharString>
        <CharString name="Ygrave">
          74 0 78 520 -18 callsubr
          231 153 -105 112 22 2 callsubr
          hintmask 11001000
          -77 callsubr
          hintmask 11001100
          -95 callgsubr
          hintmask 00110000
          263 243 -86 callsubr
        </CharString>
        <CharString name="Z">
          29 callsubr
          hstem
          48 87 334 83 vstem
          63 679 rmoveto
          -45 callgsubr
          80 rlineto
          279 hlineto
          -372 -511 rlineto
          -6 -8 -3 -9 -10 vvcurveto
          -48 -9 callgsubr
          425 hlineto
          -3 -48 -69 callgsubr
          197 vlineto
          -106 callsubr
          -59 hlineto
          -10 -5 -4 -11 1 hvcurveto
          6 -71 rlineto
          -306 hlineto
          376 511 rlineto
          6 8 3 9 10 vvcurveto
          -12 callsubr
          endchar
        </CharString>
        <CharString name="Zacute">
          29 callsubr
          3 callsubr
          48 87 130 155 49 83 hintmask 11010100
          63 679 rmoveto
          -45 callgsubr
          80 rlineto
          279 hlineto
          -372 -511 rlineto
          -6 -8 -3 -9 -10 vvcurveto
          -48 -9 callgsubr
          425 hlineto
          -3 -48 -69 callgsubr
          197 vlineto
          -106 callsubr
          -59 hlineto
          -10 -5 -4 -11 1 hvcurveto
          6 -71 rlineto
          -306 hlineto
          376 511 rlineto
          6 8 3 9 10 vvcurveto
          -12 callsubr
          -268 67 -99 callsubr
          hintmask 00101000
          -55 callsubr
        </CharString>
        <CharString name="Zcaron">
          29 callsubr
          53 18 callsubr
          48 87 12 294 28 83 hintmask 11010100
          63 679 rmoveto
          -45 callgsubr
          80 rlineto
          279 hlineto
          -372 -511 rlineto
          -6 -8 -3 -9 -10 vvcurveto
          -48 -9 callgsubr
          425 hlineto
          -3 -48 -69 callgsubr
          197 vlineto
          -106 callsubr
          -59 hlineto
          -10 -5 -4 -11 1 hvcurveto
          6 -71 rlineto
          -306 hlineto
          376 511 rlineto
          6 8 3 9 10 vvcurveto
          -12 callsubr
          -158 184 -96 callgsubr
          hintmask 00101000
          -28 callsubr
        </CharString>
        <CharString name="Zdotaccent">
          29 callsubr
          51 143 hstemhm
          48 87 84 143 107 83 hintmask 11010100
          63 679 rmoveto
          -45 callgsubr
          80 rlineto
          279 hlineto
          -372 -511 rlineto
          -6 -8 -3 -9 -10 vvcurveto
          -48 -9 callgsubr
          425 hlineto
          -3 -48 -69 callgsubr
          197 vlineto
          -106 callsubr
          -59 hlineto
          -10 -5 -4 -11 1 hvcurveto
          6 -71 rlineto
          -306 hlineto
          376 511 rlineto
          6 8 3 9 10 vvcurveto
          -12 callsubr
          hintmask 00101000
          -316 122 -86 callgsubr
          endchar
        </CharString>
        <CharString name="a">
          -31 callgsubr
          hstemhm
          35 106 189 106 hintmask 00000000
          hintmask 01111100
          -44 callsubr
          hintmask 10111100
          -34 callgsubr
          hintmask 01111100
          -97 callsubr
          hintmask 10111100
          -56 callsubr
          endchar
        </CharString>
        <CharString name="aacute">
          -31 callgsubr
          74 152 hstemhm
          35 106 74 154 -39 -87 callgsubr
          -113 370 -76 callgsubr
          hintmask 00001010
          -31 callsubr
          endchar
        </CharString>
        <CharString name="abreve">
          -66 4 0 97 198 endchar
        </CharString>
        <CharString name="acircumflex">
          -66 4 0 97 195 endchar
        </CharString>
        <CharString name="acute">
          580 152 hstem
          165 154 vstem
          167 598 -76 callgsubr
          -16 -4 -3 -15 -5 hvcurveto
          endchar
        </CharString>
        <CharString name="acute.cap">
          732 126 hstem
          145 155 vstem
          147 746 -99 callsubr
          -55 callsubr
        </CharString>
        <CharString name="adieresis">
          -66 18 0 97 200 endchar
        </CharString>
        <CharString name="ae">
          188 -12 84 163 74 113 84 -77 77 hstemhm
          35 106 187 107 203 110 hintmask 00000000
          hintmask 11101110
          716 22 rmoveto
          14 7 2 5 -6 14 -15 39 rcurveline
          -6 14 -4 2 -14 -6 rrcurveto
          -15 -34 -26 -10 -48 hhcurveto
          -109 -35 68 95 hvcurveto
          292 hlineto
          16 3 4 15 1 hvcurveto
          1 11 0 12 8 vvcurveto
          115 -45 106 -146 -64 -56 -20 -50 -40 vhcurveto
          44 -21 -48 26 -76 hhcurveto
          -94 -89 -30 -107 -10 hvcurveto
          hintmask 11011110
          -15 -1 3 18 callgsubr
          52 8 callsubr
          16 3 hvcurveto
          45 8 37 15 47 hhcurveto
          61 24 -29 -64 hvcurveto
          -27 vlineto
          -112 -2 -181 -4 -167 vvcurveto
          -111 72 -37 87 57 63 13 50 70 vhcurveto
          -41 37 54 -22 81 hhcurveto
          hintmask 11101110
          65 57 16 18 38 hvcurveto
          -575 123 rmoveto
          85 103 3 80 2 vhcurveto
          -54 11 -40 16 -28 vhcurveto
          -19 -21 -51 -24 -51 hhcurveto
          -64 -23 32 43 hvcurveto
          405 277 rmoveto
          81 11 -59 -54 hvcurveto
          -203 hlineto
          37 2 21 76 88 hhcurveto
          endchar
        </CharString>
        <CharString name="aeacute">
          188 193 0 241 194 endchar
        </CharString>
        <CharString name="agrave">
          -66 -40 0 97 193 endchar
        </CharString>
        <CharString name="amacron">
          -31 callgsubr
          106 81 hstemhm
          35 106 -39 298 -70 -87 callgsubr
          hintmask 00001010
          51 384 -98 callsubr
        </CharString>
        <CharString name="ampersand">
          57 -18 83 255 83 209 84 hstemhm
          80 105 -89 106 231 110 hintmask 00000000
          hintmask 11110100
          588 320 rmoveto
          -10 callsubr
          46 -94 callgsubr
          -260 hlineto
          hintmask 11101100
          -101 -25 55 50 55 30 49 71 64 21 -29 -51 4 hvcurveto
          -15 1 4 -4 16 hhcurveto
          53 hlineto
          -73 callsubr
          -1 hvcurveto
          112 -1 -63 52 -115 hhcurveto
          -140 -69 -84 -98 -89 61 -43 60 -22 hvcurveto
          hintmask 11110100
          -70 -16 -67 -65 -103 vvcurveto
          -130 80 -64 146 75 90 21 29 56 vhcurveto
          13 7 3 5 15 vvcurveto
          261 vlineto
          -358 -136 rmoveto
          76 49 60 105 vhcurveto
          94 -227 hlineto
          -22 -37 -42 -6 -36 hhcurveto
          -86 -47 42 77 hvcurveto
          endchar
        </CharString>
        <CharString name="aogonek">
          -50 -233 69 152 82 -70 79 149 69 132 77 hstemhm
          35 106 167 79 -57 106 hintmask 00000000
          hintmask 10111110
          308 -95 callsubr
          32 21 41 51 55 hvcurveto
          hintmask 10111101
          20 -105 callgsubr
          -43 263 hlineto
          88 -36 76 -143 -103 -90 -37 -104 -6 vhcurveto
          -10 -1 5 14 callgsubr
          64 hlineto
          9 4 6 9 2 hvcurveto
          36 8 19 28 63 hhcurveto
          79 8 -49 -48 hvcurveto
          -35 vlineto
          -112 -2 -181 -4 -162 vvcurveto
          hintmask 11011101
          -34 callgsubr
          hintmask 10111101
          7 -46 rlineto
          hintmask 10111110
          -10 1 4 14 callgsubr
          34 hlineto
          11 callgsubr
          hintmask 11011101
          22 298 rmoveto
          -38 -36 -43 -74 -53 -26 22 47 88 108 0 81 1 vhcurveto
          endchar
        </CharString>
        <CharString name="apostrophe">
          753 -20 hstem
          190 123 vstem
          274 595 -77 callgsubr
        </CharString>
        <CharString name="approxequal">
          46 122 153 50 153 hstemhm
          76 484 -478 484 hintmask 10010000
          186 275 rmoveto
          -41 -63 -30 -107 -9 3 -7 12 hvcurveto
          44 hlineto
          10 4 2 11 30 8 12 33 hvcurveto
          50 128 -54 84 hhcurveto
          57 53 34 102 -2 hvcurveto
          -106 callsubr
          -37 hlineto
          -10 -5 -6 -10 -33 -21 -5 -27 hvcurveto
          -71 -120 55 -74 hhcurveto
          -6 203 rmoveto
          -41 -63 -30 -107 -9 3 -7 12 hvcurveto
          44 hlineto
          10 4 2 11 30 8 12 33 hvcurveto
          50 128 -54 84 hhcurveto
          57 53 34 102 -2 hvcurveto
          -106 callsubr
          -37 hlineto
          -10 -5 -6 -10 -33 -21 -5 -27 hvcurveto
          hintmask 01100000
          -71 -120 55 -74 hhcurveto
          endchar
        </CharString>
        <CharString name="aring">
          -31 callgsubr
          59 52 97 52 hstemhm
          35 106 17 58 85 56 -27 106 -3 callsubr
          hintmask 0111001001000000
          -44 callsubr
          hintmask 1011001001000000
          -34 callgsubr
          hintmask 0111001001000000
          -97 callsubr
          hintmask 1011001001000000
          -56 callsubr
          hintmask 0000110110000000
          -74 337 -80 callgsubr
          endchar
        </CharString>
        <CharString name="aringacute">
          -31 callgsubr
          28 52 97 52 23 4 callgsubr
          35 106 17 58 -1 155 -69 56 -27 106 -3 callsubr
          hintmask 0111000100010000
          -44 callsubr
          hintmask 1011000100010000
          -34 callgsubr
          hintmask 0111000100010000
          -97 callsubr
          hintmask 1011000100010000
          -56 callsubr
          hintmask 0000110010100000
          -74 306 -80 callgsubr
          -41 89 -99 callsubr
          hintmask 0000001001000000
          -55 callsubr
        </CharString>
        <CharString name="asciicircum">
          -6 314 376 hstem
          66 429 vstem
          394 328 rmoveto
          -10 4 7 -73 callgsubr
          69 hlineto
          10 3 4 10 -4 hvcurveto
          -168 348 rlineto
          10 -4 -7 -53 callsubr
          -47 hlineto
          -64 callsubr
          -168 -348 rlineto
          -10 -5 3 -73 callgsubr
          66 hlineto
          10 7 4 10 4 hvcurveto
          116 259 rlineto
          endchar
        </CharString>
        <CharString name="asciitilde">
          46 215 153 hstem
          72 484 vstem
          176 368 rmoveto
          -41 -63 -30 -107 -9 3 -7 12 hvcurveto
          44 hlineto
          10 4 2 11 30 8 12 33 hvcurveto
          50 128 -54 84 hhcurveto
          57 53 34 102 -2 hvcurveto
          -106 callsubr
          -37 hlineto
          -10 -5 -6 -10 -33 -21 -5 -27 hvcurveto
          -71 -120 55 -74 hhcurveto
          endchar
        </CharString>
        <CharString name="asterisk">
          -104 442 221 83 -20 hstem
          68 350 vstem
          205 610 rmoveto
          -104 50 -14 6 -5 -1 -8 -13 rlinecurve
          -1 -2 -8 -13 1 -5 12 -9 rlinecurve
          98 -71 -98 -68 -12 -9 -1 -5 7 -14 rlinecurve
          1 -1 7 -14 5 -2 14 7 rlinecurve
          108 49 12 -115 rlineto
          -15 2 -33 callgsubr
          4 hlineto
          -73 callsubr
          2 hvcurveto
          14 115 105 -49 14 -7 5 2 8 13 rlinecurve
          2 1 8 13 -1 5 -12 9 rlinecurve
          -100 72 99 68 12 9 1 5 -7 13 rlinecurve
          -1 2 -7 13 -5 2 -14 -7 rlinecurve
          -109 -49 -11 117 rlineto
          15 -2 -4 4 -15 hhcurveto
          -5 hlineto
          -15 -4 -4 -15 -2 hvcurveto
          endchar
        </CharString>
        <CharString name="at">
          258 -137 37 100 48 -48 78 158 64 116 74 97 38 hstemhm
          47 48 151 101 172 99 146 43 -3 callsubr
          hintmask 1101111111000000
          47 229 rmoveto
          -254 167 -112 222 23 24 1 2 24 vhcurveto
          14 1 3 4 -2 14 rrcurveto
          2 vlineto
          -2 14 -3 4 -15 -2 rrcurveto
          -2 -21 -21 -1 -20 hhcurveto
          -193 -152 95 236 204 131 152 211 211 116 -121 -203 -120 -38 -95 -75 -26 -7 18 31 hvcurveto
          240 vlineto
          81 -32 72 -134 -85 -89 -29 -98 -10 vhcurveto
          12 callgsubr
          45 hlineto
          16 -54 callsubr
          2 hvcurveto
          33 5 16 20 62 hhcurveto
          63 19 -32 -60 hvcurveto
          -24 vlineto
          -103 -1 -168 -12 -155 vvcurveto
          -99 72 -33 67 72 42 34 29 24 vhcurveto
          -43 2 38 -20 49 hhcurveto
          161 34 150 119 233 -139 123 -224 -241 -156 -160 -236 hvcurveto
          hintmask 1011111111000000
          472 -82 rmoveto
          -34 -32 -35 -64 -54 -22 29 39 86 99 2 73 2 vhcurveto
          endchar
        </CharString>
        <CharString name="atilde">
          -31 callgsubr
          92 114 hstemhm
          35 106 -61 340 -90 -87 callgsubr
          -177 484 rmoveto
          -29 -44 -15 -79 -9 2 -5 10 hvcurveto
          31 hlineto
          10 2 1 9 15 11 7 19 hvcurveto
          35 85 -38 59 hhcurveto
          40 36 28 71 9 -2 5 -10 hvcurveto
          -24 hlineto
          -10 -5 -2 -11 -24 -15 -3 -19 hvcurveto
          hintmask 00001010
          -21 callsubr
        </CharString>
        <CharString name="b">
          -6 -12 85 -73 79 335 92 157 83 hstemhm
          33 callsubr
          hintmask 00000000
          hintmask 01111100
          89 79 rmoveto
          -53 hlineto
          -100 callgsubr
          -91 callgsubr
          vhcurveto
          122 hlineto
          10 4 5 10 1 hvcurveto
          hintmask 10111100
          6 41 rlineto
          -36 22 54 -32 78 hhcurveto
          121 95 80 197 162 -76 79 -120 -63 -57 -32 -54 -32 hvcurveto
          311 -48 callsubr
          -151 hlineto
          -11 -4 -4 -11 hvcurveto
          -53 vlineto
          -103 callsubr
          54 hlineto
          112 -361 rmoveto
          72 60 40 58 104 13 -85 -85 -132 -52 -39 -69 -74 -40 52 0 vhcurveto
          endchar
        </CharString>
        <CharString name="backslash">
          -156 745 -20 hstem
          24 376 vstem
          321 -83 rmoveto
          -15 5 4 -3 16 hhcurveto
          39 hlineto
          15 3 4 14 -5 hvcurveto
          -294 810 rlineto
          15 -5 -4 3 -16 hhcurveto
          -40 hlineto
          -15 -3 -4 -14 5 hvcurveto
          endchar
        </CharString>
        <CharString name="bar">
          30 callgsubr
          726 rmoveto
          -23 callgsubr
          -39 hlineto
          -20 callsubr
          -808 vlineto
          -15 4 -4 15 vhcurveto
          39 hlineto
          -84 callsubr
          endchar
        </CharString>
        <CharString name="braceleft">
          -262 36 callgsubr
          40 173 vstem
          137 273 rmoveto
          -27 -404 16 callsubr
          153 hlineto
          -84 callsubr
          48 -36 callsubr
          -68 -5 rlineto
          733 vlineto
          68 -5 rlineto
          -10 callsubr
          51 -94 callgsubr
          -153 hlineto
          -15 -4 -4 -15 1 hvcurveto
          27 -368 rlineto
          -78 hlineto
          -20 callsubr
          -48 vlineto
          -15 4 -4 15 vhcurveto
          endchar
        </CharString>
        <CharString name="braceright">
          -260 36 callgsubr
          127 173 vstem
          281 273 -26 callgsubr
          48 -94 callgsubr
          -78 hlineto
          27 368 rlineto
          15 1 -4 4 -15 hhcurveto
          -153 hlineto
          -20 callsubr
          -51 0 callgsubr
          68 5 rlineto
          -733 vlineto
          -68 5 rlineto
          -15 1 -4 -4 -15 vvcurveto
          -48 vlineto
          -15 4 -4 15 vhcurveto
          153 hlineto
          -73 callsubr
          -1 hvcurveto
          -27 404 rlineto
          endchar
        </CharString>
        <CharString name="bracketleft">
          -253 -150 82 728 85 hstem
          126 96 vstem
          309 -83 rmoveto
          15 -4 4 -15 -1 vhcurveto
          -68 -5 rlineto
          733 vlineto
          68 -5 rlineto
          -10 callsubr
          51 -94 callgsubr
          -145 hlineto
          -20 callsubr
          -858 vlineto
          -15 4 -4 15 vhcurveto
          145 hlineto
          -84 callsubr
          endchar
        </CharString>
        <CharString name="bracketright">
          -253 -150 82 728 85 hstem
          115 96 vstem
          28 -131 rmoveto
          -15 4 -4 15 vhcurveto
          145 hlineto
          -84 callsubr
          858 -94 callgsubr
          -145 hlineto
          -20 callsubr
          -51 0 callgsubr
          68 5 rlineto
          -733 vlineto
          -68 5 rlineto
          -15 1 -4 -4 -15 vvcurveto
          endchar
        </CharString>
        <CharString name="breve">
          579 81 hstem
          85 329 vstem
          251 660 rmoveto
          -59 -21 12 35 -13 hvcurveto
          16 -6 -4 3 -16 hhcurveto
          -28 hlineto
          -20 callsubr
          -76 2 56 -52 105 hhcurveto
          99 61 51 77 6 hvcurveto
          15 1 -4 4 -15 hhcurveto
          -27 hlineto
          -16 -5 -3 -16 -5 hvcurveto
          -34 -11 -31 -13 -50 hhcurveto
          endchar
        </CharString>
        <CharString name="breve.cap">
          735 76 hstem
          90 329 vstem
          256 811 rmoveto
          -59 -25 14 28 -7 hvcurveto
          16 -4 -4 3 -16 hhcurveto
          -32 hlineto
          -20 callsubr
          -74 2 56 -44 105 hhcurveto
          99 61 43 75 6 hvcurveto
          15 1 -4 4 -15 hhcurveto
          -31 hlineto
          -16 -5 -3 -16 -5 hvcurveto
          -32 -10 -28 -10 -50 hhcurveto
          endchar
        </CharString>
        <CharString name="brokenbar">
          30 callgsubr
          214 rmoveto
          -23 callgsubr
          -39 hlineto
          -20 callsubr
          -296 vlineto
          -15 4 -4 15 vhcurveto
          39 hlineto
          -84 callsubr
          -58 827 rmoveto
          -20 callsubr
          -264 vlineto
          -15 4 -4 15 vhcurveto
          39 hlineto
          -84 callsubr
          264 -94 callgsubr
          endchar
        </CharString>
        <CharString name="bullet">
          -229 248 187 hstem
          80 201 vstem
          180 248 rmoveto
          66 35 43 51 54 -39 39 -64 -59 -39 -43 -51 -52 36 -41 64 hvcurveto
          endchar
        </CharString>
        <CharString name="c">
          -122 -12 84 350 84 hstem
          35 114 205 94 vstem
          36 callsubr
          61 25 -35 -53 3 vhcurveto
          -6 callgsubr
          -151 68 -106 169 74 52 20 17 28 hvcurveto
          -16 callgsubr
        </CharString>
        <CharString name="cacute">
          -122 75 0 99 194 endchar
        </CharString>
        <CharString name="caron">
          580 161 hstem
          104 296 vstem
          331 741 -32 callgsubr
          9 6 -3 -53 callsubr
          endchar
        </CharString>
        <CharString name="caron.alt">
          526 220 hstem
          201 100 vstem
          201 541 rmoveto
          -103 callsubr
          35 hlineto
          10 6 4 11 2 hvcurveto
          32 190 rlineto
          11 1 -4 -53 callsubr
          -72 hlineto
          -10 -5 -4 -11 hvcurveto
          endchar
        </CharString>
        <CharString name="caron.cap">
          732 131 hstem
          103 294 vstem
          333 863 -96 callgsubr
          -28 callsubr
        </CharString>
        <CharString name="ccaron">
          -122 22 0 99 207 endchar
        </CharString>
        <CharString name="ccedilla">
          -122 -11 83 350 84 hstemhm
          35 114 65 120 20 94 hintmask 00000000
          hintmask 11110000
          36 callsubr
          vhcurveto
          hintmask 11111000
          61 25 -35 -53 3 hvcurveto
          -6 callgsubr
          -144 62 -103 153 -9 hvcurveto
          hintmask 11110000
          -33 -48 -94 callsubr
          -16 14 13 21 63 3 44 17 26 16 rlinecurve
          -16 callgsubr
        </CharString>
        <CharString name="ccircumflex">
          -122 23 0 99 195 endchar
        </CharString>
        <CharString name="cdotaccent">
          -122 23 0 99 199 endchar
        </CharString>
        <CharString name="cedilla">
          -32 35 hstem
          194 120 vstem
          240 3 rmoveto
          -43 -62 -94 callsubr
          -16 14 22 35 rlineto
          endchar
        </CharString>
        <CharString name="cedilla.cap">
          -32 35 hstem
          194 120 vstem
          240 3 rmoveto
          -43 -62 -94 callsubr
          -16 14 22 35 rlineto
          endchar
        </CharString>
        <CharString name="cent">
          -122 34 84 391 -20 hstem
          64 102 43 41 32 42 vstem
          224 -62 rmoveto
          -73 callsubr
          3 hvcurveto
          10 77 rlineto
          21 hlineto
          48 46 11 22 43 hvcurveto
          13 7 2 5 -6 14 -12 35 rcurveline
          -5 14 -5 2 -14 -6 rrcurveto
          -12 -29 -33 -8 -29 hhcurveto
          -10 -9 0 2 -9 hvcurveto
          41 308 37 -11 10 -33 3 -35 rlinecurve
          -15 2 3 -4 16 hhcurveto
          44 hlineto
          -73 callsubr
          -1 hvcurveto
          82 -41 61 -81 15 vhcurveto
          9 70 rlineto
          15 2 3 callgsubr
          -4 hlineto
          -15 -4 -4 -15 -3 hvcurveto
          -9 -68 rlineto
          -147 -1 -67 -108 -127 vvcurveto
          -121 47 -87 104 -24 vhcurveto
          -11 -84 rlineto
          -15 -2 3 18 callgsubr
          47 493 rmoveto
          -40 -300 rlineto
          -42 28 -19 55 63 vvcurveto
          90 33 59 68 5 vhcurveto
          endchar
        </CharString>
        <CharString name="circumflex">
          580 161 hstem
          104 296 vstem
          173 580 -60 callsubr
          -9 -6 3 -73 callgsubr
          endchar
        </CharString>
        <CharString name="circumflex.cap">
          732 131 hstem
          103 294 vstem
          167 732 -104 callsubr
          -47 callsubr
        </CharString>
        <CharString name="colon">
          -311 0 397 46 46 endchar
        </CharString>
        <CharString name="comma">
          -298 -157 282 hstem
          67 148 vstem
          -27 callgsubr
          endchar
        </CharString>
        <CharString name="commaaccent">
          -277 207 hstem
          194 117 vstem
          275 -212 -102 callgsubr
        </CharString>
        <CharString name="commaaccent.cap">
          -277 207 hstem
          194 117 vstem
          275 -212 -102 callgsubr
        </CharString>
        <CharString name="copyright">
          290 -12 34 125 64 269 64 114 35 hstem
          78 43 145 87 406 43 vstem
          435 693 rmoveto
          -209 -148 -151 -203 -203 135 -148 222 218 149 148 209 197 -151 151 -216 hvcurveto
          -1 -671 rmoveto
          -181 -132 128 189 189 122 130 191 187 138 -130 -189 -196 -135 -121 -190 hvcurveto
          15 458 rmoveto
          42 21 -16 -37 5 hvcurveto
          -15 2 -33 callgsubr
          23 hlineto
          -84 callsubr
          67 -2 -40 50 -88 hhcurveto
          -131 -53 -94 -107 -105 44 -91 127 95 45 50 67 2 hvcurveto
          15 1 -4 4 -15 hhcurveto
          -23 hlineto
          -15 -4 -4 -15 -2 hvcurveto
          -41 -6 -25 -12 -43 hhcurveto
          -70 -20 54 81 81 26 53 70 hvcurveto
          endchar
        </CharString>
        <CharString name="d">
          -7 -12 87 -75 79 339 88 157 83 8 callgsubr
          235 -29 callgsubr
          hintmask 01111100
          -30 callgsubr
          hintmask 10111100
          -1 callgsubr
          hintmask 01111100
          -40 callgsubr
          hintmask 10111100
          10 callgsubr
          endchar
        </CharString>
        <CharString name="dagger">
          -99 679 -20 hstem
          202 85 vstem
          212 -53 rmoveto
          -15 1 -33 callgsubr
          27 hlineto
          -73 callsubr
          1 hvcurveto
          17 464 -46 callgsubr
        </CharString>
        <CharString name="daggerdbl">
          -99 679 -20 hstem
          52 387 vstem
          209 303 rmoveto
          -16 -107 -122 -16 rlineto
          -15 -2 -4 -4 -15 vvcurveto
          -17 vlineto
          -15 4 -4 15 -2 vhcurveto
          123 -15 23 -159 rlineto
          -16 2 5 -3 15 hhcurveto
          16 hlineto
          -73 callsubr
          2 hvcurveto
          21 158 123 16 rlineto
          15 2 -54 callsubr
          vvcurveto
          17 vlineto
          15 -4 4 -15 2 vhcurveto
          -124 16 -14 107 14 108 -46 callgsubr
        </CharString>
        <CharString name="dcaron">
          19 -12 87 -75 79 339 88 20 220 -83 83 8 callgsubr
          235 112 66 100 hintmask 00000000
          hintmask 01101110
          -30 callgsubr
          hintmask 10101110
          -1 callgsubr
          hintmask 01101110
          -40 callgsubr
          hintmask 10101110
          10 callgsubr
          hintmask 00010001
          178 367 rmoveto
          11 5 4 10 vhcurveto
          72 hlineto
          10 4 -4 -11 -1 hvcurveto
          -32 -190 rlineto
          -11 -2 -6 -4 -10 hhcurveto
          -35 hlineto
          -10 -5 5 10 hvcurveto
          endchar
        </CharString>
        <CharString name="dcroat">
          -7 -12 87 -75 79 329 88 62 53 52 83 8 callgsubr
          235 -29 callgsubr
          hintmask 01111110
          495 79 rmoveto
          479 43 21 callgsubr
          -43 120 hlineto
          -49 callsubr
          -150 hlineto
          -11 -4 -4 -11 hvcurveto
          -53 vlineto
          -103 callsubr
          53 -52 -143 hlineto
          -20 callsubr
          -15 vlineto
          -15 4 -4 15 vhcurveto
          143 -118 hlineto
          27 -19 -45 29 -64 hhcurveto
          -121 -99 -70 -193 hvcurveto
          hintmask 10111110
          -1 callgsubr
          hintmask 01111110
          -40 callgsubr
          hintmask 10111110
          -72 -60 -41 -57 -105 -13 86 86 124 54 37 70 74 37 -54 0 vhcurveto
          endchar
        </CharString>
        <CharString name="degree">
          -254 435 43 190 43 hstem
          30 43 190 43 vstem
          168 668 rmoveto
          53 42 -42 -53 -53 -42 -42 -53 -53 -42 42 53 53 42 42 53 hvcurveto
          -233 vmoveto
          76 62 62 76 76 -62 62 -76 -76 -62 -62 -76 -76 62 -62 76 hvcurveto
          endchar
        </CharString>
        <CharString name="dieresis">
          595 122 hstem
          64 -15 callgsubr
          vstem
          329 595 -101 callsubr
        </CharString>
        <CharString name="dieresis.cap">
          738 122 hstem
          86 -15 callgsubr
          vstem
          351 738 -101 callsubr
        </CharString>
        <CharString name="divide">
          -60 82 138 45 65 58 138 hstemhm
          35 460 -306 150 hintmask 10001000
          264 82 rmoveto
          -70 callsubr
          hintmask 00101000
          306 vmoveto
          -70 callsubr
          hintmask 01010000
          -229 -104 rmoveto
          -41 callsubr
        </CharString>
        <CharString name="dollar">
          -159 4 -21 23 -21 382 163 hstemhm
          31 83 -77 104 7 42 40 42 18 108 -105 81 -3 callsubr
          hintmask 1011010100000000
          165 -98 rmoveto
          -73 callsubr
          3 hvcurveto
          8 62 rlineto
          127 1 76 64 97 vvcurveto
          111 -91 31 -67 26 vhcurveto
          hintmask 0111010010000000
          18 139 15 -3 12 -5 11 -5 rlinecurve
          -5 -53 rlineto
          12 callgsubr
          48 hlineto
          -84 callsubr
          106 vlineto
          15 -3 4 -15 4 vhcurveto
          hintmask 0110101010000000
          -28 7 -28 6 -32 2 6 47 rcurveline
          15 2 3 callgsubr
          -4 hlineto
          -15 -4 -4 -15 -3 hvcurveto
          -6 -46 rlineto
          -117 -4 -73 -69 -93 vvcurveto
          -100 77 -28 69 -25 vhcurveto
          hintmask 0101010010000000
          -20 -152 -21 3 -19 6 -10 8 rlinecurve
          3 54 rlineto
          15 1 -4 4 -15 hhcurveto
          -48 hlineto
          -20 callsubr
          -106 vlineto
          -15 3 -4 15 -4 vhcurveto
          29 -8 37 -7 38 -2 rrcurveto
          hintmask 1001010010000000
          -9 -64 rlineto
          hintmask 1011010100000000
          -15 -1 3 18 callgsubr
          44 155 rmoveto
          18 140 rlineto
          43 -19 24 -18 -38 vvcurveto
          -47 -36 -17 -49 -1 vhcurveto
          hintmask 0100100010000000
          11 397 rmoveto
          -16 -129 rlineto
          -38 18 -21 17 34 vvcurveto
          39 28 18 47 3 vhcurveto
          endchar
        </CharString>
        <CharString name="dotaccent">
          564 143 hstem
          175 143 vstem
          175 635 -86 callgsubr
          endchar
        </CharString>
        <CharString name="dotaccent.cap">
          730 143 hstem
          175 143 vstem
          175 801 -86 callgsubr
          endchar
        </CharString>
        <CharString name="dotlessi">
          -296 0 495 hstem
          16 268 vstem
          206 480 rmoveto
          -63 callgsubr
          -151 -82 callgsubr
          -52 vlineto
          -11 19 callgsubr
          vhcurveto
          54 -334 -63 -82 callgsubr
          -49 vlineto
          -11 19 callgsubr
          vhcurveto
          238 hlineto
          -85 callgsubr
          49 -48 callsubr
          -63 hlineto
          endchar
        </CharString>
        <CharString name="dotlessj">
          23 callgsubr
          hstem
          94 112 vstem
          206 480 rmoveto
          -106 callsubr
          -72 callgsubr
          -444 hlineto
          -81 -28 -36 -56 -32 -27 8 4 -11 vhcurveto
          5 callgsubr
          -2 -4 -10 -20 -55 rcurveline
          -4 -10 2 -5 10 -5 rrcurveto
          -10 21 49 -11 50 hhcurveto
          138 39 89 110 hvcurveto
          endchar
        </CharString>
        <CharString name="e">
          -5 callsubr
          hstem
          35 111 208 105 vstem
          -90 callgsubr
          endchar
        </CharString>
        <CharString name="eacute">
          -5 callsubr
          74 152 hstemhm
          35 111 86 154 -32 105 hintmask 11101010
          -90 callgsubr
          -120 301 -76 callgsubr
          hintmask 00010100
          -31 callsubr
          endchar
        </CharString>
        <CharString name="ebreve">
          -101 17 0 101 198 endchar
        </CharString>
        <CharString name="ecaron">
          -101 8 0 101 207 endchar
        </CharString>
        <CharString name="ecircumflex">
          -101 9 0 101 195 endchar
        </CharString>
        <CharString name="edieresis">
          -5 callsubr
          89 122 hstemhm
          35 111 -44 -15 callgsubr
          -75 105 hintmask 11101001
          -90 callgsubr
          hintmask 00010110
          13 298 -101 callsubr
        </CharString>
        <CharString name="edotaccent">
          -101 9 0 101 199 endchar
        </CharString>
        <CharString name="egrave">
          -101 -29 0 101 193 endchar
        </CharString>
        <CharString name="eight">
          -56 -12 79 511 78 hstemhm
          38 106 -76 109 174 104 -76 111 hintmask 00000000
          hintmask 11100100
          38 153 rmoveto
          -94 67 -71 150 151 84 79 110 88 -39 43 -106 46 vhcurveto
          hintmask 11011000
          55 37 55 42 81 vvcurveto
          77 -62 65 -122 -105 -98 -56 -114 -79 42 -38 58 -34 vhcurveto
          hintmask 11100100
          -60 -32 -70 -51 -99 vvcurveto
          341 10 rmoveto
          -69 -49 -27 -71 -84 -31 39 54 66 55 41 47 27 vhcurveto
          52 -23 81 -33 -75 vvcurveto
          hintmask 11011000
          -28 343 rmoveto
          -54 -43 -32 -43 -30 vhcurveto
          -48 25 -40 29 56 vvcurveto
          53 40 25 54 55 25 -26 -46 vhcurveto
          endchar
        </CharString>
        <CharString name="ellipsis">
          183 -19 138 hstemhm
          51 150 97 150 105 150 hintmask 11000000
          126 -19 rmoveto
          -70 callsubr
          hintmask 10100000
          247 hmoveto
          -70 callsubr
          hintmask 10010000
          255 hmoveto
          -70 callsubr
          endchar
        </CharString>
        <CharString name="emacron">
          -5 callsubr
          106 81 hstemhm
          35 111 -25 298 -65 105 hintmask 11101010
          -90 callgsubr
          hintmask 00010100
          46 315 -98 callsubr
        </CharString>
        <CharString name="emdash">
          409 248 77 hstem
          0 999 vstem
          980 248 -26 callgsubr
          39 -94 callgsubr
          -961 hlineto
          -20 callsubr
          -39 vlineto
          -15 4 -4 15 vhcurveto
          endchar
        </CharString>
        <CharString name="endash">
          248 77 hstem
          0 500 vstem
          481 248 -26 callgsubr
          39 -94 callgsubr
          -462 hlineto
          -20 callsubr
          -39 vlineto
          -15 4 -4 15 vhcurveto
          endchar
        </CharString>
        <CharString name="eng">
          14 -212 92 120 29 callgsubr
          hstemhm
          94 112 198 -29 callgsubr
          hintmask 11011100
          320 -120 rmoveto
          -32 -27 8 4 -11 hvcurveto
          5 callgsubr
          -2 -4 -10 -20 -55 rcurveline
          -4 -10 2 -5 10 -5 rrcurveto
          -10 21 49 -11 50 hhcurveto
          138 39 89 110 hvcurveto
          349 vlineto
          hintmask 11101100
          113 -54 57 -101 -59 -60 -22 -62 -41 vhcurveto
          hintmask 11011100
          -32 callsubr
          -53 vlineto
          -66 callgsubr
          hintmask 11101100
          230 vlineto
          -30 callsubr
          -289 vlineto
          hintmask 11011100
          -81 -28 -36 -56 vhcurveto
          endchar
        </CharString>
        <CharString name="eogonek">
          -101 -233 69 152 84 151 74 125 84 hstem
          35 111 74 79 55 105 vstem
          220 -95 callsubr
          33 21 51 60 40 hvcurveto
          19 13 16 7 15 8 9 5 4 19 callgsubr
          -19 46 rcurveline
          -4 10 -6 3 -10 -5 rrcurveto
          -16 -36 -32 -10 -45 hhcurveto
          -108 -27 66 85 -6 hvcurveto
          294 hlineto
          15 2 4 12 1 hvcurveto
          1 12 0 13 9 vvcurveto
          108 -42 125 -153 -157 -72 -126 -132 -152 64 -108 166 vhcurveto
          10 10 1 10 hhcurveto
          -38 -37 -37 -46 -53 vvcurveto
          -74 444 20 callgsubr
        </CharString>
        <CharString name="equal">
          -60 141 65 114 65 hstemhm
          35 460 hintmask 01100000
          35 339 rmoveto
          -40 callsubr
          -422 hlineto
          -20 callsubr
          hintmask 10100000
          -206 vmoveto
          -41 callsubr
        </CharString>
        <CharString name="eth">
          -62 -12 82 274 87 243 73 -49 -20 hstemhm
          35 106 242 108 hintmask 00000000
          hintmask 11101100
          357 568 rmoveto
          18 -53 11 -76 1 -83 rrcurveto
          42 -30 -53 33 -71 hhcurveto
          -130 -68 -100 -115 -147 81 -81 141 164 70 106 204 hvcurveto
          hintmask 11011100
          156 -17 80 -34 73 vhcurveto
          86 40 13 6 2 5 -5 12 rlinecurve
          -7 16 -6 14 -4 1 -14 -6 rlinecurve
          hintmask 11101100
          -89 -42 rlineto
          67 -45 -65 27 -78 hhcurveto
          -108 -64 -43 -106 -3 hvcurveto
          -17 callsubr
          46 hlineto
          -73 callsubr
          2 hvcurveto
          53 5 27 23 54 hhcurveto
          46 36 -19 -39 29 hvcurveto
          -91 -43 -14 -6 -2 -5 6 -14 rlinecurve
          6 -14 6 -14 4 -1 14 6 rlinecurve
          119 -266 rmoveto
          -78 2 -7 -111 -118 hhcurveto
          -86 -33 65 82 76 35 51 79 56 52 -44 -41 20 hvcurveto
          endchar
        </CharString>
        <CharString name="exclam">
          -337 -17 124 571 -20 35 callsubr
          hintmask 11010000
          138 156 rmoveto
          -73 callsubr
          1 hvcurveto
          22 333 rlineto
          151 -94 callgsubr
          -70 hlineto
          -20 callsubr
          -149 vlineto
          22 -335 rlineto
          -15 1 -33 callgsubr
          hintmask 11100000
          12 -173 6 callgsubr
        </CharString>
        <CharString name="exclamdown">
          -337 -184 20 551 124 35 callsubr
          114 338 rmoveto
          -15 -4 -4 -15 -1 hvcurveto
          -22 -335 rlineto
          -149 vlineto
          -15 4 -4 15 vhcurveto
          70 hlineto
          -84 callsubr
          151 vlineto
          -22 333 rlineto
          hintmask 11010000
          15 -1 -4 4 -15 hhcurveto
          -12 173 rmoveto
          -43 -25 -27 -35 -34 27 -28 40 41 27 25 36 hvcurveto
          hintmask 11100000
          34 -23 29 -44 vhcurveto
          endchar
        </CharString>
        <CharString name="f">
          -232 -2 callsubr
          vstem
          35 callgsubr
          121 hlineto
          -92 callgsubr
          -121 73 hlineto
          -79 callgsubr
          -97 -57 callsubr
          280 -91 callsubr
          -106 hlineto
          endchar
        </CharString>
        <CharString name="ff">
          94 -11 callsubr
          214 -29 callgsubr
          hintmask 11011100
          35 callgsubr
          214 -335 -52 hlineto
          -100 callgsubr
          -91 callgsubr
          vhcurveto
          270 -91 callsubr
          -106 335 121 hlineto
          -92 callgsubr
          -121 73 hlineto
          -79 callgsubr
          -97 -214 63 vlineto
          hintmask 11101100
          -79 callgsubr
          -87 -57 callsubr
          257 -91 callsubr
          -83 hlineto
          endchar
        </CharString>
        <CharString name="ffi">
          348 -11 callsubr
          214 112 203 -29 callgsubr
          hintmask 11011110
          35 callgsubr
          214 -335 -62 hlineto
          -100 callgsubr
          -91 callgsubr
          vhcurveto
          250 -91 callsubr
          -76 335 203 -335 -53 -82 callgsubr
          -49 vlineto
          -11 19 callgsubr
          vhcurveto
          228 hlineto
          -85 callgsubr
          49 -48 callsubr
          -63 401 hlineto
          -63 callgsubr
          -300 73 hlineto
          75 22 33 64 48 42 -17 -11 26 vhcurveto
          9 -4 5 3 3 8 17 50 rcurveline
          3 10 -2 5 -9 4 rrcurveto
          15 -31 -63 20 -66 hhcurveto
          -136 -44 -85 -82 hvcurveto
          -97 -214 63 vlineto
          hintmask 11101110
          -79 callgsubr
          -87 -57 callsubr
          257 -91 callsubr
          -83 hlineto
          endchar
        </CharString>
        <CharString name="ffl">
          360 -11 callsubr
          216 112 213 -29 callgsubr
          hintmask 11011110
          35 callgsubr
          216 -60 callgsubr
          650 hlineto
          -2 callgsubr
          -216 63 vlineto
          hintmask 11101110
          -79 callgsubr
          -87 -57 callsubr
          257 -91 callsubr
          -83 hlineto
          endchar
        </CharString>
        <CharString name="fi">
          22 -2 callsubr
          203 112 vstem
          35 callgsubr
          203 -335 -53 -82 callgsubr
          -49 vlineto
          -11 19 callgsubr
          vhcurveto
          228 hlineto
          -85 callgsubr
          49 -48 callsubr
          -63 401 hlineto
          -63 callgsubr
          -300 73 hlineto
          75 22 33 64 48 42 -17 -11 26 vhcurveto
          9 -4 5 3 3 8 17 50 rcurveline
          3 10 -2 5 -9 4 rrcurveto
          15 -31 -63 20 -66 hhcurveto
          -136 -44 -85 -82 hvcurveto
          -97 -57 callsubr
          250 -91 callsubr
          -76 hlineto
          endchar
        </CharString>
        <CharString name="five">
          -115 -141 83 265 86 122 96 hstem
          324 112 vstem
          403 415 -26 callgsubr
          58 -94 callgsubr
          -286 hlineto
          -15 -4 -4 -15 -2 hvcurveto
          -33 -292 -2 -16 19 callsubr
          -6 rlinecurve
          11 -5 15 -6 6 1 13 9 rlinecurve
          21 28 33 13 35 hhcurveto
          68 37 -43 -85 -65 -16 -72 -100 -56 -37 23 64 -6 hvcurveto
          15 -2 -4 4 -15 hhcurveto
          -59 hlineto
          -15 -3 -4 -15 hvcurveto
          -109 6 58 -61 135 hhcurveto
          141 85 85 149 133 -79 67 -101 -41 -27 -8 -19 -33 hvcurveto
          21 149 rlineto
          endchar
        </CharString>
        <CharString name="fl">
          32 -2 callsubr
          213 112 vstem
          534 729 rmoveto
          -2 callgsubr
          -62 vlineto
          -10 -5 -4 -11 hvcurveto
          -51 vlineto
          -10 5 -5 10 vhcurveto
          62 -60 callgsubr
          hlineto
          endchar
        </CharString>
        <CharString name="florin">
          -239 83 345 80 180 82 hstem
          -76 558 vstem
          111 269 rmoveto
          12 callsubr
          -7 -41 -2 -15 3 -4 15 1 rlinecurve
          57 hlineto
          -44 -241 rlineto
          -70 -13 -9 -36 -61 hhcurveto
          -19 -22 6 7 -15 hvcurveto
          -14 6 -5 -2 -7 -14 -18 -39 rcurveline
          -7 -14 2 -5 13 -6 rrcurveto
          -13 27 40 -9 38 hhcurveto
          138 25 83 81 15 hvcurveto
          49 264 rlineto
          117 hlineto
          15 -1 5 4 2 15 7 43 rcurveline
          15 2 3 callgsubr
          -117 hlineto
          13 72 rlineto
          72 13 10 36 61 hhcurveto
          17 22 -6 -7 16 hvcurveto
          14 -6 5 2 7 14 19 38 rcurveline
          7 14 -2 5 -13 6 rrcurveto
          13 -27 -40 9 -38 hhcurveto
          -140 -24 -85 -82 -15 hvcurveto
          -17 -95 rlineto
          endchar
        </CharString>
        <CharString name="four">
          -66 15 84 412 -20 hstem
          294 110 vstem
          486 15 -26 callgsubr
          46 -94 callgsubr
          -82 393 hlineto
          -23 callgsubr
          -79 hlineto
          -16 -5 -3 -13 -8 hvcurveto
          -237 -382 rlineto
          -8 -12 -2 -9 -14 vvcurveto
          -44 vlineto
          -15 4 -4 15 vhcurveto
          244 -129 hlineto
          -15 4 -4 15 vhcurveto
          72 hlineto
          -84 callsubr
          129 vlineto
          -109 379 rmoveto
          -295 -182 vlineto
          endchar
        </CharString>
        <CharString name="foursuperior">
          -241 461 58 230 -20 hstem
          189 80 vstem
          254 388 rmoveto
          -75 callgsubr
        </CharString>
        <CharString name="fraction">
          -467 4 -21 696 -20 hstem
          -135 403 vstem
          265 662 -61 callsubr
          endchar
        </CharString>
        <CharString name="g">
          26 callgsubr
          8 callgsubr
          230 -29 callgsubr
          hintmask 11101100
          -15 callsubr
          hintmask 11011100
          -61 callgsubr
          endchar
        </CharString>
        <CharString name="gbreve">
          -20 40 0 103 198 endchar
        </CharString>
        <CharString name="gcircumflex">
          -20 45 0 103 195 endchar
        </CharString>
        <CharString name="gcommaaccent">
          26 callgsubr
          74 221 8 callgsubr
          70 117 43 -29 callgsubr
          hintmask 11100101
          -15 callsubr
          hintmask 11010101
          -61 callgsubr
          hintmask 00001010
          -124 359 -25 callgsubr
        </CharString>
        <CharString name="gdotaccent">
          -20 35 0 103 199 endchar
        </CharString>
        <CharString name="germandbls">
          46 -12 69 -57 79 602 79 hstemhm
          94 112 91 102 23 103 -10 101 hintmask 00000000
          hintmask 10111010
          515 120 rmoveto
          -46 -31 -17 -48 -29 -39 11 11 -26 vhcurveto
          -14 5 -4 -2 -4 -14 -10 -38 rcurveline
          -4 -15 2 -4 15 -5 rrcurveto
          -11 33 40 -7 41 hhcurveto
          109 70 56 92 hvcurveto
          163 -217 -19 101 74 126 60 103 vvcurveto
          hintmask 01111100
          103 -92 39 -115 -180 -44 -95 -109 vhcurveto
          -477 -58 vlineto
          -57 callgsubr
          211 -44 callgsubr
          -41 484 hlineto
          72 27 46 83 77 29 -30 -44 vhcurveto
          -91 -125 -50 -119 -151 218 29 -105 vvcurveto
          endchar
        </CharString>
        <CharString name="grave">
          580 152 hstem
          192 155 vstem
          302 714 rmoveto
          15 -5 -4 3 -16 hhcurveto
          -72 hlineto
          -14 -3 -4 -13 7 hvcurveto
          65 -118 rlineto
          -14 7 5 -3 16 hhcurveto
          44 hlineto
          15 3 4 14 -5 hvcurveto
          endchar
        </CharString>
        <CharString name="grave.cap">
          732 126 hstem
          194 153 vstem
          303 841 -86 callsubr
        </CharString>
        <CharString name="greater">
          -60 45 435 hstem
          53 424 vstem
          391 268 rmoveto
          -324 -141 rlineto
          -10 -4 -4 -7 -10 vvcurveto
          -50 vlineto
          -10 4 -3 10 4 vhcurveto
          396 179 rlineto
          10 4 4 7 10 vvcurveto
          38 vlineto
          10 -4 7 -10 4 vhcurveto
          -396 172 rlineto
          -10 4 -4 -3 -10 vvcurveto
          -48 vlineto
          -10 4 -7 10 -4 vhcurveto
          endchar
        </CharString>
        <CharString name="greaterequal">
          -60 0 530 hstem
          53 424 vstem
          53 111 rmoveto
          -14 4 -3 13 5 vhcurveto
          390 170 rlineto
          14 6 3 4 16 vvcurveto
          30 vlineto
          16 -3 4 -14 7 vhcurveto
          -390 175 rlineto
          -13 6 -4 -3 -14 vvcurveto
          -42 vlineto
          -16 19 callsubr
          -7 vhcurveto
          321 -139 -321 -131 rlineto
          -14 -6 -3 -4 -16 vvcurveto
          424 -151 rmoveto
          -424 65 424 hlineto
          endchar
        </CharString>
        <CharString name="guillemotleft">
          -97 84 408 hstemhm
          69 193 -27 193 hintmask 11000000
          190 492 rmoveto
          -58 callgsubr
          hintmask 10100000
          108 hmoveto
          -58 callgsubr
          endchar
        </CharString>
        <CharString name="guillemotright">
          -97 84 408 hstemhm
          66 192 -26 192 hintmask 11000000
          137 84 rmoveto
          -59 callsubr
          hintmask 10100000
          224 hmoveto
          -59 callsubr
          endchar
        </CharString>
        <CharString name="guilsinglleft">
          -263 84 408 hstem
          69 193 vstem
          190 492 rmoveto
          -58 callgsubr
          endchar
        </CharString>
        <CharString name="guilsinglright">
          -263 84 408 hstem
          66 192 vstem
          137 84 rmoveto
          -59 callsubr
          endchar
        </CharString>
        <CharString name="h">
          9 0 79 328 99 158 82 hstem
          89 112 198 112 vstem
          20 679 rmoveto
          -11 19 callgsubr
          vhcurveto
          54 -585 -54 -17 callgsubr
          11 4 -83 callgsubr
          -61 230 hlineto
          -8 callsubr
          219 -105 callgsubr
          -59 257 hlineto
          113 -54 57 -101 -59 -56 -24 -59 -40 vhcurveto
          308 -48 callsubr
          -151 hlineto
          -11 -4 -52 callgsubr
          endchar
        </CharString>
        <CharString name="hbar">
          9 0 79 318 99 62 53 53 82 hstem
          89 112 198 112 vstem
          20 679 rmoveto
          -11 19 callgsubr
          vhcurveto
          54 -53 -50 hlineto
          -20 callsubr
          -15 vlineto
          -15 4 -4 15 vhcurveto
          50 -479 -54 -17 callgsubr
          11 4 -83 callgsubr
          -61 220 hlineto
          -30 callsubr
          -197 -11 callgsubr
          219 -105 callgsubr
          -59 247 hlineto
          113 -54 57 -101 -59 -56 -24 -59 -40 vhcurveto
          145 146 21 callgsubr
          -146 120 hlineto
          -49 callsubr
          -151 hlineto
          -11 -4 -52 callgsubr
          endchar
        </CharString>
        <CharString name="hcircumflex">
          9 0 79 328 99 158 82 26 18 callsubr
          -31 294 -174 112 198 112 hintmask 11100110
          20 679 rmoveto
          -11 19 callgsubr
          vhcurveto
          54 -585 -54 -17 callgsubr
          11 4 -83 callgsubr
          -61 230 hlineto
          -8 callsubr
          219 -105 callgsubr
          -59 257 hlineto
          113 -54 57 -101 -59 -56 -24 -59 -40 vhcurveto
          308 -48 callsubr
          -151 hlineto
          -11 -4 -52 callgsubr
          13 41 -104 callsubr
          hintmask 00011000
          -47 callsubr
        </CharString>
        <CharString name="hungarumlaut">
          580 152 hstem
          85 282 vstem
          224 594 -19 callsubr
          -183 -124 -19 callsubr
          endchar
        </CharString>
        <CharString name="hungarumlaut.cap">
          732 126 hstem
          120 279 vstem
          256 746 -70 callgsubr
          -28 callgsubr
        </CharString>
        <CharString name="hyphen">
          -308 218 97 34 callgsubr
          218 -26 callgsubr
          59 -94 callgsubr
          -184 hlineto
          -20 callsubr
          -59 vlineto
          -15 4 -4 15 vhcurveto
          endchar
        </CharString>
        <CharString name="hyphen.case">
          -308 278 77 34 callgsubr
          278 -26 callgsubr
          39 -94 callgsubr
          -184 hlineto
          -20 callsubr
          -39 vlineto
          -15 4 -4 15 vhcurveto
          endchar
        </CharString>
        <CharString name="i">
          -59 callgsubr
        </CharString>
        <CharString name="iacute">
          -296 0 495 85 152 hstemhm
          16 268 -185 154 hintmask 10100000
          206 480 rmoveto
          -63 callgsubr
          -151 -82 callgsubr
          -52 vlineto
          -11 19 callgsubr
          vhcurveto
          54 -334 -63 -82 callgsubr
          -49 vlineto
          -11 19 callgsubr
          vhcurveto
          238 hlineto
          -85 callgsubr
          49 -48 callsubr
          -63 hlineto
          -105 519 -76 callgsubr
          hintmask 01010000
          -31 callsubr
          endchar
        </CharString>
        <CharString name="ibreve">
          -296 -103 0 245 198 endchar
        </CharString>
        <CharString name="icircumflex">
          -296 -103 0 245 195 endchar
        </CharString>
        <CharString name="idieresis">
          -296 0 495 100 122 hstemhm
          -39 124 -69 268 -120 124 hintmask 10010000
          -87 callsubr
          hintmask 01101000
          20 115 -101 callsubr
        </CharString>
        <CharString name="idotaccent">
          -59 callgsubr
        </CharString>
        <CharString name="igrave">
          -296 -155 0 245 193 endchar
        </CharString>
        <CharString name="ij">
          -7 -240 92 561 82 69 143 hstemhm
          66 143 179 112 hintmask 00110000
          -87 callsubr
          -140 155 -86 callgsubr
          hintmask 00000000
          434 -155 rmoveto
          -106 callsubr
          -72 callgsubr
          -444 hlineto
          -81 -28 -36 -56 -32 -27 8 4 -11 vhcurveto
          5 callgsubr
          -2 -4 -10 -20 -55 rcurveline
          -4 -10 2 -5 10 -5 rrcurveto
          -10 21 49 -11 50 hhcurveto
          138 39 89 110 hvcurveto
          hintmask 11101000
          -140 676 -86 callgsubr
          endchar
        </CharString>
        <CharString name="imacron">
          -296 0 495 117 81 hstemhm
          -2 298 -280 268 hintmask 10010000
          -87 callsubr
          hintmask 01100000
          71 132 -98 callsubr
        </CharString>
        <CharString name="infinity">
          149 264 162 hstem
          35 667 vstem
          702 353 rmoveto
          81 -55 74 -99 -78 -46 -39 -61 -51 vhcurveto
          62 -46 -46 37 -78 hhcurveto
          -99 -69 -72 -93 -97 69 -61 96 69 55 40 52 44 hvcurveto
          32 -41 49 -34 56 -11 19 -3 19 -1 19 2 rrcurveto
          76 7 64 59 99 vvcurveto
          -88 -6 rmoveto
          -42 -24 -41 -47 -43 -42 33 45 -35 vhcurveto
          47 33 37 37 44 hhcurveto
          53 24 -32 -47 hvcurveto
          -295 -7 rmoveto
          -56 -41 -35 -22 -37 hhcurveto
          -49 -31 35 46 45 26 38 52 43 31 -27 -59 41 hvcurveto
          endchar
        </CharString>
        <CharString name="integral">
          -200 -216 83 750 83 -17 -20 hstemhm
          125 104 -70 104 hintmask 00000000
          hintmask 10101000
          359 662 rmoveto
          2 9 1 8 -12 4 rrcurveto
          hintmask 11010000
          6 -18 -31 11 -47 hhcurveto
          -79 -50 -43 -84 -30 2 -24 1 -26 hvcurveto
          hintmask 10101000
          29 -519 rlineto
          1 -20 1 -14 -19 vvcurveto
          -40 -19 -14 -33 -21 -15 4 5 -15 vhcurveto
          -12 4 -3 -3 -2 -8 -10 -47 rcurveline
          -2 -9 -1 -8 12 -4 rrcurveto
          -6 18 31 -11 47 hhcurveto
          79 50 43 84 29 -2 22 -1 25 hvcurveto
          hintmask 11010000
          -29 533 rlineto
          -1 12 -1 10 21 vvcurveto
          40 19 14 33 21 15 -4 -5 15 vhcurveto
          hintmask 10101000
          12 -4 3 3 2 8 rrcurveto
          endchar
        </CharString>
        <CharString name="iogonek">
          -296 -164 164 564 143 hstem
          66 143 vstem
          45 -147 rmoveto
          59 45 49 42 39 vhcurveto
          -101 hlineto
          -10 -5 -81 callgsubr
          49 1 callsubr
          63 334 -54 hlineto
          -10 -5 -81 callgsubr
          52 1 callsubr
          151 5 callsubr
          -52 callgsubr
          -401 63 vlineto
          10 5 -68 callsubr
          -10 -5 -5 -10 vhcurveto
          -73 hlineto
          -51 -55 -21 -41 -32 vvcurveto
          -18 3 -18 30 12 12 3 8 15 vhcurveto
          9 4 6 -2 4 -8 10 -20 rcurveline
          6 -11 0 -5 -13 -8 rrcurveto
          -15 -22 -32 -15 -35 hhcurveto
          -55 -29 37 49 hvcurveto
          21 782 -86 callgsubr
          endchar
        </CharString>
        <CharString name="itilde">
          -296 -103 0 245 196 endchar
        </CharString>
        <CharString name="j">
          23 callgsubr
          69 143 hstemhm
          66 143 -115 -29 callgsubr
          hintmask 11101000
          206 480 rmoveto
          -106 callsubr
          -72 callgsubr
          -444 hlineto
          -81 -28 -36 -56 -32 -27 8 4 -11 vhcurveto
          5 callgsubr
          -2 -4 -10 -20 -55 rcurveline
          -4 -10 2 -5 10 -5 rrcurveto
          -10 21 49 -11 50 hhcurveto
          138 39 89 110 hvcurveto
          hintmask 11110000
          -140 676 -86 callgsubr
          endchar
        </CharString>
        <CharString name="jcircumflex">
          23 callgsubr
          85 161 hstemhm
          -17 296 -185 112 hintmask 11001000
          206 480 rmoveto
          -106 callsubr
          -72 callgsubr
          -444 hlineto
          -81 -28 -36 -56 -32 -27 8 4 -11 vhcurveto
          5 callgsubr
          -2 -4 -10 -20 -55 rcurveline
          -4 -10 2 -5 10 -5 rrcurveto
          -10 21 49 -11 50 hhcurveto
          138 39 89 110 hvcurveto
          -154 621 -60 callsubr
          hintmask 00110000
          -9 -6 3 -73 callgsubr
          endchar
        </CharString>
        <CharString name="k">
          -24 0 79 176 77 81 82 170 81 hstem
          94 112 vstem
          206 731 rmoveto
          -106 callsubr
          -151 hlineto
          -11 -4 -52 callgsubr
          -51 vlineto
          -103 callsubr
          54 -586 -74 callsubr
          176 33 hlineto
          150 -242 rlineto
          -9 6 6 -4 11 hhcurveto
          129 -105 callgsubr
          -59 hlineto
          -137 227 110 107 rlineto
          61 hlineto
          -64 callgsubr
          -78 hlineto
          -10 -8 -3 -8 -8 hvcurveto
          -155 -152 rlineto
          -51 hlineto
          endchar
        </CharString>
        <CharString name="kcommaaccent">
          -24 -19 callgsubr
          176 77 81 82 170 81 hstemhm
          94 112 21 117 hintmask 01111100
          206 731 rmoveto
          -106 callsubr
          -151 hlineto
          -11 -4 -52 callgsubr
          -51 vlineto
          -103 callsubr
          54 -586 -74 callsubr
          176 33 hlineto
          150 -242 rlineto
          -9 6 6 -4 11 hhcurveto
          129 -105 callgsubr
          -59 hlineto
          -137 227 110 107 rlineto
          61 hlineto
          -64 callgsubr
          -78 hlineto
          -10 -8 -3 -8 -8 hvcurveto
          -155 -152 rlineto
          -51 hlineto
          hintmask 10000010
          102 -544 -102 callgsubr
        </CharString>
        <CharString name="kgreenlandic">
          -24 0 79 136 77 122 81 hstem
          94 112 vstem
          44 495 rmoveto
          -20 callsubr
          -44 0 callgsubr
          50 -335 -49 hlineto
          -57 callgsubr
          210 -44 callgsubr
          -49 136 46 hlineto
          134 -199 rlineto
          -13 9 6 -3 15 hhcurveto
          131 hlineto
          -84 callsubr
          41 -94 callgsubr
          -64 hlineto
          -135 198 98 136 rlineto
          66 hlineto
          -10 callsubr
          45 -94 callgsubr
          -95 hlineto
          -15 -6 -3 -12 -9 hvcurveto
          -130 -188 rlineto
          -51 184 hlineto
          -23 callgsubr
          endchar
        </CharString>
        <CharString name="l">
          -296 0 79 585 82 hstem
          94 112 vstem
          206 731 rmoveto
          -49 callsubr
          -72 callgsubr
          -585 -63 hlineto
          -100 callgsubr
          -91 callgsubr
          vhcurveto
          238 -105 callgsubr
          -63 hlineto
          endchar
        </CharString>
        <CharString name="lacute">
          -296 0 79 585 82 34 4 callgsubr
          94 112 -105 155 hintmask 11010000
          206 731 rmoveto
          -49 callsubr
          -72 callgsubr
          -585 -63 hlineto
          -100 callgsubr
          -91 callgsubr
          vhcurveto
          238 -105 callgsubr
          -63 hlineto
          -103 715 -99 callsubr
          hintmask 00101000
          -55 callsubr
        </CharString>
        <CharString name="lcaron">
          -274 0 79 447 220 -82 82 hstemhm
          94 112 62 100 hintmask 10110000
          206 731 rmoveto
          -49 callsubr
          -72 callgsubr
          -585 -63 hlineto
          -100 callgsubr
          -91 callgsubr
          vhcurveto
          238 -105 callgsubr
          -63 hlineto
          hintmask 01001000
          62 652 rmoveto
          11 5 4 10 vhcurveto
          72 hlineto
          10 4 -4 -11 -1 hvcurveto
          -32 -190 rlineto
          -11 -2 -6 -4 -10 hhcurveto
          -35 hlineto
          -10 -5 5 10 hvcurveto
          endchar
        </CharString>
        <CharString name="lcommaaccent">
          -296 -19 callgsubr
          585 82 hstemhm
          91 117 -114 112 hintmask 01101000
          206 731 rmoveto
          -49 callsubr
          -72 callgsubr
          -585 -63 hlineto
          -100 callgsubr
          -91 callgsubr
          vhcurveto
          238 -105 callgsubr
          -63 hlineto
          hintmask 10010000
          -34 -291 -102 callgsubr
        </CharString>
        <CharString name="ldot">
          -189 0 79 200 143 242 82 hstemhm
          94 112 70 143 hintmask 10110000
          206 731 rmoveto
          -49 callsubr
          -72 callgsubr
          -585 -63 hlineto
          -100 callgsubr
          -91 callgsubr
          vhcurveto
          238 -105 callgsubr
          -63 hlineto
          hintmask 01001000
          70 271 -86 callgsubr
          endchar
        </CharString>
        <CharString name="less">
          -60 46 433 hstem
          53 424 vstem
          477 465 -43 callsubr
          endchar
        </CharString>
        <CharString name="lessequal">
          -60 0 65 hstem
          53 424 vstem
          477 516 -43 callsubr
          -424 -457 rmoveto
          -15 4 -4 15 vhcurveto
          386 hlineto
          -84 callsubr
          27 -94 callgsubr
          -386 hlineto
          -20 callsubr
          endchar
        </CharString>
        <CharString name="logicalnot">
          -60 285 65 hstem
          432 63 vstem
          476 167 -26 callgsubr
          145 -94 callgsubr
          -422 hlineto
          -20 callsubr
          -27 vlineto
          -15 4 -4 15 vhcurveto
          378 -99 hlineto
          -15 4 -4 15 vhcurveto
          endchar
        </CharString>
        <CharString name="longs">
          -232 0 79 597 83 hstem
          97 112 vstem
          209 568 rmoveto
          -79 callgsubr
          -513 -62 vlineto
          -100 callgsubr
          -91 callgsubr
          vhcurveto
          280 -91 callsubr
          -106 hlineto
          endchar
        </CharString>
        <CharString name="lozenge">
          6 0 86 -65 -21 593 86 0 -20 hstemhm
          60 475 hintmask 00000000
          hintmask 01011000
          231 14 rmoveto
          -10 4 6 -73 callgsubr
          95 hlineto
          10 6 4 10 4 hvcurveto
          164 312 5 10 3 6 -5 10 rlinecurve
          -162 313 rlineto
          10 -4 -6 -53 callsubr
          -95 -43 callgsubr
          -171 -314 -5 -9 -2 -6 5 -9 rlinecurve
          hintmask 10101000
          237 266 rmoveto
          135 -254 -133 -253 -135 253 rlineto
          endchar
        </CharString>
        <CharString name="lslash">
          -296 0 79 585 82 hstem
          94 112 vstem
          206 731 rmoveto
          -49 callsubr
          -72 callgsubr
          -263 hlineto
          -67 -27 rlineto
          -14 -6 -3 -4 -16 vvcurveto
          -26 vlineto
          -15 4 -2 13 5 vhcurveto
          67 27 rlineto
          -258 -63 vlineto
          -100 callgsubr
          -91 callgsubr
          vhcurveto
          238 -105 callgsubr
          -63 297 hlineto
          76 31 rlineto
          14 6 3 4 16 vvcurveto
          26 vlineto
          15 -4 2 -13 -5 vhcurveto
          -76 -31 rlineto
          endchar
        </CharString>
        <CharString name="m">
          303 0 29 callgsubr
          hstemhm
          94 112 188 112 187 -29 callgsubr
          hintmask 10111100
          25 428 rmoveto
          -11 19 callgsubr
          -35 callsubr
          226 -91 callsubr
          -61 hlineto
          hintmask 11011100
          230 vlineto
          49 39 49 63 79 7 -50 -71 vhcurveto
          -207 -45 vlineto
          -100 callgsubr
          -91 callgsubr
          vhcurveto
          205 -105 callgsubr
          -48 241 hlineto
          45 42 42 59 79 7 -50 -71 vhcurveto
          -207 -51 vlineto
          -100 callgsubr
          -91 callgsubr
          vhcurveto
          220 -105 callgsubr
          -57 257 hlineto
          113 -54 57 -101 -59 -59 -25 -63 -39 vhcurveto
          58 -22 -48 30 -72 hhcurveto
          -59 -57 -27 -57 -35 hvcurveto
          hintmask 10111100
          -8 58 rlineto
          10 -1 -4 5 -10 hhcurveto
          -137 hlineto
          -11 -4 -52 callgsubr
          endchar
        </CharString>
        <CharString name="macron">
          622 24 callgsubr
          622 -98 callsubr
        </CharString>
        <CharString name="macron.cap">
          760 24 callgsubr
          760 -98 callsubr
        </CharString>
        <CharString name="minus">
          -60 265 65 hstem
          35 460 vstem
          35 284 rmoveto
          -41 callsubr
        </CharString>
        <CharString name="mu">
          -71 callgsubr
        </CharString>
        <CharString name="multiply">
          -60 104 371 hstem
          81 369 vstem
          88 169 rmoveto
          -10 -10 0 -6 10 -10 20 -20 rcurveline
          10 -10 6 0 10 10 123 122 rcurveline
          133 -133 10 -10 6 0 10 10 rlinecurve
          26 26 10 10 0 6 -10 10 rlinecurve
          -134 133 125 125 10 10 0 6 -10 10 rlinecurve
          -20 20 -10 10 -6 0 -10 -10 rlinecurve
          -125 -125 -122 123 -10 10 -6 0 -10 -10 rlinecurve
          -26 -26 -10 -10 0 -6 10 -10 rlinecurve
          123 -123 rlineto
          endchar
        </CharString>
        <CharString name="n">
          14 0 29 callgsubr
          hstemhm
          94 112 198 -29 callgsubr
          hintmask 10111000
          25 427 rmoveto
          -66 callgsubr
          hintmask 11011000
          -67 callsubr
          hintmask 10111000
          -32 callsubr
          endchar
        </CharString>
        <CharString name="nacute">
          14 120 0 110 194 endchar
        </CharString>
        <CharString name="napostrophe">
          14 0 29 callgsubr
          291 -20 hstemhm
          35 123 -64 112 198 -29 callgsubr
          hintmask 10100110
          25 427 rmoveto
          -66 callgsubr
          hintmask 11000110
          -67 callsubr
          hintmask 10100110
          -32 callsubr
          hintmask 00011000
          94 148 -77 callgsubr
        </CharString>
        <CharString name="ncaron">
          14 65 0 110 207 endchar
        </CharString>
        <CharString name="ncommaaccent">
          14 -277 207 70 29 callgsubr
          hstemhm
          94 112 40 117 41 -29 callgsubr
          hintmask 01011010
          25 427 rmoveto
          -66 callgsubr
          hintmask 01101010
          -67 callsubr
          hintmask 01011010
          -32 callsubr
          hintmask 10000100
          302 -692 -102 callgsubr
        </CharString>
        <CharString name="nine">
          -44 -142 84 147 87 273 82 hstem
          42 110 240 112 vstem
          239 -142 rmoveto
          173 92 118 252 208 -78 95 -159 -143 -82 -99 -131 -124 65 -88 130 71 54 32 42 30 hvcurveto
          -170 -4 -67 -51 -78 hhcurveto
          -60 -17 25 40 -8 hvcurveto
          15 -3 -3 4 -16 hhcurveto
          -55 hlineto
          -15 -4 -4 -15 1 hvcurveto
          -97 7 60 -52 109 hhcurveto
          31 318 rmoveto
          -87 -31 54 79 84 32 56 86 94 26 -79 -65 -12 0 -12 -2 -11 hvcurveto
          -61 -9 -50 -33 -59 hhcurveto
          endchar
        </CharString>
        <CharString name="notequal">
          -60 141 65 114 65 hstem
          35 460 vstem
          35 339 rmoveto
          -15 4 -4 15 vhcurveto
          200 hlineto
          -49 -114 rlineto
          -151 hlineto
          -20 callsubr
          -27 vlineto
          -15 4 -4 15 vhcurveto
          123 hlineto
          -34 -78 rlineto
          -13 -5 19 callsubr
          hhcurveto
          17 8 callsubr
          14 6 hvcurveto
          34 78 rlineto
          244 hlineto
          -84 callsubr
          27 -94 callgsubr
          -216 hlineto
          49 114 rlineto
          167 hlineto
          -84 callsubr
          27 -94 callgsubr
          -138 hlineto
          31 71 rlineto
          13 5 -3 4 -14 hhcurveto
          -17 hlineto
          -16 -4 -3 -14 -6 hvcurveto
          -31 -71 rlineto
          -229 hlineto
          -20 callsubr
          endchar
        </CharString>
        <CharString name="ntilde">
          14 52 0 110 196 endchar
        </CharString>
        <CharString name="numbersign">
          -27 4 -21 188 36 123 36 hstem
          40 483 vstem
          183 330 rmoveto
          -23 -123 rlineto
          -103 22 callsubr
          97 hlineto
          -32 14 callsubr
          32 171 rlineto
          133 hlineto
          -30 14 callsubr
          30 171 rlineto
          122 21 callsubr
          -115 hlineto
          21 123 rlineto
          117 21 callsubr
          -110 hlineto
          26 15 callgsubr
          -26 -148 rlineto
          -132 hlineto
          28 15 callgsubr
          -28 -148 rlineto
          -110 22 callsubr
          272 hmoveto
          -21 -123 rlineto
          -134 hlineto
          23 123 rlineto
          endchar
        </CharString>
        <CharString name="o">
          28 callsubr
          hstem
          35 113 232 117 vstem
          -78 callsubr
          endchar
        </CharString>
        <CharString name="oacute">
          28 callsubr
          74 152 8 callgsubr
          90 154 -12 117 hintmask 11010100
          -78 callsubr
          -25 528 -76 callgsubr
          hintmask 00101000
          -31 callsubr
          endchar
        </CharString>
        <CharString name="obreve">
          -58 16 0 111 198 endchar
        </CharString>
        <CharString name="ocircumflex">
          -58 16 0 111 195 endchar
        </CharString>
        <CharString name="odieresis">
          -58 46 0 111 200 endchar
        </CharString>
        <CharString name="oe">
          240 -12 82 153 74 125 84 hstem
          35 113 232 107 208 105 vstem
          606 -12 rmoveto
          69 61 17 19 35 hvcurveto
          9 5 4 19 callgsubr
          -19 46 rcurveline
          -4 10 -6 3 -10 -5 rrcurveto
          -16 -36 -32 -10 -45 hhcurveto
          -108 -27 66 85 -6 hvcurveto
          294 hlineto
          15 2 4 12 1 hvcurveto
          1 12 0 13 9 vvcurveto
          108 -42 125 -153 -76 -54 -30 -45 -35 vhcurveto
          65 -46 -72 10 -50 hhcurveto
          -96 -141 -55 -211 -170 85 -82 136 72 62 25 54 40 hvcurveto
          -50 34 55 -29 87 hhcurveto
          -341 82 rmoveto
          -100 -17 103 89 97 32 65 83 86 31 -65 -112 -115 -33 -62 -82 hvcurveto
          222 227 20 callgsubr
        </CharString>
        <CharString name="ogonek">
          -233 69 hstem
          142 79 vstem
          142 -95 callsubr
          33 22 42 54 57 hvcurveto
          -62 1 rlineto
          -44 -40 -49 -51 -61 vvcurveto
          endchar
        </CharString>
        <CharString name="ogonek.cap">
          -233 69 hstem
          142 79 vstem
          142 -95 callsubr
          33 22 42 54 57 hvcurveto
          -62 1 rlineto
          -44 -40 -49 -51 -61 vvcurveto
          endchar
        </CharString>
        <CharString name="ograve">
          -58 -19 0 111 193 endchar
        </CharString>
        <CharString name="ohungarumlaut">
          -58 81 0 111 205 endchar
        </CharString>
        <CharString name="omacron">
          28 callsubr
          106 81 8 callgsubr
          -27 298 -39 117 hintmask 11010100
          -78 callsubr
          hintmask 00101000
          135 542 -98 callsubr
        </CharString>
        <CharString name="one">
          -251 0 79 351 81 hstem
          119 112 vstem
          44 511 rmoveto
          -20 callsubr
          -46 0 callgsubr
          75 4 rlineto
          -353 -69 vlineto
          -57 callgsubr
          250 -44 callgsubr
          -69 413 hlineto
          -23 callgsubr
          endchar
        </CharString>
        <CharString name="onehalf">
          310 0 65 -61 -21 298 67 -40 63 205 66 37 -20 hstemhm
          165 85 3 403 75 85 hintmask 0010101000000000
          118 642 rmoveto
          -20 callsubr
          -30 0 callgsubr
          47 2 rlineto
          -229 -43 34 callsubr
          -30 vlineto
          -15 4 -4 15 vhcurveto
          174 hlineto
          -84 callsubr
          30 -36 callsubr
          -46 275 hlineto
          -23 callgsubr
          hintmask 0100010100000000
          422 20 -61 callsubr
          hintmask 1001000010000000
          338 308 rmoveto
          48 12 -24 -37 -77 -86 -62 -72 -46 hvcurveto
          -13 -8 -4 -4 -15 vvcurveto
          -16 vlineto
          -15 4 -4 15 vhcurveto
          237 hlineto
          -85 callgsubr
          35 vlineto
          -106 callsubr
          -143 hlineto
          63 37 84 61 87 vvcurveto
          85 -53 36 -85 -78 -54 -37 -75 -8 vhcurveto
          12 callgsubr
          29 8 callsubr
          16 3 hvcurveto
          31 5 21 18 38 hhcurveto
          endchar
        </CharString>
        <CharString name="onequarter">
          310 4 -21 90 58 150 67 13 -20 235 66 37 -20 hstemhm
          165 85 30 403 6 80 hintmask 0010101000000000
          118 642 rmoveto
          -20 callsubr
          -30 0 callgsubr
          47 2 rlineto
          -229 -43 34 callsubr
          -30 vlineto
          -15 4 -4 15 vhcurveto
          174 hlineto
          -84 callsubr
          30 -36 callsubr
          -46 275 hlineto
          -23 callgsubr
          hintmask 1000010100000000
          449 20 -61 callsubr
          hintmask 0101000010000000
          394 hmoveto
          -75 callgsubr
        </CharString>
        <CharString name="onesuperior">
          -289 388 67 228 66 hstem
          120 85 vstem
          73 749 rmoveto
          -20 callsubr
          -30 0 callgsubr
          47 2 rlineto
          -229 -43 34 callsubr
          -30 vlineto
          -15 4 -4 15 vhcurveto
          174 hlineto
          -84 callsubr
          30 -36 callsubr
          -46 275 hlineto
          -23 callgsubr
          endchar
        </CharString>
        <CharString name="ordfeminine">
          -60 325 62 -53 59 104 50 89 60 hstemhm
          99 85 126 84 hintmask 00000000
          hintmask 01111100
          308 547 rmoveto
          -80 -2 -129 -3 -116 vvcurveto
          hintmask 10111100
          -76 51 -25 55 51 35 18 35 25 vhcurveto
          hintmask 01111100
          5 -33 rlineto
          -7 1 3 -4 7 hhcurveto
          92 hlineto
          7 4 3 8 hvcurveto
          37 vlineto
          7 -4 4 -7 vhcurveto
          -30 186 hlineto
          63 -21 54 -115 -81 -62 -31 -75 -5 vhcurveto
          -7 3 -3 7 vhcurveto
          53 hlineto
          7 2 4 6 2 hvcurveto
          26 6 11 20 45 hhcurveto
          57 5 -30 -34 hvcurveto
          hintmask 10111100
          2 -128 rmoveto
          -27 -24 -30 -53 -30 -19 13 34 63 68 0 58 vhcurveto
          endchar
        </CharString>
        <CharString name="ordmasculine">
          -58 326 370 -308 249 hstemhm
          179 171 hintmask 00000000
          270 696 rmoveto
          -70 -104 -42 -148 -121 63 -59 100 97 80 64 131 hvcurveto
          hintmask 10100000
          164 -108 11 -58 vhcurveto
          80 -185 rmoveto
          -73 -24 -50 -61 -74 -12 80 58 61 24 50 61 vhcurveto
          hintmask 01100000
          63 23 -48 -78 hvcurveto
          endchar
        </CharString>
        <CharString name="oslash">
          -58 -12 82 -52 -21 427 82 -7 -20 8 callgsubr
          232 117 hintmask 00000000
          hintmask 10101100
          35 240 rmoveto
          hintmask 01101100
          -110 36 -73 62 -38 vhcurveto
          -44 -102 rlineto
          -14 -5 3 18 callgsubr
          23 0 callsubr
          34 80 rlineto
          hintmask 10011100
          -6 22 24 -3 26 hhcurveto
          133 108 86 187 126 -48 61 -55 30 hvcurveto
          41 95 rlineto
          14 5 3 callgsubr
          -24 -1 callsubr
          -32 -74 rlineto
          hintmask 10101100
          6 -25 -25 1 -19 hhcurveto
          -96 -141 -55 -211 hvcurveto
          230 -170 rmoveto
          -18 -14 3 6 -13 hvcurveto
          131 302 rlineto
          20 -31 9 -45 -58 vvcurveto
          -115 -33 -62 -82 vhcurveto
          -117 192 rmoveto
          97 32 65 83 16 14 -3 -4 12 vhcurveto
          -129 -298 rlineto
          -23 38 -5 54 51 vvcurveto
          endchar
        </CharString>
        <CharString name="oslashacute">
          -58 56 0 249 194 endchar
        </CharString>
        <CharString name="otilde">
          28 callsubr
          92 114 8 callgsubr
          -52 340 -56 117 hintmask 11010100
          -78 callsubr
          -96 642 rmoveto
          -29 -44 -15 -79 -9 2 -5 10 hvcurveto
          31 hlineto
          10 2 1 9 15 11 7 19 hvcurveto
          35 85 -38 59 hhcurveto
          40 36 28 71 9 -2 5 -10 hvcurveto
          -24 hlineto
          -10 -5 -2 -11 -24 -15 -3 -19 hvcurveto
          hintmask 00101000
          -21 callsubr
        </CharString>
        <CharString name="p">
          -6 -230 80 138 83 342 82 -81 92 hstemhm
          33 callsubr
          hintmask 00000000
          hintmask 11101100
          -33 callsubr
          hvcurveto
          hintmask 11011100
          160 -76 79 -120 -68 -57 -32 -54 -32 vhcurveto
          hintmask 11101100
          -10 60 rlineto
          10 -2 -3 5 -10 hhcurveto
          -136 hlineto
          -11 -4 -97 callgsubr
          54 hlineto
          112 -109 rmoveto
          hintmask 11011100
          6 callsubr
        </CharString>
        <CharString name="paragraph">
          -65 -160 88 669 82 hstem
          308 109 vstem
          466 597 rmoveto
          -10 callsubr
          45 -94 callgsubr
          -141 hlineto
          -124 -141 -41 -161 -132 82 -69 138 hvcurveto
          28 -228 hlineto
          -88 -26 -32 -51 -31 -20 4 6 -18 vhcurveto
          -15 5 -4 -2 -5 -14 -16 -45 rcurveline
          -5 -14 2 -5 14 -5 rrcurveto
          -12 34 36 -6 37 hhcurveto
          138 39 89 110 hvcurveto
          558 vlineto
          endchar
        </CharString>
        <CharString name="parenleft">
          -254 -150 81 730 84 hstem
          82 219 vstem
          301 -85 rmoveto
          15 -4 4 -15 -1 vhcurveto
          -45 -3 -61 377 53 356 43 -3 rlineto
          -10 callsubr
          49 -94 callgsubr
          -105 hlineto
          12 callsubr
          -62 -401 -2 -13 0 -12 2 -13 rlinecurve
          72 -419 rlineto
          -16 2 5 -3 15 hhcurveto
          105 hlineto
          -84 callsubr
          endchar
        </CharString>
        <CharString name="parenright">
          -254 -150 81 730 84 hstem
          35 219 vstem
          35 -131 rmoveto
          -15 4 -4 15 vhcurveto
          105 hlineto
          15 5 3 16 2 hvcurveto
          72 419 2 13 0 12 -2 13 rlinecurve
          -62 401 rlineto
          16 -2 -5 3 -15 hhcurveto
          -105 hlineto
          -20 callsubr
          -49 0 callgsubr
          43 3 53 -356 -61 -377 -45 3 rlineto
          -15 1 -4 -4 -15 vvcurveto
          endchar
        </CharString>
        <CharString name="partialdiff">
          6 478 135 hstemhm
          73 455 -337 224 hintmask 00000000
          528 320 rmoveto
          231 -59 145 -174 -82 -52 -39 -40 -40 vhcurveto
          -11 -11 7 -9 5 -5 35 -34 rcurveline
          5 -5 7 -4 9 9 rrcurveto
          24 22 38 31 51 hhcurveto
          76 38 -62 -131 10 hvcurveto
          30 -22 -47 28 -59 hhcurveto
          -127 -85 -92 -159 -129 64 -110 160 hvcurveto
          hintmask 11000000
          158 73 111 221 hvcurveto
          -226 -249 rmoveto
          -86 -25 81 80 96 30 67 78 59 38 -35 -37 17 hvcurveto
          1 -8 1 -9 -9 vvcurveto
          hintmask 10100000
          -105 -12 -121 -101 vhcurveto
          endchar
        </CharString>
        <CharString name="percent">
          242 -17 68 234 68 -64 66 236 66 hstemhm
          40 88 149 87 104 88 149 87 hintmask 00000000
          hintmask 10111111
          40 472 -18 callgsubr
          -83 -24 -36 -50 -52 -23 36 79 vhcurveto
          340 -298 -18 callgsubr
          -84 -24 -35 -50 vhcurveto
          hintmask 11011111
          -52 -23 37 78 hvcurveto
          51 472 rmoveto
          13 6 -3 4 -14 hhcurveto
          hintmask 10111111
          -40 hlineto
          hintmask 11011111
          -14 callsubr
        </CharString>
        <CharString name="period">
          -311 -19 138 hstem
          51 150 vstem
          126 -19 rmoveto
          -70 callsubr
          endchar
        </CharString>
        <CharString name="periodcentered">
          -337 279 138 hstem
          51 150 vstem
          126 279 rmoveto
          -70 callsubr
          endchar
        </CharString>
        <CharString name="perthousand">
          478 -17 62 211 61 6 62 211 61 hstemhm
          40 83 126 83 73 83 126 83 39 83 126 83 -3 callsubr
          hintmask 1101111111000000
          736 151 rmoveto
          -105 62 -63 85 -42 callgsubr
          -47 -17 34 68 vhcurveto
          -414 4 rmoveto
          -105 62 -63 85 -42 callgsubr
          -47 -17 34 68 vhcurveto
          -448 344 rmoveto
          -105 57 -63 90 -42 callgsubr
          vhcurveto
          hintmask 0011110000000000
          -47 -17 34 68 hvcurveto
          435 151 rmoveto
          13 6 -3 4 -14 hhcurveto
          hintmask 1101111111000000
          -40 hlineto
          hintmask 0011110000000000
          -14 callsubr
        </CharString>
        <CharString name="pi">
          50 0 495 hstem
          235 176 vstem
          58 495 rmoveto
          -10 -5 -52 callgsubr
          -52 vlineto
          -11 19 callgsubr
          vhcurveto
          65 -398 hlineto
          -20 callgsubr
          82 hlineto
          -85 callgsubr
          398 176 -398 -9 callgsubr
          82 hlineto
          -85 callgsubr
          398 58 vlineto
          -85 callgsubr
          52 -48 callsubr
          -523 hlineto
          endchar
        </CharString>
        <CharString name="plus">
          -60 265 65 hstem
          227 73 vstem
          54 330 rmoveto
          -20 callsubr
          -27 vlineto
          -15 4 -4 15 vhcurveto
          173 -188 hlineto
          -15 4 -4 15 vhcurveto
          35 hlineto
          -84 callsubr
          188 176 vlineto
          -84 callsubr
          27 -94 callgsubr
          -176 173 hlineto
          -23 callgsubr
          -35 hlineto
          -20 callsubr
          -173 vlineto
          endchar
        </CharString>
        <CharString name="plusminus">
          -60 0 65 207 65 hstem
          227 73 vstem
          54 337 rmoveto
          -20 callsubr
          -27 vlineto
          -15 4 -4 15 vhcurveto
          173 -207 -173 hlineto
          -20 callsubr
          -27 vlineto
          -40 callsubr
          -176 207 176 hlineto
          -84 callsubr
          27 -94 callgsubr
          -176 173 hlineto
          -23 callgsubr
          -35 hlineto
          -20 callsubr
          -173 vlineto
          endchar
        </CharString>
        <CharString name="product">
          159 -138 817 hstemhm
          220 303 -235 167 hintmask 00000000
          55 -59 rmoveto
          -100 callgsubr
          -91 callgsubr
          vhcurveto
          218 hlineto
          10 5 -81 callgsubr
          49 vlineto
          hintmask 11000000
          -106 callsubr
          -53 652 303 hlineto
          hintmask 10100000
          -652 -53 vlineto
          -10 -5 -68 callsubr
          hintmask 11000000
          -103 callsubr
          218 -105 callgsubr
          -53 723 hlineto
          -49 callsubr
          -497 hlineto
          -10 -5 -4 -11 hvcurveto
          hintmask 10100000
          -723 vlineto
          endchar
        </CharString>
        <CharString name="q">
          -15 -230 78 140 86 339 82 -78 89 8 callgsubr
          235 -29 callgsubr
          hintmask 11101100
          495 -152 rmoveto
          565 55 vlineto
          -64 callgsubr
          -125 hlineto
          -10 -3 -5 -10 -3 hvcurveto
          hintmask 11011100
          -10 -41 rlineto
          38 -26 -54 29 -64 hhcurveto
          -121 -99 -84 -189 -162 76 -83 120 63 57 24 51 32 hvcurveto
          -278 vlineto
          -103 callsubr
          150 5 callsubr
          -81 callgsubr
          -12 callsubr
          -165 341 rmoveto
          -72 -55 -43 -63 -104 -13 87 93 117 54 46 70 74 37 -53 0 vhcurveto
          endchar
        </CharString>
        <CharString name="question">
          -125 -17 124 512 77 hstemhm
          133 135 -109 86 76 109 hintmask 00000000
          hintmask 11011000
          226 158 -26 callgsubr
          128 vlineto
          103 27 82 64 126 vvcurveto
          117 -79 57 -114 -115 -80 -54 -109 -6 vhcurveto
          -17 callsubr
          53 hlineto
          -73 callsubr
          2 hvcurveto
          54 6 32 32 59 hhcurveto
          78 18 -49 -56 -83 -64 -43 -80 -18 hvcurveto
          -15 -4 -3 -4 -15 vvcurveto
          -170 vlineto
          -15 4 -4 15 vhcurveto
          hintmask 11101000
          23 -175 6 callgsubr
        </CharString>
        <CharString name="questiondown">
          -125 -202 77 512 124 hstemhm
          35 109 53 135 -112 86 hintmask 00000000
          hintmask 11101000
          239 336 rmoveto
          -20 callsubr
          -128 vlineto
          -103 -27 -82 -64 -126 vvcurveto
          -117 79 -57 114 115 80 54 109 6 vhcurveto
          15 1 -4 4 -15 hhcurveto
          -53 hlineto
          -15 -4 -4 -15 -2 hvcurveto
          -54 -6 -32 -32 -59 hhcurveto
          -78 -18 49 56 83 64 43 80 18 hvcurveto
          15 4 3 4 15 vvcurveto
          170 -94 callgsubr
          hintmask 11110000
          -23 175 rmoveto
          -44 -23 -29 -34 -36 27 -25 41 40 27 28 34 35 -25 27 -43 hvcurveto
          endchar
        </CharString>
        <CharString name="quotedbl">
          -216 457 222 hstemhm
          60 102 hintmask 00000000
          hintmask 11000000
          125 457 rmoveto
          -58 callsubr
          hintmask 00000000
          180 hmoveto
          -58 callsubr
          endchar
        </CharString>
        <CharString name="quotedblbase">
          -196 -151 243 hstemhm
          73 32 callgsubr
          157 -66 -89 callgsubr
          hintmask 10100000
          194 74 -77 callgsubr
        </CharString>
        <CharString name="quotedblleft">
          -186 749 -20 hstemhm
          66 32 callgsubr
          105 664 -52 callsubr
          hintmask 10100000
          106 -74 -52 callsubr
          endchar
        </CharString>
        <CharString name="quotedblright">
          -186 753 -20 hstemhm
          73 32 callgsubr
          157 595 -89 callgsubr
          hintmask 10100000
          194 74 -77 callgsubr
        </CharString>
        <CharString name="quoteleft">
          -336 749 -20 hstem
          66 123 vstem
          105 664 -52 callsubr
          endchar
        </CharString>
        <CharString name="quoteright">
          -336 753 -20 hstem
          73 123 vstem
          157 595 -77 callgsubr
        </CharString>
        <CharString name="quotesinglbase">
          -336 -151 243 hstem
          73 123 vstem
          157 -66 -77 callgsubr
        </CharString>
        <CharString name="quotesingle">
          -368 457 222 hstemhm
          60 102 hintmask 00000000
          hintmask 11000000
          125 457 rmoveto
          -58 callsubr
          endchar
        </CharString>
        <CharString name="r">
          -139 0 79 251 176 -102 102 -93 82 3 -20 hstemhm
          94 112 121 92 hintmask 00000000
          hintmask 11000110
          31 callgsubr
          hintmask 10010110
          -11 71 rlineto
          10 -2 -93 callsubr
          hhcurveto
          -132 hlineto
          -11 -4 -4 -11 hvcurveto
          -52 vlineto
          -10 5 -5 10 -35 callsubr
          275 -105 callgsubr
          -110 187 hlineto
          hintmask 10100110
          37 callgsubr
          hintmask 11000110
          -4 -58 rlineto
          -11 -1 -67 callgsubr
          65 hlineto
          10 5 -81 callgsubr
          hintmask 10001110
          135 vlineto
          10 -1 4 -11 4 vhcurveto
          hintmask 11000110
          3 -9 -33 5 -22 hhcurveto
          endchar
        </CharString>
        <CharString name="racute">
          -139 30 0 114 194 endchar
        </CharString>
        <CharString name="radical">
          72 0 790 hstem
          26 636 vstem
          154 399 rmoveto
          140 -386 rlineto
          -7 2 5 -6 8 hhcurveto
          67 hlineto
          8 5 5 8 3 hvcurveto
          269 762 rlineto
          8 3 -4 7 -8 hhcurveto
          -71 hlineto
          -9 -4 -5 -8 -3 hvcurveto
          -217 -624 -123 357 -3 8 -7 3 -10 -5 rlinecurve
          -168 -87 -12 -6 -1 -7 4 -9 rlinecurve
          23 -47 4 -8 5 -5 11 6 rlinecurve
          endchar
        </CharString>
        <CharString name="rcaron">
          -139 -16 0 114 207 endchar
        </CharString>
        <CharString name="rcommaaccent">
          -139 -19 callgsubr
          251 176 -102 102 -93 82 3 -20 hstemhm
          92 117 -115 112 121 92 -3 callsubr
          hintmask 0110000110000000
          31 callgsubr
          hintmask 0100100110000000
          -11 71 rlineto
          10 -2 -93 callsubr
          hhcurveto
          -132 hlineto
          -11 -4 -4 -11 hvcurveto
          -52 vlineto
          -10 5 -5 10 -35 callsubr
          275 -105 callgsubr
          -110 187 hlineto
          hintmask 0101000110000000
          37 callgsubr
          hintmask 0110000110000000
          -4 -58 rlineto
          -11 -1 -67 callgsubr
          65 hlineto
          10 5 -81 callgsubr
          hintmask 0100010110000000
          135 vlineto
          10 -1 4 -11 4 vhcurveto
          hintmask 0110000110000000
          3 -9 -33 5 -22 hhcurveto
          hintmask 1000001000000000
          -170 -718 -102 callgsubr
        </CharString>
        <CharString name="registered">
          -92 390 23 68 21 58 24 52 27 56 23 hstem
          65 28 93 34 54 36 90 28 vstem
          244 742 rmoveto
          -104 -75 -75 -102 -101 68 -74 111 109 75 74 105 98 -76 75 -108 hvcurveto
          -329 vmoveto
          -88 -63 61 91 92 58 62 93 90 66 -62 -92 -94 -65 -58 -91 hvcurveto
          -12 68 rmoveto
          6 2 2 6 hvcurveto
          4 vlineto
          8 -2 1 -6 vhcurveto
          -12 58 23 hlineto
          36 -73 rlineto
          -5 2 3 -1 5 hhcurveto
          39 hlineto
          6 2 2 5 hvcurveto
          7 vlineto
          6 -2 1 -6 vhcurveto
          -18 hlineto
          -34 66 rlineto
          20 8 14 14 25 vvcurveto
          35 -26 13 -37 vhcurveto
          -71 hlineto
          -7 -2 -2 -6 hvcurveto
          -11 vlineto
          -7 2 -1 6 vhcurveto
          11 -134 -12 hlineto
          -5 -2 -1 -6 hvcurveto
          -7 vlineto
          -5 2 -2 6 vhcurveto
          62 155 rmoveto
          24 13 -6 -17 -22 -13 -7 -25 hvcurveto
          -16 52 hlineto
          endchar
        </CharString>
        <CharString name="revcommaaccent">
          580 221 hstem
          188 117 vstem
          224 724 -25 callgsubr
        </CharString>
        <CharString name="ring">
          565 25 callsubr
          565 -80 callgsubr
          endchar
        </CharString>
        <CharString name="ring.cap">
          718 25 callsubr
          718 -80 callgsubr
          endchar
        </CharString>
        <CharString name="s">
          -149 -12 73 370 75 hstemhm
          55 85 -84 102 143 83 -79 106 hintmask 00000000
          hintmask 11100100
          247 506 rmoveto
          hintmask 11010100
          -56 callgsubr
          hintmask 11100100
          -32 -29 8 12 -16 hvcurveto
          3 52 rlineto
          11 1 -5 -53 callsubr
          -58 -82 callgsubr
          -106 vlineto
          -11 2 -5 11 -3 vhcurveto
          -7 26 57 -13 58 hhcurveto
          129 73 61 100 hvcurveto
          hintmask 11010100
          -36 callgsubr
          hintmask 11101000
          -74 callgsubr
          hintmask 11100100
          7 -22 -47 11 -55 hhcurveto
          endchar
        </CharString>
        <CharString name="sacute">
          16 callgsubr
          74 152 hstemhm
          40 85 -84 102 39 154 -50 -89 callsubr
          -48 92 -76 callgsubr
          hintmask 00100100
          -31 callsubr
          endchar
        </CharString>
        <CharString name="scaron">
          16 callgsubr
          74 161 hstemhm
          40 85 -84 102 -66 296 -87 -89 callsubr
          72 235 -32 callgsubr
          hintmask 00100100
          9 6 -3 -53 callsubr
          endchar
        </CharString>
        <CharString name="scedilla">
          16 callgsubr
          hstemhm
          40 85 -84 102 14 120 9 83 -79 106 hintmask 00000000
          hintmask 11100010
          232 506 rmoveto
          hintmask 11010010
          -56 callgsubr
          hintmask 11101010
          -32 -29 8 12 -16 hvcurveto
          3 52 rlineto
          11 1 -5 -53 callsubr
          -58 -82 callgsubr
          -106 vlineto
          -11 2 -5 11 -3 vhcurveto
          -7 26 56 -13 57 hhcurveto
          -32 -47 -94 callsubr
          -16 14 14 23 rlineto
          hintmask 11010010
          102 12 57 58 88 -36 callgsubr
          hintmask 11100100
          -74 callgsubr
          hintmask 11100010
          7 -22 -47 11 -55 hhcurveto
          endchar
        </CharString>
        <CharString name="scircumflex">
          16 callgsubr
          74 161 hstemhm
          40 85 -84 102 -74 296 -79 -89 callsubr
          -94 74 -60 callsubr
          hintmask 00100100
          -9 -6 3 -73 callgsubr
          endchar
        </CharString>
        <CharString name="scommaaccent">
          -159 -277 207 58 73 370 75 hstemhm
          40 85 -84 102 9 117 17 83 -79 106 hintmask 00000000
          hintmask 01110001
          232 506 rmoveto
          hintmask 01101001
          -56 callgsubr
          hintmask 01110001
          -32 -29 8 12 -16 hvcurveto
          3 52 rlineto
          11 1 -5 -53 callsubr
          -58 -82 callgsubr
          -106 vlineto
          -11 2 -5 11 -3 vhcurveto
          -7 26 57 -13 58 hhcurveto
          129 73 61 100 hvcurveto
          hintmask 01101001
          -36 callgsubr
          hintmask 01110010
          -74 callgsubr
          hintmask 01110001
          7 -22 -47 11 -55 hhcurveto
          hintmask 10000100
          1 -718 -102 callgsubr
        </CharString>
        <CharString name="section">
          -17 -181 76 724 76 hstem
          55 89 260 86 vstem
          178 198 rmoveto
          76 -97 46 -69 -64 vvcurveto
          -55 -37 -18 -38 -45 -31 17 60 -5 vhcurveto
          15 -2 -3 4 -16 hhcurveto
          -49 hlineto
          -15 -3 -4 -15 1 hvcurveto
          -127 7 81 -26 89 hhcurveto
          144 112 117 158 124 -85 95 -71 88 hvcurveto
          -48 59 -40 55 45 vvcurveto
          42 33 17 48 50 30 -28 -47 7 vhcurveto
          -15 2 -33 callgsubr
          50 hlineto
          15 3 4 15 -1 hvcurveto
          124 -8 -94 27 -95 hhcurveto
          -159 -91 -107 -131 -99 55 -73 68 -87 hvcurveto
          226 -125 rmoveto
          -37 -7 -46 -18 -40 vhcurveto
          28 233 -263 117 167 vvcurveto
          43 7 33 12 27 vhcurveto
          6 -3 rlineto
          -25 -185 260 -109 -200 vvcurveto
          endchar
        </CharString>
        <CharString name="semicolon">
          -290 -157 282 253 138 hstemhm
          67 148 -143 150 hintmask 10100000
          -27 callgsubr
          hintmask 01010000
          33 523 rmoveto
          -70 callsubr
          endchar
        </CharString>
        <CharString name="seven">
          -129 415 96 hstem
          10 441 vstem
          333 415 rmoveto
          -256 -531 rlineto
          -13 -6 19 callsubr
          hhcurveto
          75 8 callsubr
          14 7 hvcurveto
          253 528 rlineto
          6 12 2 10 14 vvcurveto
          44 -94 callgsubr
          -403 hlineto
          -20 callsubr
          -58 vlineto
          -15 4 -4 15 vhcurveto
          endchar
        </CharString>
        <CharString name="six">
          -44 -12 82 268 87 147 84 hstem
          42 112 240 110 vstem
          312 656 rmoveto
          -167 -103 -112 -249 -201 74 -106 163 140 85 98 140 115 -65 84 -130 -71 -54 -32 -42 -30 hvcurveto
          165 4 65 56 82 hhcurveto
          56 21 -25 -40 6 hvcurveto
          -15 2 4 -4 16 hhcurveto
          55 hlineto
          15 3 4 15 -1 hvcurveto
          106 -9 -68 43 -93 hhcurveto
          -36 -318 rmoveto
          87 31 -53 -77 -85 -32 -53 -86 -94 -26 78 73 12 1 12 2 11 hvcurveto
          59 13 51 23 53 hhcurveto
          endchar
        </CharString>
        <CharString name="slash">
          -141 745 -20 hstem
          34 376 vstem
          408 727 rmoveto
          14 5 3 callgsubr
          -40 -1 callsubr
          -294 -810 rlineto
          -14 -5 3 18 callgsubr
          39 0 callsubr
          endchar
        </CharString>
        <CharString name="space">
          -390 endchar
        </CharString>
        <CharString name="sterling">
          -136 0 83 -66 -21 235 64 159 77 hstemhm
          92 101 -95 101 136 77 -66 83 hintmask 00000000
          hintmask 01111010
          92 233 rmoveto
          -1 -55 -5 -39 -22 -40 -8 -14 -15 -17 -17 -13 -13 -9 -2 -5 4 -16 3 -12 rcurveline
          3 -15 4 -4 16 2 rrcurveto
          hintmask 10111001
          2 28 39 2 35 hhcurveto
          269 hlineto
          -84 callsubr
          116 -94 callgsubr
          -48 hlineto
          -15 -4 -4 -15 1 hvcurveto
          4 -52 rlineto
          -211 hlineto
          42 51 11 30 3 67 rrcurveto
          139 hlineto
          15 5 3 16 2 hvcurveto
          3 26 rlineto
          15 2 3 callgsubr
          hintmask 10110110
          -144 hlineto
          4 72 rlineto
          60 4 15 27 50 hhcurveto
          27 24 -8 -11 16 hvcurveto
          -4 -51 16 callsubr
          42 hlineto
          -84 callsubr
          107 vlineto
          16 -3 4 -15 4 vhcurveto
          9 -37 -36 7 -38 hhcurveto
          -95 -79 -46 -125 -9 hvcurveto
          -4 -65 rlineto
          hintmask 10111010
          -38 hlineto
          -15 -4 -4 -15 -2 hvcurveto
          -3 -24 rlineto
          12 callgsubr
          endchar
        </CharString>
        <CharString name="summation">
          -3 -122 82 635 84 hstemhm
          292 128 hintmask 00000000
          hintmask 11100000
          417 277 rmoveto
          4 5 1 8 -6 8 -242 297 rcurveline
          321 hlineto
          10 5 -81 callgsubr
          54 -68 callgsubr
          -440 hlineto
          -10 -5 -4 -11 hvcurveto
          -52 vlineto
          -7 3 -6 3 -4 vhcurveto
          242 -300 6 -7 -1 -6 -6 -8 rlinecurve
          -247 -310 rlineto
          -7 -9 -3 -3 -11 vvcurveto
          -48 -9 callgsubr
          460 5 callsubr
          -81 callgsubr
          52 vlineto
          -106 callsubr
          -343 hlineto
          endchar
        </CharString>
        <CharString name="t">
          -221 -12 84 341 82 hstem
          87 112 vstem
          199 413 rmoveto
          101 hlineto
          10 5 4 11 hvcurveto
          52 vlineto
          10 -5 5 -10 vhcurveto
          -101 135 hlineto
          -85 callsubr
          endchar
        </CharString>
        <CharString name="t_t">
          87 -12 84 341 82 hstem
          87 112 196 112 vstem
          507 -47 callgsubr
          -196 135 vlineto
          -85 callsubr
          252 196 -241 vlineto
          -87 0 -97 144 38 48 10 14 28 vhcurveto
          9 5 4 19 callgsubr
          -18 46 rcurveline
          -4 10 -4 1 -8 -3 rrcurveto
          -8 -18 -17 -6 -26 hhcurveto
          -52 -8 33 56 hvcurveto
          endchar
        </CharString>
        <CharString name="tbar">
          -221 -12 84 170 58 113 82 hstem
          87 112 vstem
          -37 callsubr
          -113 -49 hlineto
          26 callsubr
          49 -70 hlineto
          -87 0 -97 144 38 48 10 14 28 vhcurveto
          9 5 4 19 callgsubr
          -18 46 rcurveline
          -4 10 -4 1 -8 -3 rrcurveto
          -8 -18 -17 -6 -26 hhcurveto
          -52 -8 33 56 hvcurveto
          81 97 vlineto
          -84 callsubr
          20 -94 callgsubr
          -97 hlineto
          endchar
        </CharString>
        <CharString name="tcaron">
          -221 -12 84 341 82 49 220 hstemhm
          87 112 72 100 hintmask 11010000
          199 413 rmoveto
          101 hlineto
          10 5 4 11 hvcurveto
          52 vlineto
          10 -5 5 -10 vhcurveto
          -101 135 hlineto
          -85 callsubr
          72 398 rmoveto
          -103 callsubr
          35 hlineto
          10 6 4 11 2 hvcurveto
          32 190 rlineto
          11 1 -4 -53 callsubr
          -72 hlineto
          hintmask 00101000
          -10 -5 -4 -11 hvcurveto
          endchar
        </CharString>
        <CharString name="thinspace">
          -540 endchar
        </CharString>
        <CharString name="thorn">
          -6 -230 80 138 83 343 92 158 82 hstem
          33 callsubr
          vstem
          -33 callsubr
          160 -76 79 -120 -68 -54 -38 -46 -30 hvcurveto
          309 vlineto
          10 -2 -3 5 -10 hhcurveto
          -72 callgsubr
          hlineto
          112 -360 rmoveto
          6 callsubr
        </CharString>
        <CharString name="three">
          -107 -141 83 505 84 hstemhm
          320 108 -96 110 hintmask 00000000
          hintmask 11100000
          230 447 rmoveto
          62 28 -31 -56 -52 -22 -38 -68 -13 hvcurveto
          -18 -3 -28 -1 -19 -1 rrcurveto
          -15 -1 -4 -3 -15 vvcurveto
          -44 vlineto
          -15 4 -4 15 vhcurveto
          20 -1 18 1 22 -1 rrcurveto
          hintmask 11010000
          62 -3 45 -27 -82 vvcurveto
          -88 -44 -27 -67 -67 -34 22 63 -5 vhcurveto
          15 -2 -3 4 -16 hhcurveto
          -56 hlineto
          -15 -4 -4 -15 1 hvcurveto
          -118 4 68 -50 126 hhcurveto
          135 89 76 121 104 -74 48 -69 9 hvcurveto
          hintmask 11100000
          60 22 69 45 89 vvcurveto
          100 -64 58 -126 -106 -91 -53 -117 -5 vhcurveto
          -17 callsubr
          53 hlineto
          -73 callsubr
          2 hvcurveto
          63 7 42 23 53 hhcurveto
          endchar
        </CharString>
        <CharString name="threequarters">
          310 4 -21 90 58 134 57 39 -20 93 58 102 58 27 -20 hstemhm
          263 78 -71 80 -69 403 5 80 -3 callsubr
          hintmask 0010110100000000
          201 594 rmoveto
          39 23 -13 -34 -29 -13 -20 -40 -4 hvcurveto
          -1 -11 -16 -1 -16 hhcurveto
          26 callsubr
          hintmask 0010110010000000
          -37 callgsubr
          hintmask 0010110100000000
          -22 callgsubr
          hintmask 1000001001000000
          480 68 -61 callsubr
          hintmask 0101000000100000
          393 hmoveto
          -75 callgsubr
        </CharString>
        <CharString name="threesuperior">
          -255 372 57 112 58 102 58 hstemhm
          217 78 -71 80 hintmask 00000000
          hintmask 11110000
          155 701 rmoveto
          39 23 -13 -34 -29 -13 -20 -40 -4 hvcurveto
          -1 -11 -16 -1 -16 hhcurveto
          26 callsubr
          hintmask 11101000
          -37 callgsubr
          hintmask 11110000
          -22 callgsubr
          endchar
        </CharString>
        <CharString name="tilde">
          598 114 hstem
          80 340 vstem
          153 712 rmoveto
          -29 -44 -15 -79 -9 2 -5 10 hvcurveto
          31 hlineto
          10 2 1 9 15 11 7 19 hvcurveto
          35 85 -38 59 hhcurveto
          40 36 28 71 9 -2 5 -10 hvcurveto
          -24 hlineto
          -10 -5 -2 -11 -24 -15 -3 -19 hvcurveto
          -21 callsubr
        </CharString>
        <CharString name="tilde.cap">
          750 -20 hstem
          80 340 vstem
          153 858 rmoveto
          -29 -44 -15 -79 -9 2 -5 10 hvcurveto
          31 hlineto
          10 2 1 9 15 11 7 19 hvcurveto
          35 85 -38 59 hhcurveto
          40 36 28 71 9 -2 5 -10 hvcurveto
          -24 hlineto
          -10 -5 -2 -11 -24 -15 -3 -19 hvcurveto
          -21 callsubr
        </CharString>
        <CharString name="trademark">
          254 344 43 250 42 -36 36 hstemhm
          70 44 62 62 63 42 57 43 240 59 hintmask 00000000
          hintmask 10111111
          270 344 rmoveto
          -85 callgsubr
          13 -68 callgsubr
          -32 256 64 hlineto
          -2 -34 rlineto
          -11 -1 -67 callgsubr
          14 hlineto
          -85 callgsubr
          55 vlineto
          -106 callsubr
          -243 -82 callgsubr
          -55 vlineto
          -103 callsubr
          16 -35 callgsubr
          -2 34 rlineto
          63 -256 -31 -82 callgsubr
          -13 vlineto
          -103 callsubr
          430 hmoveto
          10 7 4 10 3 hvcurveto
          88 229 rlineto
          -200 -20 vlineto
          -10 -5 -52 callgsubr
          -13 vlineto
          -103 callsubr
          96 hlineto
          -85 callgsubr
          12 vlineto
          -106 callsubr
          -17 hlineto
          hintmask 11011111
          251 17 vlineto
          -85 callgsubr
          hintmask 10111111
          12 -68 callgsubr
          -67 hlineto
          -11 -6 -4 -10 -3 hvcurveto
          -99 -254 -96 254 rlineto
          10 -3 -7 -53 callsubr
          -75 -82 callgsubr
          hintmask 11011111
          -12 vlineto
          -103 callsubr
          18 -251 -18 -82 callgsubr
          -12 vlineto
          -103 callsubr
          89 hlineto
          -85 callgsubr
          13 vlineto
          -106 callsubr
          -28 209 hlineto
          92 -238 rlineto
          -10 3 7 -73 callgsubr
          endchar
        </CharString>
        <CharString name="two">
          -64 0 82 365 84 hstemhm
          324 115 -38 82 hintmask 00000000
          hintmask 11100000
          231 447 rmoveto
          77 16 -43 -51 -123 -144 -82 -120 -62 hvcurveto
          -14 -7 -3 -4 -15 vvcurveto
          -41 vlineto
          -15 4 -4 15 vhcurveto
          hintmask 11010000
          340 hlineto
          -3 -34 16 callsubr
          47 hlineto
          -84 callsubr
          166 -94 callgsubr
          -47 hlineto
          -15 -4 -4 -15 1 hvcurveto
          4 -50 rlineto
          -206 hlineto
          hintmask 11100000
          106 56 136 81 142 vvcurveto
          116 -75 54 -120 -118 -80 -61 -109 -6 vhcurveto
          -17 callsubr
          52 hlineto
          -73 callsubr
          2 hvcurveto
          57 8 35 29 57 hhcurveto
          endchar
        </CharString>
        <CharString name="twosuperior">
          -245 388 65 243 63 hstem
          221 85 vstem
          161 696 rmoveto
          48 12 -24 -37 -77 -86 -62 -72 -46 hvcurveto
          -13 -8 -4 -4 -15 vvcurveto
          -16 vlineto
          -15 4 -4 15 vhcurveto
          237 hlineto
          -85 callgsubr
          35 vlineto
          -106 callsubr
          -143 hlineto
          63 37 84 61 87 vvcurveto
          85 -53 36 -85 -78 -54 -37 -75 -8 vhcurveto
          12 callgsubr
          29 8 callsubr
          16 3 hvcurveto
          31 5 21 18 38 hhcurveto
          endchar
        </CharString>
        <CharString name="u">
          7 callsubr
          hstemhm
          88 112 198 112 hintmask 00000000
          hintmask 01111000
          -55 callgsubr
          hintmask 10111000
          -83 callsubr
          hintmask 01111000
          9 -56 rlineto
          -10 2 3 14 callgsubr
          112 -105 callgsubr
          endchar
        </CharString>
        <CharString name="uacute">
          7 callsubr
          85 152 hstemhm
          88 112 46 154 -2 -29 callgsubr
          hintmask 01101010
          -55 callgsubr
          hintmask 10101010
          -83 callsubr
          hintmask 01101010
          9 -56 rlineto
          -10 2 3 14 callgsubr
          112 -105 callgsubr
          -306 519 -76 callgsubr
          hintmask 00010100
          -31 callsubr
          endchar
        </CharString>
        <CharString name="ubreve">
          9 49 0 117 198 endchar
        </CharString>
        <CharString name="ucircumflex">
          9 43 0 117 195 endchar
        </CharString>
        <CharString name="udieresis">
          7 callsubr
          100 122 hstemhm
          88 112 -77 -15 callgsubr
          -52 -29 callgsubr
          hintmask 01101001
          -55 callgsubr
          hintmask 10101001
          -83 callsubr
          hintmask 01101001
          9 -56 rlineto
          -10 2 3 14 callgsubr
          112 -105 callgsubr
          hintmask 00010110
          -166 516 -101 callsubr
        </CharString>
        <CharString name="ugrave">
          9 13 0 117 193 endchar
        </CharString>
        <CharString name="uhungarumlaut">
          9 99 0 117 205 endchar
        </CharString>
        <CharString name="umacron">
          7 callsubr
          117 81 hstemhm
          88 112 -50 298 -50 -29 callgsubr
          hintmask 01101010
          -55 callgsubr
          hintmask 10101010
          -83 callsubr
          hintmask 01101010
          9 -56 rlineto
          -10 2 3 14 callgsubr
          112 -105 callgsubr
          hintmask 00010100
          -125 533 -98 callsubr
        </CharString>
        <CharString name="underscore">
          -161 57 hstem
          -7 514 vstem
          488 -161 -26 callgsubr
          19 -94 callgsubr
          -476 hlineto
          -20 callsubr
          -19 vlineto
          -15 4 -4 15 vhcurveto
          endchar
        </CharString>
        <CharString name="uni00A0">
          -390 endchar
        </CharString>
        <CharString name="uni00AD">
          -308 218 77 34 callgsubr
          218 -26 callgsubr
          39 -94 callgsubr
          -184 hlineto
          -20 callsubr
          -39 vlineto
          -15 4 -4 15 vhcurveto
          endchar
        </CharString>
        <CharString name="uni0162">
          3 0 79 520 80 hstemhm
          28 callgsubr
          -110 120 122 87 hintmask 00000000
          hintmask 11110100
          -88 callsubr
          hintmask 11101100
          -20 callgsubr
          129 hlineto
          -41 -59 -94 callsubr
          hintmask 11110100
          -16 14 20 32 rlineto
          endchar
        </CharString>
        <CharString name="uni0163">
          -221 10 -21 424 82 hstemhm
          87 112 -30 120 hintmask 00000000
          hintmask 11100000
          -37 callsubr
          -241 hlineto
          -82 0 -90 118 -11 vhcurveto
          hintmask 11010000
          -33 -48 -94 callsubr
          -16 14 13 21 34 2 39 9 24 12 rlinecurve
          9 5 4 19 callgsubr
          -18 46 rcurveline
          -4 10 -4 1 -8 -3 rrcurveto
          hintmask 11100000
          -8 -18 -17 -6 -26 hhcurveto
          -52 -8 33 56 hvcurveto
          endchar
        </CharString>
        <CharString name="uni021A">
          3 -19 callgsubr
          520 80 hstemhm
          28 callgsubr
          -113 117 128 87 hintmask 01111010
          -88 callsubr
          5 callgsubr
          11 vhcurveto
          hintmask 10000100
          163 -212 -102 callgsubr
        </CharString>
        <CharString name="uni021B">
          -221 -277 207 58 84 341 82 hstemhm
          87 112 -71 117 hintmask 01110000
          199 413 rmoveto
          101 hlineto
          10 5 4 11 hvcurveto
          52 vlineto
          10 -5 5 -10 vhcurveto
          -101 135 hlineto
          -85 callsubr
          hintmask 10001000
          10 -373 -102 callgsubr
        </CharString>
        <CharString name="uni02C9">
          612 24 callgsubr
          612 -98 callsubr
        </CharString>
        <CharString name="uni0394">
          -50 callgsubr
        </CharString>
        <CharString name="uni03A9">
          192 0 79 529 89 hstem
          86 116 375 116 vstem
          344 79 rmoveto
          -77 31 -65 100 137 vvcurveto
          185 75 76 113 109 78 -64 -192 -156 -56 -72 -74 -46 vhcurveto
          -8 -5 -5 -5 -9 vvcurveto
          -44 vlineto
          -11 19 callgsubr
          vhcurveto
          257 hlineto
          -85 callgsubr
          49 -48 callsubr
          -146 hlineto
          81 60 52 106 118 vvcurveto
          209 -117 125 -184 -171 -135 -124 -223 -115 54 -103 78 -53 vhcurveto
          -131 4 callsubr
          44 vlineto
          10 -5 6 -10 4 vhcurveto
          endchar
        </CharString>
        <CharString name="uni03BC">
          -71 callgsubr
        </CharString>
        <CharString name="uni2215">
          -156 745 -20 hstem
          44 356 vstem
          398 727 rmoveto
          14 5 3 callgsubr
          -20 -1 callsubr
          -294 -810 rlineto
          -14 -5 3 18 callgsubr
          19 0 callsubr
          endchar
        </CharString>
        <CharString name="uni2219">
          -337 339 138 hstem
          51 150 vstem
          126 339 rmoveto
          -70 callsubr
          endchar
        </CharString>
        <CharString name="uogonek">
          9 -233 69 152 89 -77 79 334 82 hstemhm
          88 112 183 79 -64 -29 callgsubr
          hintmask 10111100
          383 -95 callsubr
          32 21 41 51 55 hvcurveto
          hintmask 10111010
          20 -105 callgsubr
          -44 401 hlineto
          -106 callsubr
          -160 hlineto
          -10 -5 -97 callgsubr
          63 hlineto
          hintmask 11011010
          -83 callsubr
          hintmask 10111010
          9 -56 rlineto
          hintmask 10111100
          -10 2 3 14 callgsubr
          28 hlineto
          11 callgsubr
          endchar
        </CharString>
        <CharString name="uring">
          9 43 0 117 202 endchar
        </CharString>
        <CharString name="utilde">
          9 49 0 117 196 endchar
        </CharString>
        <CharString name="v">
          -71 0 111 -90 -21 413 82 hstemhm
          0 501 hintmask 00000000
          hintmask 01110000
          165 481 rmoveto
          10 callsubr
          -131 hlineto
          -10 -5 -97 callgsubr
          50 hlineto
          137 -399 rlineto
          -10 4 6 -73 callgsubr
          86 hlineto
          10 7 4 10 3 hvcurveto
          171 451 rlineto
          15 6 -8 15 -16 hhcurveto
          -146 hlineto
          -10 -5 -97 callgsubr
          51 hlineto
          hintmask 10110000
          -105 -302 rlineto
          endchar
        </CharString>
</ttFont>
